<svg xmlns="http://www.w3.org/2000/svg" xmlns:xlink="http://www.w3.org/1999/xlink" width="300" zoomAndPan="magnify" viewBox="0 0 224.87999 178.499995" height="238" preserveAspectRatio="xMidYMid meet" version="1.0"><defs><clipPath id="290afcd96f"><path d="M 26.351562 153 L 172 153 L 172 170 L 26.351562 170 Z M 26.351562 153 " clip-rule="nonzero"/></clipPath><clipPath id="0570852ef6"><path d="M 26.351562 169 L 172 169 L 172 175.460938 L 26.351562 175.460938 Z M 26.351562 169 " clip-rule="nonzero"/></clipPath><clipPath id="d19b72d202"><path d="M 137 11 L 198.371094 11 L 198.371094 90 L 137 90 Z M 137 11 " clip-rule="nonzero"/></clipPath><clipPath id="08754dfe57"><path d="M 128 2.695312 L 189 2.695312 L 189 82 L 128 82 Z M 128 2.695312 " clip-rule="nonzero"/></clipPath><clipPath id="892e4dc62e"><path d="M 128 2.695312 L 189 2.695312 L 189 11 L 128 11 Z M 128 2.695312 " clip-rule="nonzero"/></clipPath></defs><path fill="#27254c" d="M 108.820312 75.800781 C 106.996094 72.917969 105.183594 69.480469 105.582031 65.839844 C 105.785156 63.996094 106.546875 62.273438 107.289062 60.605469 C 108.429688 58.027344 109.640625 55.113281 108.628906 52.417969 C 108.179688 51.21875 107.308594 50.207031 106.46875 49.226562 C 103 45.183594 100.671875 40.734375 99.453125 35.753906 C 99.429688 35.65625 99.488281 35.554688 99.585938 35.53125 C 99.683594 35.507812 99.78125 35.566406 99.804688 35.664062 C 100.953125 40.355469 103.203125 44.789062 106.3125 48.480469 C 107.308594 49.667969 108.417969 50.824219 108.96875 52.289062 C 109.675781 54.171875 109.449219 56.394531 108.253906 59.285156 C 107.367188 61.4375 106.195312 63.574219 105.945312 65.878906 C 105.558594 69.410156 107.335938 72.777344 109.128906 75.605469 C 109.183594 75.691406 109.15625 75.804688 109.074219 75.859375 C 108.988281 75.914062 108.875 75.886719 108.820312 75.800781 Z M 108.820312 75.800781 " fill-opacity="1" fill-rule="nonzero"/><path fill="#f8e77f" d="M 135.191406 146.980469 C 134.441406 147.332031 133.667969 147.609375 132.878906 147.824219 C 127.527344 149.308594 117.859375 148.636719 111.46875 148.941406 L 111.464844 148.933594 C 112.75 148.824219 113.496094 145.996094 113.746094 144.730469 C 113.828125 144.46875 114.132812 142.617188 114.183594 140.71875 C 114.28125 138.371094 114.015625 134.703125 112.976562 132.609375 C 112.582031 131.808594 112.117188 131.34375 111.613281 131.328125 C 111.585938 131.328125 111.558594 131.328125 111.539062 131.328125 L 111.539062 131.324219 C 114.070312 130.71875 116.832031 128.804688 119.273438 127.929688 C 119.703125 127.769531 117.902344 123.132812 117.742188 122.707031 C 115.550781 116.953125 110.710938 105.710938 108.773438 102.054688 C 105.773438 93.371094 107.523438 82.324219 111.917969 74.589844 C 122.019531 75.851562 126.886719 86.199219 130.207031 95.246094 C 133.164062 103.28125 135.664062 111.5 137.800781 119.816406 C 138.792969 123.703125 139.59375 127.667969 140.632812 131.519531 C 142.300781 137.710938 141.058594 144.25 135.191406 146.980469 Z M 135.191406 146.980469 " fill-opacity="1" fill-rule="nonzero"/><path fill="#fccf36" d="M 132.878906 147.824219 C 127.921875 149.199219 119.242188 148.726562 112.96875 148.886719 C 112.769531 147.542969 113.476562 146.308594 113.746094 144.730469 C 113.761719 144.6875 113.769531 144.640625 113.777344 144.59375 C 114.441406 141.257812 114.425781 135.539062 112.976562 132.609375 C 113.65625 131.664062 110.003906 136.746094 122.734375 119.019531 C 122.132812 126.5 120.8125 134.761719 123.21875 142.039062 C 124.136719 144.824219 125.574219 146.792969 129.300781 147.546875 C 130.476562 147.785156 131.675781 147.839844 132.878906 147.824219 Z M 132.878906 147.824219 " fill-opacity="1" fill-rule="nonzero"/><path fill="#fccf36" d="M 119.53125 121.507812 C 119.277344 122.378906 118.785156 123.148438 118.144531 123.777344 C 115.628906 116.945312 110.425781 105.175781 108.773438 102.054688 C 108.53125 101.351562 108.324219 100.640625 108.144531 99.917969 L 114.289062 96.347656 C 114.460938 102.699219 116.320312 108.886719 118.527344 114.84375 C 119.320312 116.988281 120.171875 119.308594 119.53125 121.507812 Z M 119.53125 121.507812 " fill-opacity="1" fill-rule="nonzero"/><path fill="#18142e" d="M 76.589844 77.089844 C 75.523438 75.296875 74.617188 73.40625 73.886719 71.449219 C 73.28125 69.824219 72.789062 68.113281 72.878906 66.382812 C 72.964844 64.753906 73.5625 63.183594 74.414062 61.792969 C 74.78125 61.203125 75.21875 60.613281 75.855469 60.335938 C 76.972656 59.847656 78.257812 60.480469 79.1875 61.273438 C 80.894531 62.726562 82.074219 64.777344 82.535156 66.976562 C 82.996094 69.175781 82.746094 71.507812 81.886719 73.582031 C 81.332031 74.914062 80.484375 76.1875 79.226562 76.894531 C 77.566406 77.832031 75.316406 77.554688 73.929688 76.246094 " fill-opacity="1" fill-rule="nonzero"/><path fill="#18142e" d="M 68.988281 52.976562 C 69.300781 54.578125 69.535156 55.890625 69.875 56.964844 C 70.207031 58.019531 70.742188 59.082031 71.683594 59.660156 C 74.773438 61.554688 75.402344 53.9375 71.425781 52.035156 C 71.125 51.894531 70.800781 51.785156 70.46875 51.804688 C 70.140625 51.820312 69.804688 51.980469 69.640625 52.269531 " fill-opacity="1" fill-rule="nonzero"/><path fill="#27254c" d="M 97.953125 27.910156 C 102.050781 32.777344 100.011719 40.195312 102.898438 45.679688 C 104.03125 47.828125 105.914062 49.71875 106.09375 52.136719 C 106.328125 55.261719 103.667969 57.765625 102.492188 60.667969 C 100.789062 64.867188 102.363281 69.800781 105.15625 73.363281 C 106.460938 75.03125 108.132812 76.894531 107.640625 78.953125 C 107.171875 80.929688 104.882812 81.902344 102.859375 81.960938 C 99.578125 82.054688 96.394531 80.519531 94.003906 78.273438 C 91.609375 76.027344 89.933594 73.117188 88.613281 70.105469 C 86.757812 65.863281 85.550781 61.335938 85.054688 56.730469 " fill-opacity="1" fill-rule="nonzero"/><path fill="#ffc2a5" d="M 103.621094 80.542969 C 103.113281 87.359375 96.628906 92.871094 86.875 91.785156 C 84.691406 91.539062 82.519531 90.984375 80.585938 89.933594 C 79.574219 89.386719 78.746094 88.734375 77.683594 88.308594 C 76.570312 87.863281 75.511719 87.113281 74.535156 86.429688 C 72.542969 85.042969 70.730469 83.394531 69.167969 81.535156 C 68.589844 80.855469 68.042969 80.136719 67.667969 79.328125 C 67.320312 78.578125 67.160156 77.601562 67.71875 76.996094 C 67.949219 76.742188 68.273438 76.597656 68.585938 76.460938 C 70.890625 75.464844 73.269531 74.636719 75.691406 73.984375 C 76.835938 73.679688 77.882812 73.355469 78.289062 72.160156 C 78.289062 72.15625 78.289062 72.152344 78.289062 72.148438 C 78.351562 71.839844 78.367188 71.511719 78.40625 71.160156 C 78.492188 70.402344 78.554688 69.648438 78.59375 68.890625 C 78.757812 66.21875 77.613281 63.621094 76.957031 61.035156 L 76.617188 59.714844 C 78.664062 56.554688 81.1875 55.167969 85.351562 55.15625 C 86.246094 55.152344 88.199219 54.941406 88.734375 55.636719 C 89.222656 56.277344 89.28125 57.183594 89.488281 57.957031 C 89.65625 58.578125 91.746094 66.296875 91.914062 66.914062 C 92.488281 69.03125 93.027344 71.007812 94.667969 72.53125 C 96.246094 73.996094 98.222656 74.960938 100.1875 75.796875 C 101.042969 76.160156 101.921875 76.515625 102.625 77.125 C 103.738281 78.089844 103.71875 79.191406 103.621094 80.542969 Z M 103.621094 80.542969 " fill-opacity="1" fill-rule="nonzero"/><path fill="#f8e77f" d="M 115.078125 104.734375 C 112.144531 122.292969 110.789062 139.183594 113.9375 156.632812 L 114.230469 157.203125 L 65.097656 157.203125 C 65.039062 157.203125 65.21875 156.660156 65.15625 156.660156 C 65.1875 151.988281 64.933594 147.316406 64.398438 142.679688 C 63.519531 135.136719 61.898438 127.683594 59.542969 120.460938 C 58.515625 117.289062 57.28125 113.996094 56.679688 110.667969 C 55.683594 105.164062 56.21875 99.722656 57.339844 94.25 C 57.589844 92.945312 56.695312 77.546875 56.054688 77.546875 C 60.085938 76.628906 66.992188 75.304688 70.953125 74.113281 C 71.441406 77.480469 73.703125 80.460938 76.644531 82.15625 C 81.566406 84.996094 88.269531 84.375 92.21875 81.785156 C 94.683594 80.175781 97.09375 77.085938 98.632812 74.585938 C 99.007812 73.976562 99.179688 73.855469 99.921875 73.878906 C 103.246094 74.003906 108.714844 74.09375 111.992188 74.566406 C 111.769531 77.675781 109.777344 81.21875 110.859375 84.144531 C 112.457031 88.480469 115.515625 92.464844 115.773438 97.1875 C 115.914062 99.714844 115.492188 102.238281 115.078125 104.734375 Z M 115.078125 104.734375 " fill-opacity="1" fill-rule="nonzero"/><path fill="#fccf36" d="M 114.226562 157.203125 L 65.097656 157.203125 C 65.039062 157.203125 65.21875 156.660156 65.15625 156.660156 C 65.1875 151.988281 64.933594 147.316406 64.394531 142.679688 C 67.253906 146.589844 71.433594 149.519531 76.09375 150.824219 C 78.964844 151.628906 81.960938 151.835938 84.941406 151.957031 C 89.09375 152.128906 93.253906 152.15625 97.410156 152.175781 C 103.523438 152.21875 107.328125 152.085938 112.875 149.371094 C 113.144531 151.78125 113.5 154.203125 113.9375 156.632812 Z M 114.226562 157.203125 " fill-opacity="1" fill-rule="nonzero"/><path fill="#fccf36" d="M 77.097656 82.691406 C 76.121094 82.128906 73.71875 80.59375 72.582031 78.515625 C 72.523438 78.410156 72.5625 78.277344 72.671875 78.21875 C 72.777344 78.160156 72.910156 78.199219 72.96875 78.304688 C 74.054688 80.28125 76.371094 81.761719 77.316406 82.308594 C 79.238281 83.414062 81.734375 83.914062 84.742188 83.792969 C 87.53125 83.683594 90.074219 82.925781 92.097656 81.601562 C 94.734375 79.882812 97.117188 77.121094 98.640625 74.027344 C 98.691406 73.917969 98.824219 73.871094 98.933594 73.925781 C 99.042969 73.980469 99.089844 74.113281 99.035156 74.222656 C 97.476562 77.386719 95.039062 80.210938 92.339844 81.972656 C 90.246094 83.339844 87.625 84.121094 84.757812 84.234375 C 82.132812 84.339844 79.367188 83.996094 77.097656 82.691406 Z M 77.097656 82.691406 " fill-opacity="1" fill-rule="nonzero"/><path fill="#e0916e" d="M 91.238281 64.417969 C 88.175781 67.894531 84.050781 70.316406 79.746094 71.988281 C 79.21875 72.191406 78.699219 72.386719 78.164062 72.566406 C 78.160156 72.566406 78.15625 72.566406 78.152344 72.570312 C 78.167969 72.433594 78.1875 72.296875 78.203125 72.160156 C 78.207031 72.15625 78.207031 72.152344 78.207031 72.148438 C 78.246094 71.820312 78.289062 71.488281 78.320312 71.160156 C 78.410156 70.402344 78.46875 69.648438 78.511719 68.890625 C 78.675781 66.21875 77.53125 63.621094 76.875 61.035156 L 76.535156 59.714844 C 77.207031 58.671875 77.960938 57.769531 78.933594 57.007812 C 79.023438 57.050781 79.226562 57.128906 79.976562 57.519531 C 81.40625 58.289062 82.902344 59.15625 84.519531 59.074219 C 86.257812 59 87.664062 57.867188 89.429688 57.765625 C 89.527344 58.082031 90.847656 62.992188 91.238281 64.417969 Z M 91.238281 64.417969 " fill-opacity="1" fill-rule="nonzero"/><path fill="#ffc2a5" d="M 96.207031 49.652344 C 95.8125 53.683594 94.863281 57.753906 92.640625 61.132812 C 90.417969 64.519531 86.773438 67.132812 82.734375 67.339844 C 80.304688 67.457031 77.84375 66.679688 75.90625 65.199219 C 70.832031 61.433594 70.265625 53.191406 71.53125 46.957031 C 73.085938 39.570312 78.554688 32.257812 86.082031 32.832031 C 87.390625 32.925781 88.679688 33.261719 89.867188 33.824219 C 93.34375 35.464844 95.332031 38.710938 96.054688 42.480469 C 96.503906 44.835938 96.453125 47.273438 96.207031 49.652344 Z M 96.207031 49.652344 " fill-opacity="1" fill-rule="nonzero"/><path fill="#18142e" d="M 82.007812 39.714844 C 83.273438 38.398438 83.859375 36.542969 85.164062 35.261719 C 85.816406 34.621094 86.667969 34.140625 87.578125 34.121094 C 89.011719 34.085938 89.285156 35.792969 90.046875 36.648438 C 90.460938 37.109375 91.035156 37.464844 91.652344 37.472656 C 92.402344 37.480469 93.09375 36.960938 93.433594 36.292969 C 93.777344 35.621094 93.808594 34.832031 93.679688 34.089844 C 93.328125 32.035156 91.707031 30.25 89.699219 29.703125 C 88.824219 29.464844 88.179688 29.511719 87.351562 29.816406 C 85.296875 30.574219 83.371094 32.484375 82.449219 35.652344 " fill-opacity="1" fill-rule="nonzero"/><path fill="#12181c" d="M 80.375 44.113281 C 80.007812 43.957031 79.59375 43.964844 79.195312 43.976562 C 76.964844 44.03125 74.710938 44.097656 72.667969 45.027344 C 71.949219 45.355469 71.375 45.800781 70.765625 46.289062 C 74.078125 45.804688 77.449219 45.71875 80.78125 46.027344 C 81.039062 46.054688 81.25 45.832031 81.214844 45.574219 C 81.140625 44.976562 80.988281 44.378906 80.375 44.113281 Z M 80.375 44.113281 " fill-opacity="1" fill-rule="nonzero"/><path fill="#261518" d="M 77.316406 48.03125 C 77.472656 48.039062 77.621094 48.101562 77.757812 48.214844 C 77.898438 48.328125 78.015625 48.484375 78.113281 48.683594 C 78.210938 48.882812 78.285156 49.109375 78.328125 49.363281 C 78.371094 49.617188 78.382812 49.878906 78.367188 50.152344 C 78.347656 50.421875 78.300781 50.679688 78.226562 50.929688 C 78.148438 51.175781 78.050781 51.390625 77.925781 51.574219 C 77.800781 51.757812 77.664062 51.898438 77.511719 51.992188 C 77.363281 52.085938 77.207031 52.128906 77.050781 52.117188 C 76.894531 52.109375 76.746094 52.046875 76.609375 51.933594 C 76.46875 51.820312 76.351562 51.664062 76.253906 51.464844 C 76.15625 51.265625 76.082031 51.039062 76.039062 50.785156 C 75.996094 50.53125 75.984375 50.269531 76 49.996094 C 76.019531 49.726562 76.066406 49.46875 76.140625 49.21875 C 76.21875 48.972656 76.316406 48.757812 76.441406 48.574219 C 76.566406 48.390625 76.703125 48.25 76.855469 48.15625 C 77.003906 48.0625 77.160156 48.019531 77.316406 48.03125 Z M 77.316406 48.03125 " fill-opacity="1" fill-rule="nonzero"/><path fill="#261518" d="M 89.152344 50.296875 C 89.160156 50.570312 89.140625 50.832031 89.09375 51.085938 C 89.042969 51.339844 88.964844 51.5625 88.863281 51.757812 C 88.757812 51.957031 88.636719 52.109375 88.496094 52.21875 C 88.355469 52.328125 88.203125 52.386719 88.046875 52.390625 C 87.890625 52.398438 87.738281 52.351562 87.589844 52.253906 C 87.4375 52.15625 87.304688 52.011719 87.1875 51.824219 C 87.066406 51.636719 86.972656 51.421875 86.902344 51.171875 C 86.832031 50.921875 86.792969 50.664062 86.78125 50.390625 C 86.773438 50.121094 86.792969 49.859375 86.839844 49.605469 C 86.890625 49.351562 86.96875 49.128906 87.070312 48.929688 C 87.175781 48.734375 87.296875 48.582031 87.4375 48.472656 C 87.578125 48.363281 87.730469 48.304688 87.886719 48.296875 C 88.042969 48.292969 88.195312 48.339844 88.34375 48.4375 C 88.496094 48.535156 88.628906 48.675781 88.746094 48.863281 C 88.867188 49.050781 88.960938 49.269531 89.03125 49.519531 C 89.101562 49.765625 89.140625 50.027344 89.152344 50.296875 Z M 89.152344 50.296875 " fill-opacity="1" fill-rule="nonzero"/><path fill="#e0916e" d="M 80.871094 58.523438 C 80.003906 58.324219 79.300781 57.882812 78.890625 57.285156 C 78.382812 56.550781 78.355469 55.582031 78.820312 54.929688 C 79.5 53.980469 81.050781 53.816406 82.175781 54.128906 C 82.535156 50.128906 82.511719 46.078125 82.101562 42.082031 C 82.089844 41.949219 82.1875 41.832031 82.316406 41.820312 C 82.449219 41.804688 82.566406 41.902344 82.582031 42.035156 C 83.003906 46.160156 83.019531 50.34375 82.625 54.472656 C 82.609375 54.628906 82.453125 54.730469 82.304688 54.675781 C 81.71875 54.464844 81.085938 54.410156 80.46875 54.519531 C 79.902344 54.625 79.457031 54.867188 79.210938 55.210938 C 78.867188 55.691406 78.898438 56.449219 79.285156 57.011719 C 79.628906 57.511719 80.230469 57.882812 80.976562 58.054688 C 81.671875 58.21875 82.410156 58.203125 83.121094 58.191406 C 83.125 58.191406 83.125 58.191406 83.125 58.191406 C 83.257812 58.191406 83.363281 58.296875 83.367188 58.429688 C 83.367188 58.5625 83.261719 58.671875 83.128906 58.671875 C 82.375 58.6875 81.617188 58.699219 80.871094 58.523438 Z M 80.871094 58.523438 " fill-opacity="1" fill-rule="nonzero"/><path fill="#12181c" d="M 85.585938 44.113281 C 85.953125 43.957031 86.367188 43.964844 86.769531 43.976562 C 88.996094 44.03125 91.25 44.097656 93.292969 45.027344 C 94.011719 45.355469 94.589844 45.800781 95.195312 46.289062 C 91.882812 45.804688 88.515625 45.71875 85.183594 46.027344 C 84.925781 46.054688 84.714844 45.832031 84.746094 45.574219 C 84.824219 44.976562 84.972656 44.378906 85.585938 44.113281 Z M 85.585938 44.113281 " fill-opacity="1" fill-rule="nonzero"/><path fill="#27254c" d="M 71.457031 47.777344 L 71.367188 47.863281 C 71.363281 47.871094 71.359375 47.875 71.359375 47.878906 C 71.386719 47.71875 71.414062 47.5625 71.445312 47.40625 C 71.449219 47.527344 71.457031 47.652344 71.457031 47.777344 Z M 71.457031 47.777344 " fill-opacity="1" fill-rule="nonzero"/><path fill="#27254c" d="M 86.03125 32.789062 C 86.023438 32.800781 86.019531 32.8125 86.011719 32.824219 L 86 32.824219 Z M 86.03125 32.789062 " fill-opacity="1" fill-rule="nonzero"/><path fill="#27254c" d="M 86.011719 32.824219 C 85.304688 33.910156 85.074219 35.300781 84.722656 36.550781 C 83.285156 41.703125 79.511719 45.449219 74.988281 46.695312 C 73.667969 47.066406 72.019531 47.097656 71.351562 48.476562 C 71.484375 48.203125 71.460938 47.8125 71.445312 47.40625 C 71.402344 46.332031 72.140625 44.625 72.457031 43.789062 C 74.648438 37.722656 79.53125 32.394531 86 32.824219 Z M 86.011719 32.824219 " fill-opacity="1" fill-rule="nonzero"/><path fill="#27254c" d="M 86.082031 32.828125 C 85.988281 32.933594 85.902344 33.046875 85.816406 33.15625 C 85.875 33.046875 85.941406 32.933594 86.011719 32.824219 C 86.035156 32.824219 86.054688 32.828125 86.082031 32.828125 Z M 86.082031 32.828125 " fill-opacity="1" fill-rule="nonzero"/><path fill="#27254c" d="M 96.382812 46.847656 C 95.625 47.535156 95.578125 48.492188 95.015625 49.09375 C 95 47.847656 94.855469 46.597656 94.585938 45.378906 C 94.332031 44.253906 93.816406 43.1875 93.660156 42.058594 C 93.597656 41.59375 93.601562 41.125 93.476562 40.675781 C 93.105469 39.34375 91.742188 38.585938 90.871094 37.519531 C 90.25 36.765625 89.949219 35.902344 89.785156 34.949219 C 89.722656 34.578125 89.789062 34.199219 89.867188 33.824219 C 91.011719 34.367188 92.070312 35.121094 92.972656 36.078125 C 95.628906 38.902344 96.472656 42.898438 96.382812 46.847656 Z M 96.382812 46.847656 " fill-opacity="1" fill-rule="nonzero"/><path fill="#ffc2a5" d="M 94.417969 48.464844 C 94.773438 47.359375 95.796875 46.507812 96.945312 46.3125 C 98.089844 46.113281 99.3125 46.546875 100.117188 47.386719 C 101.71875 49.054688 101.589844 51.875 99.644531 53.628906 C 98.816406 54.371094 97.710938 54.835938 96.601562 54.753906 C 95.496094 54.671875 94.417969 53.988281 93.988281 52.960938 " fill-opacity="1" fill-rule="nonzero"/><path fill="#e0916e" d="M 96.519531 52.066406 C 96.472656 51.941406 96.53125 51.800781 96.65625 51.753906 C 97.652344 51.363281 97.972656 50.597656 97.789062 50.039062 C 97.640625 49.582031 97.101562 49.273438 96.589844 49.351562 C 96.097656 49.429688 95.652344 49.832031 95.484375 50.355469 C 95.445312 50.484375 95.308594 50.554688 95.183594 50.511719 C 95.054688 50.472656 94.984375 50.335938 95.027344 50.210938 C 95.25 49.515625 95.847656 48.980469 96.519531 48.875 C 97.261719 48.761719 98.023438 49.207031 98.246094 49.890625 C 98.507812 50.691406 98.070312 51.71875 96.832031 52.203125 C 96.710938 52.25 96.570312 52.191406 96.519531 52.066406 Z M 96.519531 52.066406 " fill-opacity="1" fill-rule="nonzero"/><path fill="#e0916e" d="M 80.085938 62.695312 C 79.972656 62.628906 79.929688 62.480469 79.996094 62.367188 C 80.0625 62.25 80.210938 62.210938 80.324219 62.277344 C 81.277344 62.824219 82.761719 62.824219 84.363281 61.582031 C 84.46875 61.503906 84.617188 61.519531 84.699219 61.625 C 84.78125 61.730469 84.761719 61.882812 84.65625 61.964844 C 83.945312 62.511719 83.222656 62.871094 82.5 63.023438 C 81.675781 63.195312 80.808594 63.109375 80.085938 62.695312 Z M 80.085938 62.695312 " fill-opacity="1" fill-rule="nonzero"/><path fill="#27254c" d="M 92.011719 26.648438 C 91.652344 26.683594 91.355469 26.679688 91.390625 26.679688 C 91.257812 26.679688 91.152344 26.574219 91.152344 26.441406 C 91.152344 26.308594 91.257812 26.199219 91.390625 26.199219 C 91.589844 26.199219 91.792969 26.1875 91.996094 26.164062 C 91.921875 23.972656 91.980469 21.640625 93.417969 19.878906 C 94.242188 18.871094 95.4375 18.277344 96.578125 18.300781 C 98.351562 18.328125 99.417969 19.703125 98.601562 21.710938 C 97.597656 24.199219 94.933594 26.152344 92.492188 26.582031 C 92.507812 26.945312 92.042969 26.949219 92.011719 26.648438 Z M 93.789062 20.1875 C 92.460938 21.816406 92.40625 24.042969 92.472656 26.097656 C 94.714844 25.675781 97.214844 23.855469 98.15625 21.53125 C 98.832031 19.867188 98.039062 18.804688 96.570312 18.78125 C 95.632812 18.761719 94.566406 19.234375 93.789062 20.1875 Z M 93.789062 20.1875 " fill-opacity="1" fill-rule="nonzero"/><path fill="#18142e" d="M 90.363281 29.109375 C 90.253906 29.035156 90.226562 28.882812 90.300781 28.777344 L 92.28125 25.941406 C 92.359375 25.832031 92.507812 25.804688 92.617188 25.882812 C 92.726562 25.957031 92.75 26.109375 92.675781 26.21875 L 90.695312 29.050781 C 90.621094 29.160156 90.472656 29.1875 90.363281 29.109375 Z M 90.363281 29.109375 " fill-opacity="1" fill-rule="nonzero"/><g clip-path="url(#290afcd96f)"><path fill="#bfc9d1" d="M 171.328125 169.089844 L 26.347656 169.089844 L 40.261719 153.644531 L 157.414062 153.644531 Z M 171.328125 169.089844 " fill-opacity="1" fill-rule="nonzero"/></g><path fill="#ff774c" d="M 149.039062 156.605469 C 145.664062 156.605469 142.917969 153.855469 142.917969 150.472656 C 142.917969 147.09375 145.664062 144.34375 149.039062 144.34375 C 152.414062 144.34375 155.160156 147.09375 155.160156 150.472656 C 155.160156 153.855469 152.414062 156.605469 149.039062 156.605469 Z M 149.050781 146.625 C 148.382812 147.410156 148.265625 148.394531 147.789062 148.472656 C 147.671875 148.492188 147.550781 148.449219 147.449219 148.382812 C 147.207031 148.21875 147.078125 147.9375 146.964844 147.667969 C 146.855469 147.398438 146.734375 147.113281 146.496094 146.941406 C 145.847656 146.476562 145.191406 147.597656 144.925781 148.050781 C 144.03125 149.566406 144.042969 151.46875 144.96875 152.976562 C 145.195312 153.34375 146.007812 154.640625 146.601562 154.332031 C 146.734375 154.265625 146.757812 154.1875 147.21875 153.371094 C 147.34375 153.148438 147.527344 152.894531 147.78125 152.925781 C 147.925781 152.945312 148.039062 153.058594 148.140625 153.167969 C 149.050781 154.183594 148.914062 154.59375 149.753906 154.792969 C 152.121094 155.347656 153.8125 152.5 153.8125 150.472656 C 153.8125 148.507812 152.589844 146.753906 150.855469 146.050781 C 150.214844 145.792969 149.492188 146.105469 149.050781 146.625 Z M 149.050781 146.625 " fill-opacity="1" fill-rule="nonzero"/><g clip-path="url(#0570852ef6)"><path fill="#394049" d="M 26.347656 169.089844 L 171.328125 169.089844 L 171.328125 175.414062 L 26.347656 175.414062 Z M 26.347656 169.089844 " fill-opacity="1" fill-rule="nonzero"/></g><path fill="#fccf36" d="M 113.378906 113.339844 C 113.257812 113.3125 113.183594 113.195312 113.207031 113.078125 C 114.265625 107.949219 115.277344 102.003906 113.886719 96.371094 C 112.308594 89.996094 107.386719 83.753906 108.535156 76.851562 C 108.554688 76.730469 108.671875 76.648438 108.789062 76.671875 C 108.90625 76.691406 108.988281 76.804688 108.96875 76.925781 C 107.835938 83.738281 112.699219 89.738281 114.3125 96.265625 C 115.730469 101.988281 114.707031 107.988281 113.640625 113.167969 C 113.613281 113.28125 113.503906 113.363281 113.378906 113.339844 Z M 113.378906 113.339844 " fill-opacity="1" fill-rule="nonzero"/><path fill="#27254c" d="M 72.816406 141.324219 C 72.824219 141.886719 72.808594 142.445312 72.78125 143 C 72.75 143.554688 72.707031 144.089844 72.644531 144.613281 C 72.582031 145.132812 72.503906 145.628906 72.410156 146.097656 C 72.316406 146.570312 72.210938 147.003906 72.089844 147.402344 C 71.96875 147.804688 71.839844 148.160156 71.695312 148.476562 C 71.554688 148.789062 71.402344 149.054688 71.242188 149.273438 C 71.082031 149.488281 70.917969 149.652344 70.75 149.765625 C 70.578125 149.875 70.40625 149.933594 70.230469 149.933594 C 70.058594 149.9375 69.882812 149.882812 69.710938 149.773438 C 69.539062 149.664062 69.371094 149.503906 69.210938 149.289062 C 69.046875 149.074219 68.890625 148.8125 68.742188 148.5 C 68.597656 148.1875 68.457031 147.832031 68.332031 147.433594 C 68.207031 147.039062 68.089844 146.605469 67.992188 146.136719 C 67.890625 145.667969 67.804688 145.175781 67.734375 144.652344 C 67.660156 144.132812 67.605469 143.597656 67.566406 143.042969 C 67.53125 142.492188 67.507812 141.933594 67.503906 141.367188 C 67.5 140.804688 67.511719 140.246094 67.539062 139.691406 C 67.570312 139.140625 67.617188 138.601562 67.679688 138.082031 C 67.742188 137.558594 67.816406 137.0625 67.910156 136.59375 C 68.003906 136.125 68.109375 135.6875 68.230469 135.289062 C 68.351562 134.890625 68.480469 134.53125 68.625 134.21875 C 68.765625 133.902344 68.917969 133.636719 69.078125 133.421875 C 69.238281 133.203125 69.402344 133.039062 69.570312 132.929688 C 69.742188 132.816406 69.914062 132.761719 70.089844 132.757812 C 70.261719 132.757812 70.4375 132.8125 70.609375 132.917969 C 70.78125 133.027344 70.949219 133.1875 71.113281 133.402344 C 71.273438 133.617188 71.429688 133.882812 71.578125 134.195312 C 71.726562 134.503906 71.863281 134.859375 71.988281 135.257812 C 72.117188 135.65625 72.230469 136.089844 72.332031 136.558594 C 72.429688 137.023438 72.515625 137.519531 72.589844 138.039062 C 72.660156 138.558594 72.714844 139.097656 72.753906 139.648438 C 72.792969 140.203125 72.8125 140.761719 72.816406 141.324219 Z M 72.816406 141.324219 " fill-opacity="1" fill-rule="nonzero"/><path fill="#ffc2a5" d="M 93.113281 137.617188 C 93.089844 137.984375 92.796875 138.277344 92.464844 138.402344 C 92.136719 138.523438 91.777344 138.503906 91.425781 138.480469 C 88.457031 138.253906 85.511719 137.714844 82.570312 137.171875 C 84.644531 138.035156 86.714844 138.898438 88.792969 139.761719 C 89.792969 140.183594 95.75 142.515625 92.515625 144.394531 C 92.074219 144.644531 91.570312 144.738281 91.074219 144.820312 C 91.664062 144.9375 92.011719 145.660156 91.894531 146.273438 C 91.777344 146.886719 91.292969 147.363281 90.75 147.621094 C 90.246094 147.859375 89.691406 147.9375 89.140625 148 C 89.523438 147.988281 89.882812 148.371094 89.910156 148.785156 C 89.9375 149.25 89.644531 149.679688 89.265625 149.921875 C 88.179688 150.609375 84.828125 150.402344 83.601562 150.324219 C 81.761719 150.191406 79.859375 149.988281 78.265625 149.011719 C 77.191406 148.355469 76.332031 147.382812 75.417969 146.503906 C 75.066406 146.167969 74.691406 146.382812 74.269531 146.433594 C 73.585938 146.527344 71.367188 146.742188 70.84375 146.785156 C 67.523438 147.09375 63.792969 147.265625 60.847656 147.285156 L 63.175781 141.421875 L 63.175781 141.414062 L 65.539062 135.460938 C 66.511719 135.0625 67.605469 135.277344 68.648438 135.175781 C 69.5625 135.082031 70.644531 134.6875 70.75 134.667969 C 73.109375 133.914062 73.914062 133.699219 74.851562 133.292969 C 76.453125 132.597656 77.945312 131.5 79.671875 131.324219 C 82.03125 131.085938 83.660156 132.773438 85.5625 133.910156 C 87.488281 135.058594 89.574219 135.921875 91.726562 136.453125 C 92.355469 136.613281 93.148438 136.941406 93.113281 137.617188 Z M 93.113281 137.617188 " fill-opacity="1" fill-rule="nonzero"/><path fill="#e0916e" d="M 70.84375 146.785156 C 68.699219 146.984375 66.445312 147.125 64.625 147.191406 C 63.808594 145.574219 63.261719 143.535156 63.175781 141.421875 L 63.175781 141.414062 L 65.539062 135.460938 C 66.511719 135.0625 67.605469 135.277344 68.648438 135.175781 C 69.5625 135.082031 70.644531 134.6875 70.75 134.667969 C 69.90625 137.023438 69.6875 139.609375 69.792969 142.136719 C 69.863281 143.851562 70.078125 145.332031 70.84375 146.785156 Z M 70.84375 146.785156 " fill-opacity="1" fill-rule="nonzero"/><path fill="#f8e77f" d="M 69.96875 149.84375 L 69.96875 149.886719 C 66.589844 149.664062 55.496094 148.9375 48.589844 148.476562 C 42.464844 148.070312 38.367188 148 34.8125 146.28125 C 29.082031 143.519531 27.925781 137.195312 29.621094 131.273438 C 31.222656 125.632812 33.613281 113.550781 40.167969 96.605469 C 43.699219 87.507812 48.304688 78.214844 58.050781 77.226562 C 58.167969 78.003906 57.285156 71.984375 61.871094 103.371094 C 61.429688 104.15625 60.753906 105.457031 59.949219 107.070312 C 59.9375 107.082031 59.9375 107.082031 59.9375 107.085938 C 58.667969 109.613281 57.066406 112.894531 55.554688 116.125 C 54.492188 118.390625 53.464844 120.628906 52.617188 122.558594 C 52.476562 122.886719 52.339844 123.207031 52.207031 123.511719 C 51.027344 126.273438 50.328125 128.207031 50.601562 128.308594 C 56.582031 130.582031 63.300781 132.128906 70.445312 132.726562 C 69.054688 133 67.871094 136.683594 67.746094 141.222656 C 67.632812 145.730469 68.605469 149.453125 69.96875 149.84375 Z M 69.96875 149.84375 " fill-opacity="1" fill-rule="nonzero"/><path fill="#fccf36" d="M 65.539062 143.554688 C 64.304688 144.734375 63.875 145.8125 63.109375 147.324219 C 62.75 148.023438 62.386719 148.738281 61.910156 149.355469 C 61.859375 149.351562 43.28125 148.152344 41.546875 147.964844 C 44.816406 147.421875 45.949219 146.675781 47.242188 143.757812 C 49.332031 139.046875 49.839844 133.835938 49.863281 128.746094 C 49.878906 125.214844 49.894531 121.683594 49.910156 118.152344 L 52.617188 122.558594 C 52.476562 122.886719 52.339844 123.207031 52.207031 123.511719 C 51.027344 126.273438 50.328125 128.207031 50.601562 128.308594 C 52.863281 129.167969 55.175781 129.902344 57.515625 130.515625 Z M 65.539062 143.554688 " fill-opacity="1" fill-rule="nonzero"/><path fill="#fccf36" d="M 57.140625 112.78125 C 56.613281 113.878906 56.078125 115.003906 55.554688 116.125 C 54.308594 118.773438 53.117188 121.390625 52.210938 123.511719 C 51.691406 123.136719 51.308594 122.597656 51.199219 121.972656 C 51.101562 121.421875 51.21875 120.863281 51.332031 120.316406 C 55.226562 101.96875 55.789062 98.625 57.273438 94.574219 C 56.066406 100.851562 55.570312 106.53125 57.140625 112.78125 Z M 57.140625 112.78125 " fill-opacity="1" fill-rule="nonzero"/><path fill="#fccf36" d="M 69.902344 150.074219 C 68.398438 149.640625 67.394531 145.914062 67.515625 141.21875 C 67.570312 140.328125 68.109375 132.597656 70.433594 132.496094 C 70.554688 132.476562 70.667969 132.589844 70.675781 132.71875 C 70.679688 132.847656 70.582031 132.957031 70.453125 132.960938 C 69.015625 133.027344 68.175781 138.070312 67.980469 141.238281 C 67.859375 146.011719 68.949219 149.3125 70.03125 149.625 C 70.15625 149.660156 70.226562 149.789062 70.191406 149.914062 C 70.15625 150.039062 70.027344 150.109375 69.902344 150.074219 Z M 69.902344 150.074219 " fill-opacity="1" fill-rule="nonzero"/><path fill="#fccf36" d="M 41.535156 131.519531 C 41.457031 131.417969 41.476562 131.273438 41.578125 131.191406 C 44.105469 129.230469 47.230469 128.113281 50.371094 128.042969 C 50.488281 128.035156 50.605469 128.144531 50.609375 128.273438 C 50.613281 128.402344 50.511719 128.511719 50.382812 128.511719 C 47.339844 128.578125 44.3125 129.664062 41.863281 131.5625 C 41.761719 131.644531 41.613281 131.625 41.535156 131.519531 Z M 41.535156 131.519531 " fill-opacity="1" fill-rule="nonzero"/><path fill="#e0916e" d="M 88.851562 148.152344 C 85.972656 147.863281 84.503906 147.144531 82.820312 146.800781 C 82.691406 146.773438 82.609375 146.648438 82.636719 146.523438 C 82.664062 146.398438 82.785156 146.3125 82.914062 146.339844 C 83.855469 146.535156 84.769531 146.847656 85.695312 147.097656 C 86.742188 147.378906 87.820312 147.578125 88.898438 147.6875 C 89.027344 147.699219 89.121094 147.8125 89.105469 147.941406 C 89.09375 148.074219 88.972656 148.167969 88.851562 148.152344 Z M 88.851562 148.152344 " fill-opacity="1" fill-rule="nonzero"/><path fill="#e0916e" d="M 90.855469 144.90625 C 89.832031 144.828125 89.34375 144.601562 84.214844 142.753906 C 84.09375 142.710938 84.03125 142.578125 84.074219 142.453125 C 84.117188 142.332031 84.253906 142.269531 84.375 142.3125 C 89.394531 144.121094 89.917969 144.367188 90.890625 144.4375 C 91.019531 144.449219 91.117188 144.5625 91.105469 144.691406 C 91.097656 144.8125 90.996094 144.914062 90.855469 144.90625 Z M 90.855469 144.90625 " fill-opacity="1" fill-rule="nonzero"/><path fill="#fccf36" d="M 59.078125 119.632812 C 58.074219 116.4375 57.050781 113.242188 56.34375 110.082031 C 54.574219 102.167969 58.171875 94.449219 58.582031 86.691406 C 58.585938 86.570312 58.695312 86.488281 58.8125 86.484375 C 58.933594 86.492188 59.027344 86.59375 59.019531 86.714844 C 58.609375 94.488281 55.035156 102.207031 56.773438 109.984375 C 57.476562 113.132812 58.507812 116.347656 59.5 119.5 C 59.535156 119.617188 59.46875 119.742188 59.355469 119.777344 C 59.238281 119.8125 59.113281 119.746094 59.078125 119.632812 Z M 59.078125 119.632812 " fill-opacity="1" fill-rule="nonzero"/><path fill="#387ae3" d="M 53.886719 159.65625 L 117.261719 159.65625 L 117.261719 164.074219 L 53.886719 164.074219 Z M 53.886719 159.65625 " fill-opacity="1" fill-rule="nonzero"/><path fill="#9dd3f5" d="M 49.992188 118.144531 L 122.691406 118.144531 L 118.484375 161.136719 L 53.019531 161.136719 Z M 49.992188 118.144531 " fill-opacity="1" fill-rule="nonzero"/><path fill="#ffffff" d="M 97.644531 140.203125 C 97.644531 140.5 97.585938 140.789062 97.460938 141.078125 C 97.339844 141.367188 97.15625 141.648438 96.917969 141.917969 C 96.675781 142.191406 96.378906 142.449219 96.03125 142.695312 C 95.683594 142.941406 95.285156 143.167969 94.839844 143.375 C 94.394531 143.582031 93.910156 143.769531 93.390625 143.933594 C 92.867188 144.09375 92.3125 144.234375 91.734375 144.347656 C 91.152344 144.457031 90.554688 144.542969 89.9375 144.601562 C 89.320312 144.660156 88.699219 144.6875 88.070312 144.6875 C 87.441406 144.6875 86.816406 144.660156 86.199219 144.601562 C 85.582031 144.542969 84.984375 144.457031 84.402344 144.347656 C 83.824219 144.234375 83.269531 144.09375 82.746094 143.933594 C 82.226562 143.769531 81.742188 143.582031 81.296875 143.375 C 80.851562 143.167969 80.453125 142.941406 80.105469 142.695312 C 79.757812 142.449219 79.460938 142.191406 79.222656 141.917969 C 78.980469 141.648438 78.796875 141.367188 78.675781 141.078125 C 78.554688 140.789062 78.492188 140.5 78.492188 140.203125 C 78.492188 139.910156 78.554688 139.617188 78.675781 139.328125 C 78.796875 139.042969 78.980469 138.761719 79.222656 138.488281 C 79.460938 138.21875 79.757812 137.957031 80.105469 137.714844 C 80.453125 137.46875 80.851562 137.242188 81.296875 137.035156 C 81.742188 136.828125 82.226562 136.640625 82.746094 136.476562 C 83.269531 136.3125 83.824219 136.175781 84.402344 136.0625 C 84.984375 135.949219 85.582031 135.863281 86.199219 135.808594 C 86.816406 135.75 87.441406 135.722656 88.070312 135.722656 C 88.699219 135.722656 89.320312 135.75 89.9375 135.808594 C 90.554688 135.863281 91.152344 135.949219 91.734375 136.0625 C 92.3125 136.175781 92.867188 136.3125 93.390625 136.476562 C 93.910156 136.640625 94.394531 136.828125 94.839844 137.035156 C 95.285156 137.242188 95.683594 137.46875 96.03125 137.714844 C 96.378906 137.957031 96.675781 138.21875 96.917969 138.488281 C 97.15625 138.761719 97.339844 139.042969 97.460938 139.328125 C 97.585938 139.617188 97.644531 139.910156 97.644531 140.203125 Z M 97.644531 140.203125 " fill-opacity="1" fill-rule="nonzero"/><path fill="#8686e1" d="M 148.199219 140.617188 L 148.199219 160.214844 C 148.199219 161.988281 143.765625 163.425781 138.292969 163.425781 C 132.824219 163.425781 128.390625 161.988281 128.390625 160.214844 L 128.390625 140.617188 Z M 148.199219 140.617188 " fill-opacity="1" fill-rule="nonzero"/><path fill="#5e41d3" d="M 148.199219 140.617188 C 148.199219 140.761719 148.136719 140.90625 148.007812 141.046875 C 147.882812 141.1875 147.695312 141.324219 147.445312 141.457031 C 147.195312 141.589844 146.890625 141.71875 146.53125 141.835938 C 146.167969 141.957031 145.757812 142.066406 145.296875 142.171875 C 144.839844 142.273438 144.335938 142.363281 143.796875 142.441406 C 143.257812 142.523438 142.6875 142.589844 142.085938 142.644531 C 141.484375 142.699219 140.863281 142.742188 140.226562 142.769531 C 139.589844 142.796875 138.945312 142.8125 138.292969 142.8125 C 137.644531 142.8125 137 142.796875 136.363281 142.769531 C 135.726562 142.742188 135.105469 142.699219 134.503906 142.644531 C 133.902344 142.589844 133.332031 142.523438 132.792969 142.441406 C 132.25 142.363281 131.75 142.273438 131.292969 142.171875 C 130.832031 142.066406 130.421875 141.957031 130.058594 141.835938 C 129.699219 141.71875 129.394531 141.589844 129.144531 141.457031 C 128.894531 141.324219 128.707031 141.1875 128.582031 141.046875 C 128.453125 140.90625 128.390625 140.761719 128.390625 140.617188 C 128.390625 140.472656 128.453125 140.332031 128.582031 140.191406 C 128.707031 140.050781 128.894531 139.910156 129.144531 139.777344 C 129.394531 139.644531 129.699219 139.519531 130.058594 139.398438 C 130.421875 139.28125 130.832031 139.167969 131.292969 139.066406 C 131.75 138.964844 132.25 138.875 132.792969 138.792969 C 133.332031 138.714844 133.902344 138.648438 134.503906 138.589844 C 135.105469 138.535156 135.726562 138.496094 136.363281 138.464844 C 137 138.4375 137.644531 138.425781 138.292969 138.425781 C 138.945312 138.425781 139.589844 138.4375 140.226562 138.464844 C 140.863281 138.496094 141.484375 138.535156 142.085938 138.589844 C 142.6875 138.648438 143.257812 138.714844 143.796875 138.792969 C 144.335938 138.875 144.839844 138.964844 145.296875 139.066406 C 145.757812 139.167969 146.167969 139.28125 146.53125 139.398438 C 146.890625 139.519531 147.195312 139.644531 147.445312 139.777344 C 147.695312 139.910156 147.882812 140.050781 148.007812 140.191406 C 148.136719 140.332031 148.199219 140.472656 148.199219 140.617188 Z M 148.199219 140.617188 " fill-opacity="1" fill-rule="nonzero"/><path fill="#ffffff" d="M 146.863281 140.617188 C 146.863281 140.90625 146.445312 141.171875 145.714844 141.398438 C 142.410156 142.4375 134.179688 142.4375 130.875 141.398438 C 127.585938 140.367188 131.699219 139.058594 138.296875 139.058594 C 143.027344 139.058594 146.863281 139.757812 146.863281 140.617188 Z M 146.863281 140.617188 " fill-opacity="1" fill-rule="nonzero"/><path fill="#e0916e" d="M 145.714844 141.398438 C 142.410156 142.4375 134.179688 142.4375 130.875 141.398438 C 134.175781 140.359375 142.421875 140.359375 145.714844 141.398438 Z M 145.714844 141.398438 " fill-opacity="1" fill-rule="nonzero"/><path fill="#bfc9d1" d="M 135.203125 119.671875 C 134.695312 123 134.042969 126.664062 135.078125 130.007812 C 135.527344 131.582031 136.523438 133.324219 137.003906 134.929688 C 137.542969 136.65625 137.644531 138.785156 136.527344 140.203125 C 136.894531 139.386719 136.992188 138.511719 136.914062 137.660156 C 136.566406 133.566406 132.875 131.378906 133.804688 124.847656 C 134.042969 123.054688 134.546875 121.328125 135.203125 119.671875 Z M 135.203125 119.671875 " fill-opacity="1" fill-rule="nonzero"/><path fill="#bfc9d1" d="M 139.230469 117.007812 C 138.722656 120.339844 138.070312 124.003906 139.101562 127.347656 C 139.792969 129.753906 141.539062 132.078125 141.414062 134.992188 C 141.371094 135.90625 141.109375 136.835938 140.554688 137.542969 C 140.921875 136.726562 141.019531 135.847656 140.9375 135 C 140.59375 130.921875 136.902344 128.714844 137.832031 122.1875 C 138.070312 120.390625 138.574219 118.667969 139.230469 117.007812 Z M 139.230469 117.007812 " fill-opacity="1" fill-rule="nonzero"/><path fill="#df2715" d="M 153.710938 140.191406 C 153.113281 139.847656 152.554688 139.441406 152.054688 138.992188 C 151.996094 138.941406 151.992188 138.851562 152.042969 138.796875 C 152.09375 138.738281 152.179688 138.734375 152.238281 138.785156 C 152.726562 139.222656 153.269531 139.613281 153.851562 139.949219 C 153.917969 139.988281 153.941406 140.074219 153.902344 140.140625 C 153.863281 140.207031 153.777344 140.230469 153.710938 140.191406 Z M 153.710938 140.191406 " fill-opacity="1" fill-rule="nonzero"/><path fill="#df2715" d="M 157.519531 141.519531 C 157.445312 141.503906 157.394531 141.433594 157.40625 141.359375 C 157.417969 141.28125 157.488281 141.230469 157.566406 141.242188 C 158.851562 141.441406 160.207031 141.425781 161.5 141.1875 C 161.578125 141.171875 161.648438 141.226562 161.664062 141.300781 C 161.675781 141.378906 161.628906 141.449219 161.550781 141.464844 C 160.175781 141.71875 158.800781 141.71875 157.519531 141.519531 Z M 165.140625 140.011719 C 165.101562 139.945312 165.125 139.859375 165.191406 139.820312 C 166.3125 139.171875 167.34375 138.335938 168.257812 137.335938 C 168.3125 137.28125 168.398438 137.277344 168.457031 137.328125 C 168.511719 137.378906 168.515625 137.46875 168.464844 137.527344 C 167.53125 138.542969 166.476562 139.398438 165.332031 140.0625 C 165.265625 140.101562 165.179688 140.078125 165.140625 140.011719 Z M 170.570312 134.269531 C 170.5 134.234375 170.472656 134.148438 170.507812 134.078125 C 171.128906 132.851562 171.570312 131.550781 171.804688 130.339844 C 171.820312 130.265625 171.890625 130.214844 171.96875 130.230469 C 172.042969 130.246094 172.09375 130.320312 172.078125 130.394531 C 171.839844 131.644531 171.386719 132.964844 170.757812 134.207031 C 170.730469 134.253906 170.636719 134.300781 170.570312 134.269531 Z M 170.335938 129.871094 C 170.324219 129.792969 170.375 129.722656 170.453125 129.714844 C 171.664062 129.542969 172.945312 129.125 174.175781 128.449219 C 174.242188 128.414062 174.328125 128.4375 174.363281 128.503906 C 174.402344 128.574219 174.375 128.65625 174.308594 128.695312 C 173.324219 129.238281 172.285156 129.628906 171.226562 129.859375 C 170.988281 129.910156 170.742188 129.957031 170.492188 129.988281 C 170.417969 130 170.34375 129.949219 170.335938 129.871094 Z M 166.464844 129.769531 C 165.136719 129.4375 163.871094 128.851562 162.808594 128.074219 C 162.746094 128.027344 162.730469 127.9375 162.777344 127.875 C 162.824219 127.816406 162.910156 127.800781 162.972656 127.847656 C 164.007812 128.605469 165.238281 129.175781 166.535156 129.496094 C 166.609375 129.515625 166.652344 129.589844 166.636719 129.664062 C 166.617188 129.742188 166.539062 129.785156 166.464844 129.769531 Z M 171.921875 126.398438 C 171.714844 124.996094 171.242188 123.769531 170.511719 122.757812 C 170.46875 122.695312 170.480469 122.609375 170.542969 122.5625 C 170.605469 122.519531 170.695312 122.53125 170.738281 122.59375 C 171.496094 123.640625 171.984375 124.910156 172.199219 126.359375 C 172.210938 126.433594 172.15625 126.503906 172.082031 126.515625 C 172.011719 126.53125 171.933594 126.480469 171.921875 126.398438 Z M 177.292969 126.21875 C 177.234375 126.167969 177.234375 126.078125 177.285156 126.023438 C 178.191406 125.0625 178.960938 123.972656 179.5625 122.789062 C 179.597656 122.722656 179.683594 122.695312 179.75 122.730469 C 179.820312 122.765625 179.847656 122.847656 179.8125 122.917969 C 179.195312 124.125 178.414062 125.234375 177.488281 126.214844 C 177.433594 126.269531 177.347656 126.273438 177.292969 126.21875 Z M 160.289062 125.101562 C 160.238281 125.101562 160.1875 125.070312 160.164062 125.023438 C 159.773438 124.246094 159.5625 123.398438 159.5625 122.636719 C 159.5625 122.03125 159.691406 121.492188 159.953125 121.039062 C 159.992188 120.972656 160.078125 120.949219 160.144531 120.988281 C 160.210938 121.023438 160.234375 121.109375 160.195312 121.175781 C 159.960938 121.589844 159.839844 122.082031 159.839844 122.636719 C 159.839844 123.355469 160.042969 124.15625 160.414062 124.898438 C 160.449219 124.96875 160.417969 125.050781 160.351562 125.085938 C 160.332031 125.097656 160.308594 125.101562 160.289062 125.101562 Z M 167.449219 120.382812 C 166.289062 119.90625 164.933594 119.679688 163.589844 119.730469 C 163.5 119.734375 163.449219 119.671875 163.445312 119.59375 C 163.445312 119.515625 163.503906 119.453125 163.582031 119.449219 C 164.972656 119.398438 166.359375 119.632812 167.554688 120.125 C 167.628906 120.15625 167.660156 120.238281 167.632812 120.308594 C 167.601562 120.378906 167.519531 120.414062 167.449219 120.382812 Z M 180.949219 119.207031 C 180.871094 119.195312 180.820312 119.121094 180.835938 119.046875 C 181.089844 117.6875 181.128906 116.347656 180.976562 115.09375 C 180.96875 115.019531 181.023438 114.949219 181.101562 114.941406 C 181.179688 114.929688 181.246094 114.984375 181.253906 115.0625 C 181.414062 116.371094 181.363281 117.738281 181.109375 119.097656 C 181.097656 119.171875 181.023438 119.222656 180.949219 119.207031 Z M 176.277344 113.363281 C 176.203125 113.363281 176.140625 113.304688 176.136719 113.226562 C 176.136719 113.148438 176.199219 113.085938 176.273438 113.085938 C 177.597656 113.0625 178.898438 112.710938 180.074219 112.152344 C 180.144531 112.117188 180.226562 112.148438 180.261719 112.21875 C 180.292969 112.289062 180.265625 112.371094 180.195312 112.40625 C 178.96875 112.988281 177.625 113.34375 176.28125 113.363281 C 176.277344 113.363281 176.277344 113.363281 176.277344 113.363281 Z M 172.34375 112.496094 C 170.960938 111.8125 169.90625 110.777344 169.351562 109.792969 C 169.3125 109.726562 169.335938 109.640625 169.402344 109.601562 C 169.46875 109.566406 169.554688 109.589844 169.59375 109.65625 C 170.113281 110.582031 171.125 111.582031 172.464844 112.242188 C 172.535156 112.277344 172.5625 112.363281 172.53125 112.429688 C 172.496094 112.5 172.410156 112.527344 172.34375 112.496094 Z M 179.84375 111.324219 L 179.753906 111.160156 C 179.171875 110.078125 178.347656 109.082031 177.375 108.277344 C 177.3125 108.226562 177.304688 108.140625 177.355469 108.078125 C 177.402344 108.019531 177.492188 108.011719 177.550781 108.058594 C 179.320312 109.519531 180.039062 111.117188 180.089844 111.195312 C 180.125 111.265625 180.097656 111.347656 180.03125 111.382812 C 179.964844 111.417969 179.878906 111.394531 179.84375 111.324219 Z M 183.296875 110.082031 C 183.242188 110.027344 183.242188 109.9375 183.300781 109.882812 C 184.199219 109.011719 185.023438 107.972656 185.722656 106.757812 C 185.757812 106.691406 185.84375 106.667969 185.910156 106.707031 C 185.976562 106.746094 186 106.828125 185.964844 106.898438 C 185.285156 108.078125 184.453125 109.15625 183.492188 110.085938 C 183.464844 110.113281 183.351562 110.136719 183.296875 110.082031 Z M 173.910156 106.441406 C 173.171875 106.230469 172.417969 106.125 171.679688 106.125 C 171.222656 106.125 170.480469 106.167969 170.054688 106.34375 C 169.980469 106.371094 169.898438 106.335938 169.871094 106.265625 C 169.84375 106.195312 169.875 106.113281 169.949219 106.082031 C 170.410156 105.894531 171.175781 105.84375 171.675781 105.84375 C 171.890625 105.859375 172.753906 105.824219 173.988281 106.171875 C 174.0625 106.191406 174.105469 106.269531 174.082031 106.34375 C 174.0625 106.421875 173.984375 106.460938 173.910156 106.441406 Z M 187.328125 103.265625 C 187.253906 103.246094 187.210938 103.167969 187.230469 103.09375 C 187.578125 101.8125 187.761719 100.492188 187.78125 99.167969 C 187.785156 98.972656 188.0625 98.992188 188.0625 99.171875 C 188.039062 100.519531 187.851562 101.863281 187.5 103.167969 C 187.480469 103.242188 187.402344 103.285156 187.328125 103.265625 Z M 187.328125 103.265625 " fill-opacity="1" fill-rule="nonzero"/><path fill="#df2715" d="M 187.328125 95.183594 C 187.164062 94.535156 186.957031 93.894531 186.710938 93.28125 C 186.679688 93.207031 186.714844 93.125 186.785156 93.097656 C 186.859375 93.066406 186.9375 93.101562 186.96875 93.175781 C 187.222656 93.800781 187.433594 94.453125 187.597656 95.117188 C 187.617188 95.191406 187.574219 95.265625 187.496094 95.285156 C 187.425781 95.304688 187.347656 95.261719 187.328125 95.183594 Z M 187.328125 95.183594 " fill-opacity="1" fill-rule="nonzero"/><g clip-path="url(#d19b72d202)"><path fill="#f2b9ad" d="M 137.417969 11.371094 L 198.375 11.371094 L 198.375 89.734375 L 137.417969 89.734375 Z M 137.417969 11.371094 " fill-opacity="1" fill-rule="nonzero"/></g><path fill="#9dd3f5" d="M 132.613281 6.488281 L 193.570312 6.488281 L 193.570312 84.847656 L 132.613281 84.847656 Z M 132.613281 6.488281 " fill-opacity="1" fill-rule="nonzero"/><g clip-path="url(#08754dfe57)"><path fill="#edf1f5" d="M 128.015625 2.742188 L 188.96875 2.742188 L 188.96875 81.105469 L 128.015625 81.105469 Z M 128.015625 2.742188 " fill-opacity="1" fill-rule="nonzero"/></g><g clip-path="url(#892e4dc62e)"><path fill="#bfc9d1" d="M 128.015625 2.742188 L 188.96875 2.742188 L 188.96875 10.804688 L 128.015625 10.804688 Z M 128.015625 2.742188 " fill-opacity="0.61" fill-rule="nonzero"/></g><path fill="#72d497" d="M 136.007812 22.761719 L 163.957031 22.761719 L 163.957031 41.007812 L 136.007812 41.007812 Z M 136.007812 22.761719 " fill-opacity="0.74" fill-rule="nonzero"/><path fill="#f8e77f" d="M 161.949219 60.5 L 182.730469 60.5 L 182.730469 74.855469 L 161.949219 74.855469 Z M 161.949219 60.5 " fill-opacity="0.74" fill-rule="nonzero"/><path fill="#fccf36" d="M 167.261719 72.96875 L 169.972656 68.296875 L 172.128906 71.046875 L 175.277344 64.523438 L 177.984375 72.96875 Z M 167.261719 72.96875 " fill-opacity="0.74" fill-rule="nonzero"/><path fill="#27254c" d="M 180.722656 73.117188 L 163.957031 73.117188 C 163.875 73.117188 163.808594 73.050781 163.808594 72.96875 L 163.808594 62.386719 C 163.808594 62.300781 163.875 62.234375 163.957031 62.234375 L 180.722656 62.234375 C 180.804688 62.234375 180.871094 62.300781 180.871094 62.386719 L 180.871094 72.96875 C 180.871094 73.050781 180.804688 73.117188 180.722656 73.117188 Z M 164.105469 72.820312 L 180.574219 72.820312 L 180.574219 62.535156 L 164.105469 62.535156 Z M 164.105469 72.820312 " fill-opacity="0.74" fill-rule="nonzero"/><path fill="#27254c" d="M 182.074219 24.140625 C 176.722656 24.109375 171.773438 24.109375 166.503906 24.140625 C 166.4375 24.140625 166.378906 24.085938 166.378906 24.015625 C 166.378906 23.945312 166.433594 23.890625 166.503906 23.890625 C 171.773438 23.859375 176.722656 23.859375 182.078125 23.890625 C 182.144531 23.890625 182.199219 23.945312 182.199219 24.015625 C 182.199219 24.085938 182.144531 24.140625 182.074219 24.140625 Z M 182.074219 24.140625 " fill-opacity="1" fill-rule="nonzero"/><path fill="#27254c" d="M 174.257812 31.835938 C 171.691406 31.835938 169.136719 31.808594 166.503906 31.757812 C 166.433594 31.757812 166.378906 31.699219 166.378906 31.632812 C 166.382812 31.5625 166.4375 31.507812 166.503906 31.507812 C 166.503906 31.507812 166.507812 31.507812 166.507812 31.507812 C 171.773438 31.609375 176.71875 31.609375 182.074219 31.507812 C 182.132812 31.496094 182.199219 31.5625 182.199219 31.632812 C 182.203125 31.699219 182.148438 31.757812 182.078125 31.757812 C 179.398438 31.808594 176.824219 31.835938 174.257812 31.835938 Z M 174.257812 31.835938 " fill-opacity="1" fill-rule="nonzero"/><path fill="#27254c" d="M 166.503906 39.378906 C 166.4375 39.378906 166.378906 39.324219 166.378906 39.253906 C 166.378906 39.183594 166.433594 39.128906 166.503906 39.128906 C 171.773438 39.109375 176.722656 39.109375 182.074219 39.128906 C 182.144531 39.128906 182.199219 39.183594 182.199219 39.253906 C 182.199219 39.324219 182.144531 39.378906 182.074219 39.378906 C 176.71875 39.359375 171.773438 39.359375 166.503906 39.378906 Z M 166.503906 39.378906 " fill-opacity="1" fill-rule="nonzero"/><path fill="#27254c" d="M 182.074219 47 L 134.910156 47 C 134.839844 47 134.785156 46.941406 134.785156 46.875 C 134.785156 46.804688 134.839844 46.75 134.910156 46.75 L 182.074219 46.75 C 182.144531 46.75 182.199219 46.804688 182.199219 46.875 C 182.199219 46.941406 182.144531 47 182.074219 47 Z M 182.074219 47 " fill-opacity="1" fill-rule="nonzero"/><path fill="#27254c" d="M 182.074219 54.617188 L 134.910156 54.617188 C 134.839844 54.617188 134.785156 54.5625 134.785156 54.492188 C 134.785156 54.425781 134.839844 54.367188 134.910156 54.367188 L 182.074219 54.367188 C 182.144531 54.367188 182.199219 54.425781 182.199219 54.492188 C 182.199219 54.5625 182.144531 54.617188 182.074219 54.617188 Z M 182.074219 54.617188 " fill-opacity="1" fill-rule="nonzero"/><path fill="#27254c" d="M 147.800781 62.324219 C 143.519531 62.324219 139.242188 62.296875 134.90625 62.238281 C 134.839844 62.238281 134.78125 62.179688 134.785156 62.113281 C 134.785156 62.042969 134.84375 61.976562 134.910156 61.988281 C 143.578125 62.105469 152.019531 62.105469 160.710938 61.988281 C 160.882812 61.988281 160.878906 62.238281 160.714844 62.238281 C 156.367188 62.296875 152.082031 62.324219 147.800781 62.324219 Z M 147.800781 62.324219 " fill-opacity="1" fill-rule="nonzero"/><path fill="#27254c" d="M 160.714844 69.859375 C 152.039062 69.855469 143.558594 69.855469 134.910156 69.859375 C 134.839844 69.859375 134.785156 69.800781 134.785156 69.734375 C 134.785156 69.664062 134.839844 69.609375 134.910156 69.609375 C 143.558594 69.605469 152.042969 69.605469 160.714844 69.609375 C 160.78125 69.609375 160.839844 69.664062 160.839844 69.734375 C 160.839844 69.800781 160.78125 69.859375 160.714844 69.859375 Z M 160.714844 69.859375 " fill-opacity="1" fill-rule="nonzero"/><path fill="#ffffff" d="M 135.601562 6.773438 C 135.601562 6.953125 135.566406 7.125 135.496094 7.292969 C 135.429688 7.457031 135.332031 7.601562 135.207031 7.730469 C 135.078125 7.855469 134.933594 7.953125 134.769531 8.023438 C 134.601562 8.089844 134.429688 8.125 134.25 8.125 C 134.074219 8.125 133.902344 8.089844 133.734375 8.023438 C 133.570312 7.953125 133.425781 7.855469 133.296875 7.730469 C 133.171875 7.601562 133.074219 7.457031 133.007812 7.292969 C 132.9375 7.125 132.902344 6.953125 132.902344 6.773438 C 132.902344 6.59375 132.9375 6.421875 133.007812 6.257812 C 133.074219 6.09375 133.171875 5.945312 133.296875 5.820312 C 133.425781 5.691406 133.570312 5.59375 133.734375 5.527344 C 133.902344 5.457031 134.074219 5.425781 134.25 5.425781 C 134.429688 5.425781 134.601562 5.457031 134.769531 5.527344 C 134.933594 5.59375 135.078125 5.691406 135.207031 5.820312 C 135.332031 5.945312 135.429688 6.09375 135.496094 6.257812 C 135.566406 6.421875 135.601562 6.59375 135.601562 6.773438 Z M 135.601562 6.773438 " fill-opacity="1" fill-rule="nonzero"/><path fill="#ffffff" d="M 142.714844 6.773438 C 142.714844 6.953125 142.679688 7.125 142.609375 7.292969 C 142.542969 7.457031 142.445312 7.601562 142.320312 7.730469 C 142.191406 7.855469 142.046875 7.953125 141.882812 8.023438 C 141.714844 8.089844 141.542969 8.125 141.367188 8.125 C 141.1875 8.125 141.015625 8.089844 140.851562 8.023438 C 140.683594 7.953125 140.539062 7.855469 140.414062 7.730469 C 140.285156 7.601562 140.1875 7.457031 140.121094 7.292969 C 140.050781 7.125 140.015625 6.953125 140.015625 6.773438 C 140.015625 6.59375 140.050781 6.421875 140.121094 6.257812 C 140.1875 6.09375 140.285156 5.945312 140.414062 5.820312 C 140.539062 5.691406 140.683594 5.59375 140.851562 5.527344 C 141.015625 5.457031 141.1875 5.425781 141.367188 5.425781 C 141.542969 5.425781 141.714844 5.457031 141.882812 5.527344 C 142.046875 5.59375 142.191406 5.691406 142.320312 5.820312 C 142.445312 5.945312 142.542969 6.09375 142.609375 6.257812 C 142.679688 6.421875 142.714844 6.59375 142.714844 6.773438 Z M 142.714844 6.773438 " fill-opacity="1" fill-rule="nonzero"/><path fill="#ffffff" d="M 149.828125 6.773438 C 149.828125 6.953125 149.792969 7.125 149.722656 7.292969 C 149.65625 7.457031 149.558594 7.601562 149.433594 7.730469 C 149.304688 7.855469 149.160156 7.953125 148.996094 8.023438 C 148.828125 8.089844 148.65625 8.125 148.480469 8.125 C 148.300781 8.125 148.128906 8.089844 147.964844 8.023438 C 147.796875 7.953125 147.652344 7.855469 147.527344 7.730469 C 147.398438 7.601562 147.300781 7.457031 147.234375 7.292969 C 147.164062 7.125 147.128906 6.953125 147.128906 6.773438 C 147.128906 6.59375 147.164062 6.421875 147.234375 6.257812 C 147.300781 6.09375 147.398438 5.945312 147.527344 5.820312 C 147.652344 5.691406 147.796875 5.59375 147.964844 5.527344 C 148.128906 5.457031 148.300781 5.425781 148.480469 5.425781 C 148.65625 5.425781 148.828125 5.457031 148.996094 5.527344 C 149.160156 5.59375 149.304688 5.691406 149.433594 5.820312 C 149.558594 5.945312 149.65625 6.09375 149.722656 6.257812 C 149.792969 6.421875 149.828125 6.59375 149.828125 6.773438 Z M 149.828125 6.773438 " fill-opacity="1" fill-rule="nonzero"/><path fill="#27254c" d="M 173.464844 16.910156 L 140.636719 16.910156 C 140.566406 16.910156 140.511719 16.851562 140.511719 16.785156 C 140.511719 16.714844 140.566406 16.660156 140.636719 16.660156 L 173.464844 16.660156 C 173.535156 16.660156 173.589844 16.714844 173.589844 16.785156 C 173.589844 16.851562 173.535156 16.910156 173.464844 16.910156 Z M 173.464844 16.910156 " fill-opacity="1" fill-rule="nonzero"/><path fill="#bfc9d1" d="M 188.96875 72.171875 C 188.902344 72.171875 188.847656 72.117188 188.847656 72.046875 L 188.847656 19.082031 C 188.847656 19.011719 188.902344 18.957031 188.96875 18.957031 C 189.039062 18.957031 189.09375 19.011719 189.09375 19.082031 L 189.09375 72.046875 C 189.09375 72.117188 189.039062 72.171875 188.96875 72.171875 Z M 188.96875 72.171875 " fill-opacity="1" fill-rule="nonzero"/><path fill="#6db0f4" d="M 193.570312 83.828125 C 193.5 83.828125 193.445312 83.773438 193.445312 83.703125 L 193.445312 42.3125 C 193.445312 42.242188 193.5 42.1875 193.570312 42.1875 C 193.636719 42.1875 193.695312 42.242188 193.695312 42.3125 L 193.695312 83.703125 C 193.695312 83.773438 193.636719 83.828125 193.570312 83.828125 Z M 193.570312 83.828125 " fill-opacity="1" fill-rule="nonzero"/><path fill="#fccf36" d="M 170.816406 65.21875 C 170.816406 65.433594 170.742188 65.621094 170.585938 65.773438 C 170.433594 65.925781 170.25 66 170.035156 66 C 169.820312 66 169.632812 65.925781 169.480469 65.773438 C 169.328125 65.621094 169.253906 65.433594 169.253906 65.21875 C 169.253906 65.003906 169.328125 64.816406 169.480469 64.664062 C 169.632812 64.511719 169.820312 64.433594 170.035156 64.433594 C 170.25 64.433594 170.433594 64.511719 170.585938 64.664062 C 170.742188 64.816406 170.816406 65.003906 170.816406 65.21875 Z M 170.816406 65.21875 " fill-opacity="1" fill-rule="nonzero"/><path fill="#309d6d" d="M 144.148438 38.335938 L 147.539062 32.488281 L 150.242188 35.929688 L 154.183594 27.757812 L 157.574219 38.335938 Z M 144.148438 38.335938 " fill-opacity="0.74" fill-rule="nonzero"/><path fill="#27254c" d="M 161 38.523438 L 140.007812 38.523438 C 139.902344 38.523438 139.820312 38.441406 139.820312 38.335938 L 139.820312 25.082031 C 139.820312 24.976562 139.902344 24.894531 140.007812 24.894531 L 161 24.894531 C 161.105469 24.894531 161.1875 24.976562 161.1875 25.082031 L 161.1875 38.335938 C 161.1875 38.441406 161.105469 38.523438 161 38.523438 Z M 140.191406 38.148438 L 160.816406 38.148438 L 160.816406 25.269531 L 140.191406 25.269531 Z M 140.191406 38.148438 " fill-opacity="0.74" fill-rule="nonzero"/><path fill="#309d6d" d="M 148.597656 28.628906 C 148.597656 28.902344 148.5 29.132812 148.308594 29.324219 C 148.117188 29.515625 147.886719 29.609375 147.617188 29.609375 C 147.347656 29.609375 147.117188 29.515625 146.925781 29.324219 C 146.734375 29.132812 146.636719 28.902344 146.636719 28.628906 C 146.636719 28.359375 146.734375 28.128906 146.925781 27.9375 C 147.117188 27.746094 147.347656 27.648438 147.617188 27.648438 C 147.886719 27.648438 148.117188 27.746094 148.308594 27.9375 C 148.5 28.128906 148.597656 28.359375 148.597656 28.628906 Z M 148.597656 28.628906 " fill-opacity="0.74" fill-rule="nonzero"/><path fill="#27254c" d="M 99.71875 45.386719 C 98.726562 45.445312 97.734375 45.449219 96.742188 45.398438 C 96.582031 45.390625 96.53125 45.351562 96.5 45.175781 C 96.34375 44.277344 96.226562 43.375 96.054688 42.480469 C 95.332031 38.714844 93.347656 35.46875 89.867188 33.824219 C 89.972656 33.324219 90.101562 32.824219 89.957031 32.34375 C 89.730469 31.5625 88.730469 31.238281 87.953125 31.460938 C 87.234375 31.667969 86.601562 32.203125 86.082031 32.832031 C 78.242188 32.230469 72.664062 40.171875 71.359375 47.878906 C 70.449219 48.871094 69.859375 50.453125 69.621094 51.753906 C 69.34375 53.269531 69.535156 54.902344 70.320312 56.238281 C 70.667969 56.828125 71.082031 57.371094 71.53125 57.894531 C 72.339844 61.386719 74.039062 63.816406 75.90625 65.199219 C 75.976562 65.421875 76.050781 65.640625 76.117188 65.859375 C 77.378906 70.019531 77.234375 74.421875 76.273438 78.648438 C 75.558594 81.804688 74.574219 84.917969 74.285156 88.140625 C 73.996094 91.363281 74.484375 94.800781 76.441406 97.378906 C 73.648438 97.957031 70.792969 98.246094 67.941406 98.230469 C 67.386719 98.230469 66.804688 98.207031 66.324219 97.929688 C 65.886719 97.675781 65.585938 97.246094 65.332031 96.808594 C 64.0625 94.621094 63.585938 92.078125 63.132812 89.589844 C 62.511719 92.71875 62.964844 96.050781 64.394531 98.902344 C 64.28125 98.675781 61.621094 98.40625 61.230469 98.304688 C 58.289062 97.539062 54.585938 95.9375 51.964844 94.453125 C 48.339844 92.40625 45.21875 89.464844 42.980469 85.949219 C 44.792969 86.359375 46.699219 86.058594 48.488281 85.554688 C 49.792969 85.183594 51.097656 84.6875 52.136719 83.808594 C 53.457031 82.6875 54.234375 81.03125 54.605469 79.335938 C 55.171875 76.734375 54.113281 73.628906 55.835938 71.445312 C 57.171875 69.746094 59.523438 69.128906 60.933594 67.492188 C 62.425781 65.761719 62.566406 63.277344 62.632812 60.992188 C 62.722656 57.984375 62.8125 54.976562 62.902344 51.96875 C 62.988281 49.007812 62.808594 45.890625 63.167969 42.953125 C 63.714844 38.488281 64.027344 33.410156 66.796875 29.640625 C 68.433594 27.410156 70.8125 25.855469 73.238281 24.527344 C 77.117188 22.398438 81.40625 20.703125 85.832031 20.824219 C 91.234375 20.964844 92.839844 24.316406 92.246094 26.464844 C 93.082031 26.085938 93.972656 25.789062 94.890625 25.789062 C 96.839844 25.78125 98.183594 27.734375 98.757812 29.414062 C 99.625 31.945312 99.273438 34.578125 99.265625 37.183594 C 99.257812 39.0625 99.417969 41.34375 99.785156 43.75 C 99.863281 44.273438 100.039062 44.742188 99.859375 45.277344 C 99.847656 45.308594 99.835938 45.34375 99.808594 45.363281 C 99.78125 45.382812 99.75 45.382812 99.71875 45.386719 Z M 99.71875 45.386719 " fill-opacity="1" fill-rule="nonzero"/><path fill="#ffc2a5" d="M 71.648438 48.441406 C 71.292969 47.332031 70.269531 46.484375 69.125 46.285156 C 67.980469 46.085938 66.757812 46.523438 65.953125 47.359375 C 64.347656 49.027344 64.480469 51.851562 66.425781 53.601562 C 67.25 54.34375 68.359375 54.808594 69.464844 54.726562 C 70.574219 54.644531 71.652344 53.964844 72.082031 52.9375 " fill-opacity="1" fill-rule="nonzero"/><path fill="#e0916e" d="M 69.238281 52.175781 C 68.007812 51.695312 67.558594 50.675781 67.824219 49.863281 C 68.046875 49.179688 68.800781 48.738281 69.550781 48.851562 C 70.21875 48.953125 70.820312 49.488281 71.042969 50.183594 C 71.082031 50.308594 71.011719 50.445312 70.886719 50.488281 C 70.761719 50.527344 70.625 50.457031 70.585938 50.332031 C 70.414062 49.804688 69.96875 49.402344 69.476562 49.328125 C 68.96875 49.246094 68.429688 49.554688 68.28125 50.011719 C 68.097656 50.574219 68.417969 51.339844 69.414062 51.726562 C 69.535156 51.777344 69.597656 51.917969 69.550781 52.039062 C 69.5 52.164062 69.363281 52.226562 69.238281 52.175781 Z M 69.238281 52.175781 " fill-opacity="1" fill-rule="nonzero"/><path fill="#27254c" d="M 48.382812 81.730469 C 48.351562 81.636719 48.402344 81.53125 48.496094 81.5 C 50.074219 80.949219 51.347656 79.609375 51.820312 78.003906 C 52.261719 76.503906 52.027344 74.964844 51.777344 73.335938 C 51.527344 71.71875 51.195312 69.734375 51.925781 68.414062 C 52.964844 66.535156 56.582031 65.40625 58.558594 63.171875 C 59.769531 61.804688 60.546875 59.839844 60.800781 57.492188 C 61.027344 55.414062 60.855469 53.277344 60.78125 51.199219 C 60.617188 46.578125 60.96875 42.664062 61.859375 39.226562 C 62.945312 35.023438 64.90625 31.378906 67.527344 28.691406 C 67.601562 28.617188 67.714844 28.617188 67.785156 28.6875 C 67.859375 28.757812 67.859375 28.875 67.789062 28.945312 C 65.210938 31.589844 63.28125 35.175781 62.210938 39.316406 C 61.085938 43.667969 61 47.980469 61.195312 52.410156 C 61.273438 54.089844 61.347656 55.828125 61.164062 57.53125 C 60.898438 59.953125 60.09375 61.988281 58.832031 63.414062 C 57.382812 65.054688 55.335938 65.960938 53.59375 67.222656 C 52.261719 68.183594 51.78125 68.957031 51.847656 70.769531 C 51.933594 73.199219 52.871094 75.714844 52.167969 78.109375 C 51.664062 79.824219 50.304688 81.253906 48.617188 81.84375 C 48.519531 81.875 48.417969 81.824219 48.382812 81.730469 Z M 48.382812 81.730469 " fill-opacity="1" fill-rule="nonzero"/><path fill="#18142e" d="M 63.1875 89.878906 C 60.804688 80.113281 69.386719 70.691406 67.5 61.039062 C 67.472656 60.910156 67.558594 60.78125 67.6875 60.757812 C 67.816406 60.730469 67.945312 60.816406 67.96875 60.945312 C 69.890625 70.761719 61.316406 80.1875 63.65625 89.765625 C 63.6875 89.894531 63.605469 90.023438 63.476562 90.054688 C 63.355469 90.085938 63.21875 90.011719 63.1875 89.878906 Z M 63.1875 89.878906 " fill-opacity="1" fill-rule="nonzero"/><path fill="#ffffff" d="M 134.144531 152.773438 C 135.011719 154.707031 136.777344 156.230469 138.382812 156.90625 C 138.386719 156.90625 138.386719 156.90625 138.390625 156.90625 C 138.550781 156.835938 141.273438 155.652344 142.421875 152.757812 C 142.421875 152.757812 143.414062 150.714844 141.230469 149.347656 C 141.230469 149.347656 139.535156 148.390625 138.234375 150.742188 C 136.816406 148.398438 135.167969 149.363281 135.167969 149.363281 C 133.050781 150.738281 134.144531 152.773438 134.144531 152.773438 Z M 134.144531 152.773438 " fill-opacity="1" fill-rule="nonzero"/></svg>