<svg xmlns="http://www.w3.org/2000/svg" xmlns:xlink="http://www.w3.org/1999/xlink" width="300" zoomAndPan="magnify" viewBox="0 0 224.87999 225" height="300" preserveAspectRatio="xMidYMid meet" version="1.0"><defs><clipPath id="9a4e98d7e0"><path d="M 0 0.0585938 L 224.761719 0.0585938 L 224.761719 224.9375 L 0 224.9375 Z M 0 0.0585938 " clip-rule="nonzero"/></clipPath><clipPath id="801319b1cf"><path d="M 112.441406 0.0585938 C 50.339844 0.0585938 0 50.402344 0 112.5 C 0 174.597656 50.339844 224.941406 112.441406 224.941406 C 174.539062 224.941406 224.878906 174.597656 224.878906 112.5 C 224.878906 50.402344 174.539062 0.0585938 112.441406 0.0585938 Z M 112.441406 0.0585938 " clip-rule="nonzero"/></clipPath><clipPath id="bbc3ef1420"><path d="M 187 183 L 205 183 L 205 204.699219 L 187 204.699219 Z M 187 183 " clip-rule="nonzero"/></clipPath><clipPath id="e521be0db0"><path d="M 52 183 L 69 183 L 69 204.699219 L 52 204.699219 Z M 52 183 " clip-rule="nonzero"/></clipPath><clipPath id="225b6ecc50"><path d="M 39.667969 174 L 216.574219 174 L 216.574219 188 L 39.667969 188 Z M 39.667969 174 " clip-rule="nonzero"/></clipPath><clipPath id="85b22abfd3"><path d="M 127 22.546875 L 205 22.546875 L 205 126 L 127 126 Z M 127 22.546875 " clip-rule="nonzero"/></clipPath><clipPath id="c3d09269c8"><path d="M 127 22.546875 L 150 22.546875 L 150 44 L 127 44 Z M 127 22.546875 " clip-rule="nonzero"/></clipPath><clipPath id="eeda7b3959"><path d="M 39.667969 174 L 216.574219 174 L 216.574219 188 L 39.667969 188 Z M 39.667969 174 " clip-rule="nonzero"/></clipPath><clipPath id="944d55c1a6"><path d="M 52 187 L 69 187 L 69 204.699219 L 52 204.699219 Z M 52 187 " clip-rule="nonzero"/></clipPath><clipPath id="c529cd9707"><path d="M 187 187 L 205 187 L 205 204.699219 L 187 204.699219 Z M 187 187 " clip-rule="nonzero"/></clipPath></defs><g clip-path="url(#9a4e98d7e0)"><g clip-path="url(#801319b1cf)"><path fill="#e6fff2" d="M 0 0.0585938 L 224.878906 0.0585938 L 224.878906 224.941406 L 0 224.941406 Z M 0 0.0585938 " fill-opacity="1" fill-rule="nonzero"/></g></g><path fill="#fbbd80" d="M 52.214844 59.957031 L 90.175781 59.957031 L 90.175781 102.410156 L 52.214844 102.410156 Z M 52.214844 59.957031 " fill-opacity="1" fill-rule="nonzero"/><path fill="#f5ad65" d="M 90.175781 59.957031 L 128.140625 59.957031 L 128.140625 102.410156 L 90.175781 102.410156 Z M 90.175781 59.957031 " fill-opacity="1" fill-rule="nonzero"/><g clip-path="url(#bbc3ef1420)"><path fill="#b7cfe8" d="M 187.789062 183.042969 L 204.054688 183.042969 L 204.054688 204.699219 L 187.789062 204.699219 Z M 187.789062 183.042969 " fill-opacity="1" fill-rule="nonzero"/></g><g clip-path="url(#e521be0db0)"><path fill="#b7cfe8" d="M 52.214844 183.042969 L 68.480469 183.042969 L 68.480469 204.699219 L 52.214844 204.699219 Z M 52.214844 183.042969 " fill-opacity="1" fill-rule="nonzero"/></g><path fill="#fbbd80" d="M 52.214844 136.625 L 90.175781 136.625 L 90.175781 174.582031 L 52.214844 174.582031 Z M 52.214844 136.625 " fill-opacity="1" fill-rule="nonzero"/><path fill="#ff3d50" d="M 66.457031 136.625 L 75.941406 136.625 L 75.941406 150.394531 L 66.457031 150.394531 Z M 66.457031 136.625 " fill-opacity="1" fill-rule="nonzero"/><path fill="#f5ad65" d="M 90.175781 136.625 L 128.140625 136.625 L 128.140625 174.582031 L 90.175781 174.582031 Z M 90.175781 136.625 " fill-opacity="1" fill-rule="nonzero"/><path fill="#ff3d50" d="M 104.421875 136.625 L 113.894531 136.625 L 113.894531 150.394531 L 104.421875 150.394531 Z M 104.421875 136.625 " fill-opacity="1" fill-rule="nonzero"/><path fill="#fbbd80" d="M 128.140625 136.625 L 166.09375 136.625 L 166.09375 174.582031 L 128.140625 174.582031 Z M 128.140625 136.625 " fill-opacity="1" fill-rule="nonzero"/><path fill="#ff3d50" d="M 142.371094 136.625 L 151.859375 136.625 L 151.859375 150.394531 L 142.371094 150.394531 Z M 142.371094 136.625 " fill-opacity="1" fill-rule="nonzero"/><path fill="#f5ad65" d="M 166.09375 136.625 L 204.054688 136.625 L 204.054688 174.582031 L 166.09375 174.582031 Z M 166.09375 136.625 " fill-opacity="1" fill-rule="nonzero"/><path fill="#ff3d50" d="M 180.335938 136.625 L 189.820312 136.625 L 189.820312 150.394531 L 180.335938 150.394531 Z M 180.335938 136.625 " fill-opacity="1" fill-rule="nonzero"/><path fill="#f5ad65" d="M 52.214844 98.667969 L 90.175781 98.667969 L 90.175781 136.625 L 52.214844 136.625 Z M 52.214844 98.667969 " fill-opacity="1" fill-rule="nonzero"/><path fill="#ff3d50" d="M 66.457031 98.667969 L 75.941406 98.667969 L 75.941406 112.4375 L 66.457031 112.4375 Z M 66.457031 98.667969 " fill-opacity="1" fill-rule="nonzero"/><path fill="#fbbd80" d="M 90.175781 98.667969 L 128.140625 98.667969 L 128.140625 136.625 L 90.175781 136.625 Z M 90.175781 98.667969 " fill-opacity="1" fill-rule="nonzero"/><path fill="#ff3d50" d="M 104.421875 98.667969 L 113.894531 98.667969 L 113.894531 112.4375 L 104.421875 112.4375 Z M 104.421875 98.667969 " fill-opacity="1" fill-rule="nonzero"/><path fill="#f5ad65" d="M 128.140625 98.667969 L 166.09375 98.667969 L 166.09375 136.625 L 128.140625 136.625 Z M 128.140625 98.667969 " fill-opacity="1" fill-rule="nonzero"/><path fill="#ff3d50" d="M 142.371094 98.667969 L 151.859375 98.667969 L 151.859375 112.4375 L 142.371094 112.4375 Z M 142.371094 98.667969 " fill-opacity="1" fill-rule="nonzero"/><path fill="#ff3d50" d="M 66.457031 59.957031 L 75.941406 59.957031 L 75.941406 73.722656 L 66.457031 73.722656 Z M 66.457031 59.957031 " fill-opacity="1" fill-rule="nonzero"/><path fill="#ff3d50" d="M 104.421875 59.957031 L 113.894531 59.957031 L 113.894531 73.722656 L 104.421875 73.722656 Z M 104.421875 59.957031 " fill-opacity="1" fill-rule="nonzero"/><path fill="#a7bed6" d="M 52.214844 183.042969 L 68.480469 183.042969 L 68.480469 191.492188 L 52.214844 191.492188 Z M 52.214844 183.042969 " fill-opacity="1" fill-rule="nonzero"/><g clip-path="url(#225b6ecc50)"><path fill="#d5e3f2" d="M 39.753906 174.582031 L 216.527344 174.582031 L 216.527344 187.832031 L 39.753906 187.832031 Z M 39.753906 174.582031 " fill-opacity="1" fill-rule="nonzero"/></g><g clip-path="url(#85b22abfd3)"><path fill="#ff3d50" d="M 154.460938 43.4375 L 154.460938 87.835938 L 139.773438 87.835938 L 139.773438 43.4375 L 127.640625 43.4375 L 147.121094 22.546875 L 166.589844 43.4375 Z M 192.421875 81.394531 L 192.421875 125.792969 L 177.722656 125.792969 L 177.722656 81.394531 L 165.605469 81.394531 L 185.074219 60.503906 L 204.550781 81.394531 Z M 192.421875 81.394531 " fill-opacity="1" fill-rule="evenodd"/></g><path fill="#f5ad65" d="M 52.214844 136.625 L 56.847656 136.625 L 56.847656 174.582031 L 52.214844 174.582031 Z M 52.214844 136.625 " fill-opacity="1" fill-rule="nonzero"/><path fill="#e89f56" d="M 90.175781 136.625 L 94.800781 136.625 L 94.800781 174.582031 L 90.175781 174.582031 Z M 90.175781 136.625 " fill-opacity="1" fill-rule="nonzero"/><path fill="#f5ad65" d="M 128.140625 136.625 L 132.761719 136.625 L 132.761719 174.582031 L 128.140625 174.582031 Z M 128.140625 136.625 " fill-opacity="1" fill-rule="nonzero"/><path fill="#e89f56" d="M 166.09375 136.625 L 170.726562 136.625 L 170.726562 174.582031 L 166.09375 174.582031 Z M 166.09375 136.625 " fill-opacity="1" fill-rule="nonzero"/><path fill="#e89f56" d="M 52.214844 98.667969 L 56.847656 98.667969 L 56.847656 136.625 L 52.214844 136.625 Z M 52.214844 98.667969 " fill-opacity="1" fill-rule="nonzero"/><path fill="#f5ad65" d="M 90.175781 98.667969 L 94.800781 98.667969 L 94.800781 136.625 L 90.175781 136.625 Z M 90.175781 98.667969 " fill-opacity="1" fill-rule="nonzero"/><path fill="#e89f56" d="M 128.140625 98.667969 L 132.761719 98.667969 L 132.761719 136.625 L 128.140625 136.625 Z M 128.140625 98.667969 " fill-opacity="1" fill-rule="nonzero"/><path fill="#f5ad65" d="M 52.214844 59.957031 L 56.847656 59.957031 L 56.847656 98.667969 L 52.214844 98.667969 Z M 52.214844 59.957031 " fill-opacity="1" fill-rule="nonzero"/><path fill="#e89f56" d="M 90.175781 59.957031 L 94.800781 59.957031 L 94.800781 98.667969 L 90.175781 98.667969 Z M 90.175781 59.957031 " fill-opacity="1" fill-rule="nonzero"/><path fill="#e82e41" d="M 177.722656 81.394531 L 183.195312 81.394531 L 183.195312 125.789062 L 177.722656 125.789062 Z M 177.722656 81.394531 " fill-opacity="1" fill-rule="nonzero"/><path fill="#e82e41" d="M 171.066406 81.394531 L 187.808594 63.4375 L 185.074219 60.503906 L 165.605469 81.394531 Z M 171.066406 81.394531 " fill-opacity="1" fill-rule="evenodd"/><path fill="#e82e41" d="M 139.769531 43.4375 L 145.234375 43.4375 L 145.234375 87.835938 L 139.769531 87.835938 Z M 139.769531 43.4375 " fill-opacity="1" fill-rule="nonzero"/><g clip-path="url(#c3d09269c8)"><path fill="#e82e41" d="M 133.105469 43.4375 L 149.847656 25.480469 L 147.121094 22.546875 L 127.640625 43.4375 Z M 133.105469 43.4375 " fill-opacity="1" fill-rule="evenodd"/></g><g clip-path="url(#eeda7b3959)"><path fill="#b7cfe8" d="M 45.496094 183.34375 L 45.496094 174.582031 L 39.753906 174.582031 L 39.753906 187.832031 L 216.527344 187.832031 L 216.527344 183.34375 Z M 45.496094 183.34375 " fill-opacity="1" fill-rule="evenodd"/></g><g clip-path="url(#944d55c1a6)"><path fill="#a7bed6" d="M 56.039062 199.609375 L 56.039062 187.832031 L 52.214844 187.832031 L 52.214844 204.699219 L 68.480469 204.699219 L 68.480469 199.609375 Z M 56.039062 199.609375 " fill-opacity="1" fill-rule="evenodd"/></g><g clip-path="url(#c529cd9707)"><path fill="#a7bed6" d="M 191.605469 199.609375 L 191.605469 187.832031 L 187.789062 187.832031 L 187.789062 204.699219 L 204.054688 204.699219 L 204.054688 199.609375 Z M 191.605469 199.609375 " fill-opacity="1" fill-rule="evenodd"/></g><path fill="#a7bed6" d="M 187.789062 187.832031 L 204.054688 187.832031 L 204.054688 191.492188 L 187.789062 191.492188 Z M 187.789062 187.832031 " fill-opacity="1" fill-rule="nonzero"/></svg>