<svg xmlns="http://www.w3.org/2000/svg" xmlns:xlink="http://www.w3.org/1999/xlink" width="300" zoomAndPan="magnify" viewBox="0 0 224.87999 225" height="300" preserveAspectRatio="xMidYMid meet" version="1.0"><defs><clipPath id="9ab62e110d"><path d="M 68 22.546875 L 153 22.546875 L 153 174 L 68 174 Z M 68 22.546875 " clip-rule="nonzero"/></clipPath><clipPath id="4be4867cc3"><path d="M 112.40625 176.464844 L 194.386719 176.464844 L 194.386719 224.9375 L 112.40625 224.9375 Z M 112.40625 176.464844 " clip-rule="nonzero"/></clipPath><clipPath id="53fcf18e63"><path d="M 47.464844 43 L 142 43 L 142 94 L 47.464844 94 Z M 47.464844 43 " clip-rule="nonzero"/></clipPath></defs><g clip-path="url(#9ab62e110d)"><path fill="#232d3b" d="M 142.996094 173.367188 L 78.074219 173.367188 C 72.953125 173.367188 68.800781 169.210938 68.800781 164.085938 L 68.800781 31.835938 C 68.800781 26.710938 72.953125 22.554688 78.074219 22.554688 L 142.996094 22.554688 C 148.117188 22.554688 152.269531 26.710938 152.269531 31.835938 L 152.269531 164.085938 C 152.269531 169.210938 148.117188 173.367188 142.996094 173.367188 " fill-opacity="1" fill-rule="nonzero"/></g><path fill="#ffffff" d="M 147.171875 164.085938 L 73.898438 164.085938 C 72.363281 164.085938 71.117188 162.839844 71.117188 161.300781 L 71.117188 34.621094 C 71.117188 33.082031 72.363281 31.835938 73.898438 31.835938 L 147.171875 31.835938 C 148.707031 31.835938 149.953125 33.082031 149.953125 34.621094 L 149.953125 161.300781 C 149.953125 162.839844 148.707031 164.085938 147.171875 164.085938 " fill-opacity="1" fill-rule="nonzero"/><path fill="#334357" d="M 118.417969 28.589844 L 102.652344 28.589844 C 101.882812 28.589844 101.261719 27.964844 101.261719 27.199219 C 101.261719 26.429688 101.882812 25.804688 102.652344 25.804688 L 118.417969 25.804688 C 119.1875 25.804688 119.808594 26.429688 119.808594 27.199219 C 119.808594 27.964844 119.1875 28.589844 118.417969 28.589844 " fill-opacity="1" fill-rule="nonzero"/><path fill="#586f8c" d="M 99.40625 27.199219 C 99.40625 26.429688 98.78125 25.804688 98.015625 25.804688 C 97.246094 25.804688 96.625 26.429688 96.625 27.199219 C 96.625 27.964844 97.246094 28.589844 98.015625 28.589844 C 98.78125 28.589844 99.40625 27.964844 99.40625 27.199219 " fill-opacity="1" fill-rule="nonzero"/><path fill="#586f8c" d="M 124.445312 27.199219 C 124.445312 26.429688 123.824219 25.804688 123.054688 25.804688 C 122.289062 25.804688 121.664062 26.429688 121.664062 27.199219 C 121.664062 27.964844 122.289062 28.589844 123.054688 28.589844 C 123.824219 28.589844 124.445312 27.964844 124.445312 27.199219 " fill-opacity="1" fill-rule="nonzero"/><path fill="#3a4d63" d="M 118.417969 171.046875 L 102.652344 171.046875 C 101.882812 171.046875 101.261719 170.421875 101.261719 169.652344 L 101.261719 167.796875 C 101.261719 167.027344 101.882812 166.40625 102.652344 166.40625 L 118.417969 166.40625 C 119.1875 166.40625 119.808594 167.027344 119.808594 167.796875 L 119.808594 169.652344 C 119.808594 170.421875 119.1875 171.046875 118.417969 171.046875 " fill-opacity="1" fill-rule="nonzero"/><path fill="#cdfaff" d="M 147.171875 31.835938 L 73.898438 31.835938 C 72.363281 31.835938 71.117188 33.082031 71.117188 34.621094 C 71.117188 36.15625 72.363281 37.40625 73.898438 37.40625 L 147.171875 37.40625 C 148.707031 37.40625 149.953125 36.15625 149.953125 34.621094 C 149.953125 33.082031 148.707031 31.835938 147.171875 31.835938 " fill-opacity="1" fill-rule="nonzero"/><path fill="#9ed1dc" d="M 76.683594 36.015625 C 75.914062 36.015625 75.292969 35.390625 75.292969 34.621094 C 75.292969 33.855469 75.914062 33.230469 76.683594 33.230469 C 77.449219 33.230469 78.074219 33.855469 78.074219 34.621094 C 78.074219 35.390625 77.449219 36.015625 76.683594 36.015625 " fill-opacity="1" fill-rule="nonzero"/><path fill="#9ed1dc" d="M 82.480469 35.78125 L 80.160156 35.78125 L 80.160156 33.460938 L 82.480469 33.460938 L 82.480469 35.78125 " fill-opacity="1" fill-rule="nonzero"/><path fill="#9ed1dc" d="M 86.652344 35.78125 L 85.261719 35.78125 C 85.003906 35.78125 84.796875 35.574219 84.796875 35.316406 L 84.796875 33.925781 C 84.796875 33.667969 85.003906 33.460938 85.261719 33.460938 L 86.652344 33.460938 C 86.910156 33.460938 87.117188 33.667969 87.117188 33.925781 L 87.117188 35.316406 C 87.117188 35.574219 86.910156 35.78125 86.652344 35.78125 " fill-opacity="1" fill-rule="nonzero"/><path fill="#9ed1dc" d="M 132.792969 34.621094 C 132.539062 34.621094 132.332031 34.828125 132.332031 35.085938 L 132.332031 36.015625 C 132.332031 36.269531 132.539062 36.476562 132.792969 36.476562 C 133.050781 36.476562 133.257812 36.269531 133.257812 36.015625 L 133.257812 35.085938 C 133.257812 34.828125 133.050781 34.621094 132.792969 34.621094 " fill-opacity="1" fill-rule="nonzero"/><path fill="#9ed1dc" d="M 131.402344 35.550781 C 131.148438 35.550781 130.941406 35.757812 130.941406 36.015625 C 130.941406 36.269531 131.148438 36.476562 131.402344 36.476562 C 131.660156 36.476562 131.867188 36.269531 131.867188 36.015625 C 131.867188 35.757812 131.660156 35.550781 131.402344 35.550781 " fill-opacity="1" fill-rule="nonzero"/><path fill="#9ed1dc" d="M 134.1875 33.695312 C 133.929688 33.695312 133.722656 33.902344 133.722656 34.15625 L 133.722656 36.015625 C 133.722656 36.269531 133.929688 36.476562 134.1875 36.476562 C 134.441406 36.476562 134.648438 36.269531 134.648438 36.015625 L 134.648438 34.15625 C 134.648438 33.902344 134.441406 33.695312 134.1875 33.695312 " fill-opacity="1" fill-rule="nonzero"/><path fill="#9ed1dc" d="M 135.578125 32.765625 C 135.320312 32.765625 135.113281 32.972656 135.113281 33.230469 L 135.113281 36.015625 C 135.113281 36.269531 135.320312 36.476562 135.578125 36.476562 C 135.832031 36.476562 136.039062 36.269531 136.039062 36.015625 L 136.039062 33.230469 C 136.039062 32.972656 135.832031 32.765625 135.578125 32.765625 " fill-opacity="1" fill-rule="nonzero"/><path fill="#9ed1dc" d="M 139.289062 36.015625 C 138.519531 36.015625 137.894531 35.390625 137.894531 34.621094 C 137.894531 33.855469 138.519531 33.230469 139.289062 33.230469 L 147.171875 33.230469 C 147.9375 33.230469 148.5625 33.855469 148.5625 34.621094 C 148.5625 35.390625 147.9375 36.015625 147.171875 36.015625 L 139.289062 36.015625 " fill-opacity="1" fill-rule="nonzero"/><path fill="#cdfaff" d="M 139.289062 35.085938 C 139.03125 35.085938 138.824219 34.875 138.824219 34.621094 C 138.824219 34.367188 139.03125 34.15625 139.289062 34.15625 L 144.851562 34.15625 C 145.109375 34.15625 145.316406 34.367188 145.316406 34.621094 C 145.316406 34.878906 145.109375 35.085938 144.851562 35.085938 L 139.289062 35.085938 " fill-opacity="1" fill-rule="nonzero"/><path fill="#f4b192" d="M 167.921875 173.527344 C 167.921875 156.328125 175.164062 144.640625 175.164062 131.53125 C 175.164062 124.859375 167.945312 107.367188 166.03125 89.894531 C 165.992188 89.558594 165.957031 89.226562 165.925781 88.890625 C 165.890625 88.558594 165.863281 88.222656 165.832031 87.890625 C 165.804688 87.5625 165.78125 87.238281 165.753906 86.910156 C 165.71875 86.386719 165.6875 85.859375 165.660156 85.335938 C 165.644531 85.128906 165.632812 84.925781 165.628906 84.714844 C 165.617188 84.445312 165.609375 84.167969 165.597656 83.894531 C 165.578125 83.234375 165.566406 82.570312 165.566406 81.914062 C 165.566406 81.71875 165.566406 81.511719 165.554688 81.285156 C 165.554688 81.175781 165.550781 81.0625 165.546875 80.945312 C 165.539062 80.832031 165.535156 80.710938 165.53125 80.589844 C 165.457031 79.363281 165.273438 77.875 164.847656 76.484375 C 164.792969 76.320312 164.742188 76.160156 164.683594 75.996094 C 164.621094 75.820312 164.554688 75.636719 164.476562 75.460938 C 164.429688 75.34375 164.382812 75.230469 164.324219 75.121094 C 164.3125 75.09375 164.304688 75.0625 164.28125 75.03125 C 164.234375 74.925781 164.183594 74.828125 164.132812 74.730469 C 164.117188 74.691406 164.09375 74.660156 164.078125 74.628906 L 164.074219 74.628906 C 163.1875 73.007812 161.769531 71.8125 159.53125 71.8125 C 155.082031 71.8125 152.269531 76.410156 152.269531 80.976562 L 152.269531 162.925781 C 152.269531 168.691406 147.597656 173.367188 141.832031 173.367188 L 90.941406 173.367188 C 96.734375 179.113281 102.574219 183.765625 107.074219 187.84375 C 107.554688 188.28125 108.101562 188.84375 108.695312 189.492188 C 113.695312 194.964844 122.023438 206.933594 122.023438 206.933594 L 178.621094 198.734375 C 170.664062 184.101562 167.921875 182.199219 167.921875 173.527344 Z M 78.300781 133.097656 C 78.300781 128.242188 75.777344 123.847656 71.105469 119.347656 C 74.164062 117.785156 75.609375 113.632812 75.609375 110.332031 C 75.609375 105.582031 71.414062 100.21875 68.796875 97.070312 L 68.796875 65.480469 C 68.503906 65.351562 68.214844 65.234375 67.941406 65.125 L 67.941406 65.117188 C 67.914062 65.109375 67.882812 65.097656 67.855469 65.085938 C 67.621094 64.992188 67.390625 64.90625 67.167969 64.824219 C 67.101562 64.800781 67.03125 64.773438 66.964844 64.746094 C 65.21875 64.105469 63.742188 63.753906 62.609375 63.753906 C 59.414062 63.753906 56.769531 67.335938 56.769531 70.875 C 56.769531 71.660156 56.902344 72.4375 57.175781 73.171875 C 58.039062 75.429688 59.265625 77.429688 60.640625 79.222656 C 62.222656 81.28125 64.007812 83.070312 65.664062 84.671875 C 66.589844 85.5625 67.476562 86.394531 68.269531 87.179688 C 68.050781 87.242188 67.832031 87.304688 67.617188 87.371094 C 67.476562 87.414062 67.335938 87.457031 67.199219 87.503906 C 67.089844 87.535156 66.980469 87.570312 66.875 87.605469 C 66.46875 87.742188 66.066406 87.890625 65.664062 88.046875 C 59.195312 90.535156 53.457031 95.480469 53.457031 102.421875 C 53.457031 107.492188 58.738281 113.695312 58.738281 113.695312 C 56.222656 114.6875 53.5625 116.992188 53.5625 122.136719 C 53.5625 125.863281 54.960938 129.984375 58.832031 133.488281 C 56.847656 134.515625 55.410156 137.316406 55.410156 140.609375 C 55.410156 144.800781 62.757812 152.359375 68.796875 152.359375 C 76.324219 152.359375 75.347656 143.746094 74.65625 140.425781 C 77.226562 137.882812 78.300781 135.757812 78.300781 133.097656 " fill-opacity="1" fill-rule="nonzero"/><path fill="#ffccb5" d="M 166.03125 89.894531 C 165.738281 87.21875 165.5625 84.546875 165.5625 81.910156 C 165.5625 80.089844 165.347656 76.929688 164.078125 74.628906 C 161.792969 73.96875 159.09375 75.125 159.214844 78.128906 C 159.589844 87.167969 161.21875 89.609375 166.03125 89.894531 " fill-opacity="1" fill-rule="nonzero"/><path fill="#ffccb5" d="M 63.457031 115.820312 C 66.226562 117.910156 68.5 113.527344 69.875 109.898438 C 70.859375 107.292969 64.261719 100.628906 60.511719 103.671875 C 59.09375 104.824219 57.71875 108.847656 58.707031 110.71875 C 59.699219 112.601562 61.628906 114.445312 63.457031 115.820312 " fill-opacity="1" fill-rule="nonzero"/><path fill="#ffccb5" d="M 65.441406 136.488281 C 68.339844 138.277344 71.171875 133.925781 71.171875 130.121094 C 71.171875 127.34375 64.855469 121.582031 61.46875 124.894531 C 60.1875 126.144531 59.207031 130.199219 60.34375 131.9375 C 61.484375 133.6875 63.535156 135.308594 65.441406 136.488281 " fill-opacity="1" fill-rule="nonzero"/><path fill="#ffccb5" d="M 62.785156 137.144531 C 59.148438 137.742188 59.171875 143.804688 60.132812 145.097656 C 61.152344 146.472656 62.902344 147.640625 64.511719 148.445312 C 67.394531 149.882812 68.972656 142.59375 68.769531 141.058594 C 66.8125 140.4375 64.867188 138.984375 62.785156 137.144531 " fill-opacity="1" fill-rule="nonzero"/><path fill="#e58e77" d="M 141.832031 173.367188 L 90.941406 173.367188 C 96.734375 179.113281 102.574219 183.765625 107.074219 187.84375 C 107.554688 188.28125 108.101562 188.84375 108.695312 189.492188 C 129.230469 171.804688 152.269531 187.378906 152.269531 162.925781 C 152.269531 168.691406 147.597656 173.367188 141.832031 173.367188 " fill-opacity="1" fill-rule="nonzero"/><path fill="#e58e77" d="M 67.941406 65.117188 C 67.914062 65.109375 67.882812 65.097656 67.855469 65.085938 C 67.621094 64.992188 67.390625 64.90625 67.167969 64.824219 C 67.101562 64.800781 67.03125 64.773438 66.964844 64.746094 C 65.21875 64.105469 63.742188 63.753906 62.609375 63.753906 C 59.414062 63.753906 56.769531 67.335938 56.769531 70.875 C 56.769531 71.660156 56.902344 72.4375 57.175781 73.171875 C 58.039062 75.429688 59.265625 77.429688 60.640625 79.222656 L 65.664062 79.222656 L 65.664062 84.671875 C 66.589844 85.5625 67.476562 86.394531 68.269531 87.179688 C 68.050781 87.242188 67.832031 87.304688 67.617188 87.371094 C 67.476562 87.414062 67.335938 87.457031 67.199219 87.503906 C 67.089844 87.535156 66.980469 87.570312 66.875 87.605469 C 66.46875 87.738281 66.066406 87.878906 65.664062 88.023438 L 65.664062 90.335938 C 65.664062 91.53125 66.011719 92.703125 66.652344 93.710938 L 68.796875 97.070312 L 68.796875 65.480469 C 68.503906 65.351562 68.214844 65.234375 67.941406 65.125 L 67.941406 65.117188 " fill-opacity="1" fill-rule="nonzero"/><g clip-path="url(#4be4867cc3)"><path fill="#cdfaff" d="M 120.984375 225.683594 L 194.390625 225.683594 L 175.625 180.347656 C 174.304688 177.152344 170.640625 175.636719 167.445312 176.960938 L 116.355469 198.136719 C 113.160156 199.460938 111.644531 203.125 112.96875 206.320312 L 120.984375 225.683594 " fill-opacity="1" fill-rule="nonzero"/></g><path fill="#9ed1dc" d="M 131.839844 210.609375 C 131.9375 213.199219 129.914062 215.382812 127.324219 215.480469 C 124.730469 215.578125 122.550781 213.554688 122.453125 210.960938 C 122.355469 208.371094 124.378906 206.1875 126.96875 206.089844 C 129.5625 205.992188 131.742188 208.015625 131.839844 210.609375 " fill-opacity="1" fill-rule="nonzero"/><path fill="#c8e4ed" d="M 149.949219 138.121094 L 115.390625 138.121094 L 115.390625 135.335938 L 149.949219 135.335938 L 149.949219 138.121094 " fill-opacity="1" fill-rule="nonzero"/><path fill="#c8e4ed" d="M 84.882812 123.273438 L 84.882812 126.054688 C 84.882812 133.339844 89.664062 138.121094 96.941406 138.121094 L 98.695312 138.121094 L 115.390625 154.828125 L 115.390625 152.042969 L 98.695312 135.335938 L 96.941406 135.335938 C 89.664062 135.335938 84.882812 130.554688 84.882812 123.273438 " fill-opacity="1" fill-rule="nonzero"/><path fill="#161b24" d="M 152.269531 138.121094 L 149.949219 138.121094 L 149.949219 135.335938 L 152.269531 135.335938 L 152.269531 138.121094 " fill-opacity="1" fill-rule="nonzero"/><path fill="#e58e77" d="M 168.386719 119.617188 L 168.386719 126.054688 C 168.386719 133.339844 163.605469 138.121094 156.328125 138.121094 L 152.269531 138.121094 L 152.269531 119.617188 L 168.386719 119.617188 " fill-opacity="1" fill-rule="nonzero"/><path fill="#cdfaff" d="M 96.941406 102.855469 L 156.328125 102.855469 C 163.605469 102.855469 168.386719 107.636719 168.386719 114.917969 L 168.386719 123.273438 C 168.386719 130.554688 163.605469 135.335938 156.328125 135.335938 L 115.390625 135.335938 L 115.390625 152.042969 L 98.695312 135.335938 L 96.941406 135.335938 C 89.664062 135.335938 84.882812 130.554688 84.882812 123.273438 L 84.882812 114.917969 C 84.882812 107.636719 89.664062 102.855469 96.941406 102.855469 " fill-opacity="1" fill-rule="nonzero"/><path fill="#9ed1dc" d="M 98.695312 135.335938 L 115.390625 135.335938 L 115.390625 138.121094 L 101.476562 138.121094 L 98.695312 135.335938 " fill-opacity="1" fill-rule="nonzero"/><path fill="#9ed1dc" d="M 127.113281 120.488281 L 93.957031 120.488281 C 93.445312 120.488281 93.027344 120.902344 93.027344 121.417969 C 93.027344 121.929688 93.445312 122.34375 93.957031 122.34375 L 127.113281 122.34375 C 127.625 122.34375 128.039062 121.929688 128.039062 121.417969 C 128.039062 120.902344 127.625 120.488281 127.113281 120.488281 Z M 127.113281 115.847656 L 93.957031 115.847656 C 93.445312 115.847656 93.027344 116.261719 93.027344 116.777344 C 93.027344 117.289062 93.445312 117.703125 93.957031 117.703125 L 127.113281 117.703125 C 127.625 117.703125 128.039062 117.289062 128.039062 116.777344 C 128.039062 116.261719 127.625 115.847656 127.113281 115.847656 Z M 93.957031 113.0625 L 127.113281 113.0625 C 127.625 113.0625 128.039062 112.648438 128.039062 112.136719 C 128.039062 111.625 127.625 111.207031 127.113281 111.207031 L 93.957031 111.207031 C 93.445312 111.207031 93.027344 111.625 93.027344 112.136719 C 93.027344 112.648438 93.445312 113.0625 93.957031 113.0625 Z M 116.910156 126.054688 C 116.910156 126.570312 116.496094 126.984375 115.984375 126.984375 L 93.957031 126.984375 C 93.445312 126.984375 93.027344 126.570312 93.027344 126.054688 C 93.027344 125.542969 93.445312 125.128906 93.957031 125.128906 L 115.984375 125.128906 C 116.496094 125.128906 116.910156 125.542969 116.910156 126.054688 " fill-opacity="1" fill-rule="nonzero"/><path fill="#3a3c56" d="M 161.609375 124.234375 C 161.398438 124.910156 161.152344 125.566406 160.886719 126.226562 C 157.125 128.964844 152.5 130.582031 147.496094 130.582031 C 145.488281 130.582031 143.546875 130.324219 141.691406 129.832031 C 138.6875 128.25 136.242188 125.851562 134.683594 122.953125 C 133.414062 120.625 132.730469 118.003906 132.773438 115.210938 L 132.847656 110.460938 C 132.875 108.882812 132.8125 107.292969 132.648438 105.710938 C 132.390625 103.253906 132.8125 100.394531 133.796875 97.648438 C 133.816406 97.628906 133.816406 97.621094 133.824219 97.59375 C 134.527344 98.257812 137 98.851562 138.992188 99.355469 C 139.839844 99.566406 140.589844 99.757812 141.082031 99.941406 C 141.027344 100.597656 138.816406 101.273438 138.1875 101.996094 L 138.179688 102.003906 C 138.042969 102.132812 137.976562 102.269531 138.003906 102.40625 C 138.015625 102.40625 138.023438 102.394531 138.042969 102.394531 C 138.058594 102.386719 138.085938 102.378906 138.125 102.359375 C 138.140625 102.359375 138.152344 102.351562 138.167969 102.351562 C 138.195312 102.339844 138.242188 102.332031 138.277344 102.3125 C 138.808594 102.132812 139.976562 101.65625 141.253906 100.808594 C 141.539062 100.863281 141.8125 100.90625 142.101562 100.953125 L 142.113281 100.953125 C 142.550781 101.027344 142.96875 101.082031 143.417969 101.128906 C 144.082031 101.199219 144.75 101.253906 145.445312 101.289062 C 145.453125 101.28125 145.453125 101.28125 145.453125 101.28125 L 145.460938 101.289062 C 147.222656 101.363281 149.101562 101.300781 151.039062 101.082031 C 152.003906 100.972656 152.9375 100.78125 153.839844 100.523438 C 153.851562 100.515625 153.851562 100.515625 153.859375 100.515625 C 155.019531 100.203125 156.121094 99.800781 157.171875 99.410156 L 157.179688 99.410156 C 158.980469 98.742188 160.640625 98.074219 162.183594 97.867188 C 162.585938 100.40625 162.59375 103.210938 162.59375 105.628906 L 162.941406 114.570312 C 163.078125 117.859375 162.621094 121.117188 161.609375 124.234375 " fill-opacity="1" fill-rule="nonzero"/><path fill="#303248" d="M 159.023438 112.304688 C 159.023438 119.921875 154.191406 126.097656 148.234375 126.097656 C 142.273438 126.097656 137.445312 119.921875 137.445312 112.304688 C 137.445312 104.6875 142.273438 98.511719 148.234375 98.511719 C 154.191406 98.511719 159.023438 104.6875 159.023438 112.304688 " fill-opacity="1" fill-rule="nonzero"/><path fill="#a3a3c2" d="M 162.339844 125.082031 C 161.871094 125.484375 161.386719 125.867188 160.886719 126.226562 C 157.125 128.964844 152.5 130.582031 147.496094 130.582031 C 145.488281 130.582031 143.546875 130.324219 141.691406 129.832031 C 138.316406 128.945312 135.246094 127.3125 132.675781 125.101562 C 133.269531 124.363281 133.933594 123.640625 134.683594 122.953125 C 135.566406 122.140625 136.582031 121.367188 137.722656 120.707031 C 138.207031 120.414062 138.707031 120.152344 139.238281 119.914062 C 139.355469 119.851562 139.492188 119.792969 139.609375 119.738281 C 139.636719 119.738281 139.664062 119.730469 139.691406 119.703125 C 139.703125 119.703125 139.703125 119.695312 139.722656 119.695312 C 141.234375 119.054688 142.953125 118.589844 144.894531 118.359375 C 145.179688 118.34375 145.460938 118.304688 145.753906 118.289062 C 146.007812 118.261719 146.273438 118.242188 146.53125 118.234375 C 146.847656 118.214844 147.160156 118.207031 147.488281 118.207031 C 147.871094 118.207031 148.238281 118.214844 148.601562 118.242188 C 148.601562 118.234375 148.609375 118.242188 148.609375 118.242188 C 148.875 118.25 149.132812 118.269531 149.378906 118.296875 C 149.707031 118.316406 150.027344 118.351562 150.34375 118.398438 C 152.207031 118.617188 153.867188 119.089844 155.347656 119.722656 C 155.375 119.730469 155.417969 119.75 155.464844 119.777344 L 155.472656 119.777344 C 155.492188 119.785156 155.5 119.785156 155.519531 119.792969 C 156.003906 120.003906 156.480469 120.242188 156.917969 120.488281 C 157.027344 120.542969 157.136719 120.609375 157.234375 120.664062 C 158.980469 121.675781 160.421875 122.917969 161.609375 124.234375 C 161.863281 124.515625 162.101562 124.800781 162.339844 125.082031 " fill-opacity="1" fill-rule="nonzero"/><path fill="#40425b" d="M 156.40625 123.085938 C 156.0625 125.078125 154.46875 126.695312 152.484375 127.0625 C 150.472656 127.433594 148.648438 126.589844 147.574219 125.140625 C 146.492188 126.605469 144.640625 127.449219 142.605469 127.050781 C 140.609375 126.65625 139.03125 125 138.730469 122.984375 C 138.726562 122.960938 138.722656 122.9375 138.71875 122.914062 C 138.449219 120.949219 139.699219 119.070312 141.601562 118.503906 C 142.867188 118.128906 144.246094 117.871094 145.75 117.753906 C 146.472656 118.101562 147.101562 118.625 147.574219 119.261719 C 148.046875 118.628906 148.664062 118.113281 149.375 117.765625 C 150.910156 117.886719 152.316406 118.164062 153.597656 118.558594 C 155.5 119.144531 156.730469 121.050781 156.417969 123.015625 C 156.414062 123.039062 156.410156 123.0625 156.40625 123.085938 " fill-opacity="1" fill-rule="nonzero"/><path fill="#ffffff" d="M 159.398438 107.832031 C 159.398438 108.742188 158.660156 109.484375 157.746094 109.484375 C 156.835938 109.484375 156.097656 108.742188 156.097656 107.832031 C 156.097656 106.921875 156.835938 106.179688 157.746094 106.179688 C 158.660156 106.179688 159.398438 106.921875 159.398438 107.832031 " fill-opacity="1" fill-rule="nonzero"/><path fill="#ffa68a" d="M 152.554688 121.394531 C 152.554688 123.34375 150.328125 124.925781 147.574219 124.925781 C 144.824219 124.925781 142.597656 123.34375 142.597656 121.394531 C 142.597656 120.144531 143.515625 119.050781 144.894531 118.425781 L 144.894531 109.191406 L 150.34375 109.191406 L 150.34375 118.457031 C 151.675781 119.089844 152.554688 120.171875 152.554688 121.394531 " fill-opacity="1" fill-rule="nonzero"/><path fill="#f4896c" d="M 150.34375 113.390625 L 150.34375 116.339844 C 149.445312 116.519531 148.515625 116.605469 147.570312 116.605469 C 146.664062 116.605469 145.761719 116.527344 144.894531 116.359375 L 144.894531 113.316406 C 145.855469 113.476562 146.847656 113.558594 147.851562 113.558594 C 148.695312 113.558594 149.523438 113.507812 150.34375 113.390625 " fill-opacity="1" fill-rule="nonzero"/><path fill="#ffa68a" d="M 159.753906 102.214844 C 159.265625 101.816406 158.632812 101.6875 157.980469 101.78125 C 157.828125 101.09375 157.617188 100.4375 157.351562 99.804688 C 157.253906 99.566406 157.144531 99.328125 157.03125 99.101562 C 154.03125 99.558594 150.335938 98.214844 147.425781 95.304688 C 146.945312 94.820312 146.503906 94.3125 146.105469 93.789062 C 146.0625 93.730469 146.023438 93.667969 145.980469 93.609375 C 145.984375 93.558594 145.984375 93.503906 145.992188 93.457031 C 145.90625 93.476562 145.820312 93.488281 145.734375 93.507812 C 145.167969 93.652344 144.613281 93.84375 144.089844 94.085938 C 140.589844 95.671875 138.175781 99.351562 137.996094 103.589844 C 137.339844 103.617188 136.742188 103.855469 136.335938 104.335938 C 135.46875 105.386719 135.828125 107.128906 137.152344 108.234375 C 137.734375 108.71875 138.40625 108.988281 139.054688 109.058594 C 139.226562 109.429688 139.414062 109.796875 139.621094 110.144531 C 139.613281 110.152344 139.613281 110.152344 139.628906 110.15625 C 141.628906 113.53125 145.226562 115.644531 149.132812 115.289062 C 152.765625 114.960938 155.757812 112.582031 157.246094 109.289062 C 157.53125 108.667969 157.761719 108.023438 157.925781 107.347656 C 158.550781 107.164062 159.164062 106.78125 159.652344 106.195312 C 160.753906 104.871094 160.796875 103.09375 159.753906 102.214844 " fill-opacity="1" fill-rule="nonzero"/><path fill="#f4896c" d="M 158.414062 105.710938 C 159.167969 105.644531 159.722656 104.984375 159.660156 104.234375 C 159.597656 103.484375 158.9375 102.925781 158.1875 102.988281 C 158.15625 102.992188 158.128906 103.003906 158.097656 103.007812 L 158.140625 105.730469 C 158.140625 105.730469 158.386719 105.710938 158.414062 105.710938 " fill-opacity="1" fill-rule="nonzero"/><path fill="#f4896c" d="M 137.988281 107.449219 C 137.234375 107.449219 136.625 106.839844 136.625 106.085938 C 136.625 105.332031 137.234375 104.722656 137.988281 104.722656 C 138.015625 104.722656 138.046875 104.726562 138.078125 104.730469 L 138.265625 107.449219 C 138.265625 107.449219 138.015625 107.449219 137.988281 107.449219 " fill-opacity="1" fill-rule="nonzero"/><path fill="#ffffff" d="M 145.574219 108.046875 C 144.9375 108.035156 144.484375 108.652344 144.675781 109.261719 C 145.214844 110.957031 146.78125 112.199219 148.65625 112.238281 C 150.53125 112.277344 152.148438 111.097656 152.753906 109.425781 C 152.972656 108.828125 152.542969 108.191406 151.90625 108.179688 L 145.574219 108.046875 " fill-opacity="1" fill-rule="nonzero"/><path fill="#3a3c56" d="M 161.375 94.714844 C 159.710938 94.847656 153.238281 91.339844 151.398438 90.507812 C 150.539062 90.117188 144.246094 88.75 142.894531 87.367188 C 141.679688 87.773438 140.539062 88.40625 139.503906 89.234375 C 137.914062 90.496094 136.550781 92.171875 135.460938 94.046875 C 134.8125 95.175781 134.261719 96.375 133.820312 97.597656 C 134.835938 98.535156 136.25 99.328125 137.960938 99.9375 C 137.445312 100.59375 137.46875 101.625 137.996094 102.402344 C 138.039062 102.402344 139.550781 101.9375 141.253906 100.808594 C 143.277344 99.46875 145.566406 97.183594 145.980469 93.609375 C 146.023438 93.667969 146.0625 93.730469 146.105469 93.789062 C 146.503906 94.3125 146.945312 94.820312 147.425781 95.304688 C 150.335938 98.214844 154.03125 99.558594 157.03125 99.101562 C 157.144531 99.328125 157.253906 99.566406 157.351562 99.804688 C 159.398438 99.566406 161.0625 98.914062 162.183594 97.867188 C 162.007812 96.746094 161.746094 95.675781 161.375 94.714844 " fill-opacity="1" fill-rule="nonzero"/><path fill="#4b4d66" d="M 160.5625 93.078125 C 159.433594 91.324219 157.667969 90.253906 154.914062 90.445312 C 154.878906 90.449219 154.839844 90.457031 154.804688 90.457031 C 154.703125 90.464844 154.609375 90.472656 154.507812 90.484375 C 154.46875 90.484375 154.429688 90.488281 154.390625 90.488281 C 154.347656 90.496094 154.308594 90.5 154.269531 90.503906 C 154.261719 90.5 154.261719 90.5 154.257812 90.496094 C 150.214844 87.035156 146.460938 86.308594 143.25 87.242188 C 143.128906 87.277344 143.015625 87.328125 142.894531 87.367188 C 144.246094 88.75 145.957031 90.0625 147.941406 91.207031 C 148.722656 91.65625 149.542969 92.082031 150.40625 92.46875 C 152.242188 93.300781 154.082031 93.902344 155.84375 94.28125 C 157.828125 94.707031 159.710938 94.847656 161.375 94.714844 C 161.148438 94.125 160.882812 93.574219 160.5625 93.078125 " fill-opacity="1" fill-rule="nonzero"/><path fill="#ffffff" d="M 139.558594 108.320312 C 139.558594 109.234375 138.820312 109.972656 137.910156 109.972656 C 137 109.972656 136.261719 109.234375 136.261719 108.320312 C 136.261719 107.410156 137 106.671875 137.910156 106.671875 C 138.820312 106.671875 139.558594 107.410156 139.558594 108.320312 " fill-opacity="1" fill-rule="nonzero"/><path fill="#40425b" d="M 154.640625 102.417969 C 154.640625 101.539062 153.929688 100.828125 153.050781 100.828125 C 152.171875 100.828125 151.460938 101.539062 151.460938 102.417969 C 151.460938 102.453125 151.46875 102.488281 151.472656 102.523438 L 154.632812 102.523438 C 154.632812 102.488281 154.640625 102.453125 154.640625 102.417969 " fill-opacity="1" fill-rule="nonzero"/><path fill="#40425b" d="M 144.339844 100.828125 C 143.460938 100.828125 142.75 101.539062 142.75 102.417969 C 142.75 102.453125 142.753906 102.488281 142.757812 102.523438 L 145.917969 102.523438 C 145.921875 102.488281 145.929688 102.453125 145.929688 102.417969 C 145.929688 101.539062 145.214844 100.828125 144.339844 100.828125 " fill-opacity="1" fill-rule="nonzero"/><path fill="#f4896c" d="M 147.71875 105.308594 C 147.71875 106.0625 148.328125 106.671875 149.082031 106.671875 C 149.835938 106.671875 150.445312 106.0625 150.445312 105.308594 C 150.445312 105.277344 150.4375 105.246094 150.4375 105.21875 L 147.726562 105.21875 C 147.726562 105.246094 147.71875 105.277344 147.71875 105.308594 " fill-opacity="1" fill-rule="nonzero"/><path fill="#c0dbe5" d="M 71.117188 79.222656 L 110.894531 79.222656 L 110.894531 76.441406 L 71.117188 76.441406 L 71.117188 79.222656 " fill-opacity="1" fill-rule="nonzero"/><path fill="#c0dbe5" d="M 141.398438 64.375 L 141.398438 67.160156 C 141.398438 74.441406 136.621094 79.222656 129.34375 79.222656 L 127.589844 79.222656 L 110.894531 95.929688 L 110.894531 93.144531 L 127.589844 76.441406 L 129.34375 76.441406 C 136.621094 76.441406 141.398438 71.65625 141.398438 64.375 " fill-opacity="1" fill-rule="nonzero"/><path fill="#161b24" d="M 68.800781 79.222656 L 71.117188 79.222656 L 71.117188 76.441406 L 68.800781 76.441406 L 68.800781 79.222656 " fill-opacity="1" fill-rule="nonzero"/><g clip-path="url(#53fcf18e63)"><path fill="#fa324a" d="M 129.34375 43.957031 L 59.519531 43.957031 C 52.242188 43.957031 47.464844 48.742188 47.464844 56.023438 L 47.464844 64.375 C 47.464844 71.65625 52.242188 76.441406 59.519531 76.441406 L 110.894531 76.441406 L 110.894531 93.144531 L 127.589844 76.441406 L 129.34375 76.441406 C 136.621094 76.441406 141.398438 71.65625 141.398438 64.375 L 141.398438 56.023438 C 141.398438 48.742188 136.621094 43.957031 129.34375 43.957031 " fill-opacity="1" fill-rule="nonzero"/></g><path fill="#db2c41" d="M 127.589844 76.441406 L 110.894531 76.441406 L 110.894531 79.222656 L 124.804688 79.222656 L 127.589844 76.441406 " fill-opacity="1" fill-rule="nonzero"/><path fill="#db2c41" d="M 87.808594 62.519531 C 87.808594 63.03125 88.222656 63.445312 88.734375 63.445312 L 132.328125 63.445312 C 132.839844 63.445312 133.253906 63.03125 133.253906 62.519531 C 133.253906 62.007812 132.839844 61.589844 132.328125 61.589844 L 88.734375 61.589844 C 88.222656 61.589844 87.808594 62.007812 87.808594 62.519531 Z M 87.808594 57.878906 C 87.808594 58.390625 88.222656 58.808594 88.734375 58.808594 L 132.328125 58.808594 C 132.839844 58.808594 133.253906 58.390625 133.253906 57.878906 C 133.253906 57.367188 132.839844 56.949219 132.328125 56.949219 L 88.734375 56.949219 C 88.222656 56.949219 87.808594 57.367188 87.808594 57.878906 Z M 133.253906 53.238281 C 133.253906 52.726562 132.839844 52.308594 132.328125 52.308594 L 88.734375 52.308594 C 88.222656 52.308594 87.808594 52.726562 87.808594 53.238281 C 87.808594 53.75 88.222656 54.167969 88.734375 54.167969 L 132.328125 54.167969 C 132.839844 54.167969 133.253906 53.75 133.253906 53.238281 Z M 99.867188 66.230469 L 132.328125 66.230469 C 132.839844 66.230469 133.253906 66.648438 133.253906 67.160156 C 133.253906 67.671875 132.839844 68.085938 132.328125 68.085938 L 99.867188 68.085938 C 99.355469 68.085938 98.9375 67.671875 98.9375 67.160156 C 98.9375 66.648438 99.355469 66.230469 99.867188 66.230469 " fill-opacity="1" fill-rule="nonzero"/><path fill="#3f425d" d="M 62.21875 60.605469 C 61.90625 60.605469 61.652344 60.351562 61.652344 60.039062 L 61.652344 55.15625 C 61.652344 54.84375 61.90625 54.589844 62.21875 54.589844 C 62.527344 54.589844 62.785156 54.84375 62.785156 55.15625 L 62.785156 60.039062 C 62.785156 60.351562 62.527344 60.605469 62.21875 60.605469 " fill-opacity="1" fill-rule="nonzero"/><path fill="#3f425d" d="M 72.671875 60.605469 C 72.359375 60.605469 72.105469 60.351562 72.105469 60.039062 L 72.105469 55.15625 C 72.105469 54.84375 72.359375 54.589844 72.671875 54.589844 C 72.984375 54.589844 73.238281 54.84375 73.238281 55.15625 L 73.238281 60.039062 C 73.238281 60.351562 72.984375 60.605469 72.671875 60.605469 " fill-opacity="1" fill-rule="nonzero"/><path fill="#aaaacb" d="M 70.828125 53.757812 L 70.828125 60.5 L 64.0625 60.5 L 64.0625 53.757812 L 70.828125 53.757812 " fill-opacity="1" fill-rule="nonzero"/><path fill="#e0e0f0" d="M 83.148438 62.15625 C 82.15625 63.121094 81.074219 64.007812 79.917969 64.773438 C 79.695312 64.925781 79.460938 65.070312 79.226562 65.214844 C 75.789062 67.328125 71.757812 68.546875 67.449219 68.546875 C 63 68.546875 58.835938 67.246094 55.335938 65.007812 C 55.101562 64.855469 54.875 64.710938 54.652344 64.546875 C 53.585938 63.816406 52.59375 62.996094 51.675781 62.09375 C 52.117188 60.640625 53.226562 59.484375 54.652344 58.988281 C 54.867188 58.910156 55.101562 58.84375 55.335938 58.808594 C 55.617188 58.753906 55.90625 58.726562 56.191406 58.726562 L 78.601562 58.726562 C 78.808594 58.726562 79.019531 58.746094 79.226562 58.773438 C 79.460938 58.800781 79.695312 58.84375 79.917969 58.917969 C 81.46875 59.367188 82.695312 60.597656 83.148438 62.15625 " fill-opacity="1" fill-rule="nonzero"/><path fill="#aaaacb" d="M 86.816406 43.855469 L 86.816406 46.515625 C 86.816406 47.917969 85.667969 49.066406 84.265625 49.066406 L 50.621094 49.066406 C 49.222656 49.066406 48.074219 47.917969 48.074219 46.515625 L 48.074219 43.855469 C 48.074219 42.449219 49.222656 41.304688 50.621094 41.304688 L 84.265625 41.304688 C 85.667969 41.304688 86.816406 42.449219 86.816406 43.855469 " fill-opacity="1" fill-rule="nonzero"/><path fill="#32344a" d="M 67.855469 27.050781 C 68.332031 26.886719 68.675781 26.449219 68.675781 25.929688 C 68.675781 25.269531 68.113281 24.734375 67.425781 24.746094 C 66.765625 24.753906 66.210938 25.296875 66.210938 25.929688 C 66.210938 26.449219 66.554688 26.886719 67.035156 27.050781 L 67.035156 29.980469 L 67.847656 29.980469 L 67.855469 27.050781 " fill-opacity="1" fill-rule="nonzero"/><path fill="#e0e0f0" d="M 63.554688 36.800781 L 63.554688 31.035156 C 63.554688 29.941406 64.441406 29.054688 65.539062 29.054688 L 69.351562 29.054688 C 70.445312 29.054688 71.332031 29.941406 71.332031 31.035156 L 71.332031 36.800781 L 63.554688 36.800781 " fill-opacity="1" fill-rule="nonzero"/><path fill="#aaaacb" d="M 75.898438 34.578125 L 75.898438 37.277344 L 58.992188 37.277344 L 58.992188 34.578125 C 58.992188 34.339844 59.015625 34.101562 59.0625 33.871094 C 59.390625 32.234375 60.84375 30.992188 62.578125 30.992188 L 72.3125 30.992188 C 74.042969 30.992188 75.5 32.238281 75.824219 33.878906 C 75.871094 34.105469 75.898438 34.339844 75.898438 34.578125 " fill-opacity="1" fill-rule="nonzero"/><path fill="#7b7ba6" d="M 75.898438 37.277344 L 58.992188 37.277344 L 58.992188 34.578125 C 58.992188 34.339844 59.015625 34.101562 59.0625 33.871094 C 60.113281 33.582031 61.199219 33.429688 62.292969 33.429688 L 72.597656 33.429688 C 73.6875 33.429688 74.773438 33.582031 75.824219 33.878906 C 75.871094 34.105469 75.898438 34.339844 75.898438 34.578125 L 75.898438 37.277344 " fill-opacity="1" fill-rule="nonzero"/><path fill="#7b7ba6" d="M 84.667969 45.511719 C 84.667969 46.730469 84.488281 47.925781 84.132812 49.066406 L 50.757812 49.066406 C 50.40625 47.933594 50.222656 46.734375 50.222656 45.511719 C 50.222656 44.058594 50.480469 42.632812 50.980469 41.304688 L 83.914062 41.304688 C 84.40625 42.628906 84.667969 44.046875 84.667969 45.511719 " fill-opacity="1" fill-rule="nonzero"/><path fill="#e0e0f0" d="M 83.925781 45.511719 C 83.925781 48.628906 82.652344 51.460938 80.597656 53.519531 C 80.011719 54.105469 79.359375 54.628906 78.652344 55.078125 C 78.367188 55.261719 78.070312 55.433594 77.765625 55.589844 C 76.214844 56.394531 74.453125 56.847656 72.597656 56.847656 L 62.292969 56.847656 C 60.433594 56.847656 58.675781 56.394531 57.125 55.589844 C 56.820312 55.4375 56.523438 55.265625 56.238281 55.082031 C 53.070312 53.0625 50.960938 49.523438 50.960938 45.511719 C 50.960938 42.390625 52.234375 39.558594 54.289062 37.503906 C 54.878906 36.914062 55.53125 36.390625 56.238281 35.941406 C 56.523438 35.757812 56.820312 35.585938 57.125 35.429688 C 58.675781 34.625 60.433594 34.171875 62.292969 34.171875 L 72.597656 34.171875 C 74.453125 34.171875 76.214844 34.628906 77.765625 35.429688 C 78.070312 35.585938 78.367188 35.757812 78.652344 35.941406 C 81.816406 37.957031 83.925781 41.496094 83.925781 45.511719 " fill-opacity="1" fill-rule="nonzero"/><path fill="#aaaacb" d="M 62.339844 53.96875 C 57.691406 53.96875 53.890625 50.160156 53.890625 45.511719 C 53.890625 40.859375 57.691406 37.054688 62.339844 37.054688 L 72.546875 37.054688 C 77.195312 37.054688 81 40.859375 81 45.511719 C 81 50.160156 77.195312 53.96875 72.546875 53.96875 L 62.339844 53.96875 " fill-opacity="1" fill-rule="nonzero"/><path fill="#393b57" d="M 72.335938 37.957031 L 62.550781 37.957031 C 58.394531 37.957031 55.015625 41.347656 55.015625 45.511719 C 55.015625 49.140625 57.589844 52.183594 61.003906 52.898438 L 75.320312 38.578125 C 74.40625 38.179688 73.398438 37.957031 72.335938 37.957031 " fill-opacity="1" fill-rule="nonzero"/><path fill="#2e3048" d="M 75.320312 38.578125 L 61.003906 52.898438 C 61.503906 53.003906 62.019531 53.0625 62.550781 53.0625 L 72.339844 53.0625 C 76.492188 53.0625 79.875 49.671875 79.875 45.511719 C 79.875 42.410156 77.996094 39.738281 75.320312 38.578125 " fill-opacity="1" fill-rule="nonzero"/><path fill="#7b7ba6" d="M 70.828125 56.847656 L 70.828125 57.597656 L 64.0625 57.597656 L 64.0625 56.847656 L 70.828125 56.847656 " fill-opacity="1" fill-rule="nonzero"/><path fill="#aaaacb" d="M 55.335938 58.808594 L 55.335938 65.007812 C 55.101562 64.855469 54.875 64.710938 54.652344 64.546875 L 54.652344 58.988281 C 54.867188 58.910156 55.101562 58.84375 55.335938 58.808594 " fill-opacity="1" fill-rule="nonzero"/><path fill="#aaaacb" d="M 79.917969 58.917969 L 79.917969 64.773438 C 79.695312 64.925781 79.460938 65.070312 79.226562 65.214844 L 79.226562 58.773438 C 79.460938 58.800781 79.695312 58.84375 79.917969 58.917969 " fill-opacity="1" fill-rule="nonzero"/><path fill="#dcff67" d="M 64.839844 42.433594 C 64.839844 43.246094 64.183594 43.902344 63.371094 43.902344 C 62.558594 43.902344 61.902344 43.246094 61.902344 42.433594 C 61.902344 41.621094 62.558594 40.960938 63.371094 40.960938 C 64.183594 40.960938 64.839844 41.621094 64.839844 42.433594 " fill-opacity="1" fill-rule="nonzero"/><path fill="#dcff67" d="M 73.628906 42.433594 C 73.628906 43.246094 72.972656 43.902344 72.160156 43.902344 C 71.347656 43.902344 70.691406 43.246094 70.691406 42.433594 C 70.691406 41.621094 71.347656 40.960938 72.160156 40.960938 C 72.972656 40.960938 73.628906 41.621094 73.628906 42.433594 " fill-opacity="1" fill-rule="nonzero"/><path fill="#dcff67" d="M 65.085938 46.882812 C 65.371094 46.882812 65.628906 47.0625 65.71875 47.347656 C 66 48.253906 66.820312 48.859375 67.765625 48.859375 C 68.695312 48.859375 69.535156 48.238281 69.8125 47.347656 C 69.917969 47 70.292969 46.804688 70.636719 46.910156 C 70.988281 47.019531 71.183594 47.390625 71.074219 47.738281 C 70.621094 49.199219 69.292969 50.183594 67.765625 50.183594 C 66.238281 50.183594 64.90625 49.199219 64.457031 47.738281 C 64.347656 47.390625 64.542969 47.019531 64.890625 46.910156 C 64.957031 46.890625 65.023438 46.882812 65.085938 46.882812 " fill-opacity="1" fill-rule="nonzero"/></svg>