<svg version="1.2" xmlns="http://www.w3.org/2000/svg" viewBox="0 0 301 218" width="301" height="218"><defs><clipPath clipPathUnits="userSpaceOnUse" id="cp1"><path d="m22.68 25.37h265.47v184.73h-265.47z"/></clipPath><clipPath clipPathUnits="userSpaceOnUse" id="cp2"><path d="m5.64 197.46h291v5.34h-291z"/></clipPath><clipPath clipPathUnits="userSpaceOnUse" id="cp3"><path d="m10.67 201.46h280.15v8.64h-280.15z"/></clipPath><clipPath clipPathUnits="userSpaceOnUse" id="cp4"><path d="m208.11 201.46h82.71v8.64h-82.71z"/></clipPath><clipPath clipPathUnits="userSpaceOnUse" id="cp5"><path d="m202.77 197.46h93.87v5.34h-93.87z"/></clipPath><clipPath clipPathUnits="userSpaceOnUse" id="cp6"><path d="m44.02 170.78h37.36v39.32h-37.36z"/></clipPath></defs><style>.a{fill:#e0e0e0}.b{fill:#fff}.c{fill:#fbc4a0}.d{fill:#c90000}.e{fill:#263156}.f{fill:none;stroke:#263156;stroke-miterlimit:10;stroke-width:.7}.g{fill:none;stroke:#263156;stroke-linecap:round;stroke-miterlimit:10;stroke-width:1.6}.h{fill:none;stroke:#263156;stroke-miterlimit:10;stroke-width:1}</style><g clip-path="url(#cp1)"><path class="a" d="m26.8 198.1c0.5 1.3 0.9 2.7 1.4 4q1.6 4.1 3.8 7.9h215.1c0-2.7-0.2-5.3-0.2-7.9v-0.1c0-1.3 0-2.6 0-3.9 0.7-12.9 5.4-24.4 12.3-35.5 10-16.2 23.6-31.7 27-51 4.7-27.7-6.1-57.2-35.3-65.1-18.6-5.1-37.3 1.9-55.4 5-14.9 2.5-30.2-0.4-44.2-5.4q-3.8-1.4-7.7-3c-16.9-6.6-33.8-14.5-51.6-17-12.7-1.8-24.5 0.7-31.6 10.1-1.8 2.4-3.3 5.1-4.4 8.3-0.2 0.6-0.4 1.1-0.5 1.7-1.4 4.6-2 9.4-2.2 14.1-0.3 9.6 0.8 19.4-0.6 28.9-1.1 8.1-4.1 15.5-7.6 22.7-6.2 12.4-14 24.3-17.5 37.9-1 3.9-1.8 7.9-2.4 12-1.8 12-1.8 24.7 1.6 36.3z"/></g><path class="a" d="m166.8 46.3c10.3 2.4 21.2 2.7 31.4 0.5 7.7-1.6 17.5-3 21.7-10.7 3.2-5.7 1.4-13-2.4-18-4.6-6.1-12.2-8-19.6-6.3-6.2 1.3-11 5.4-16.8 7.6-6.1 2.3-12.7 2.9-19.1 1.8-3-0.6-6.1-1.5-9.1-1.5-5 0.2-10.2 3.2-12.1 7.9-3 7.8 5.2 10.9 10.9 13.5 4.7 2.3 9.8 4 15.1 5.2z"/><path class="b" d="m139.6 115.6h-2.1c-0.4-1.6-1-3.1-1.8-4.5l1.5-1.5c0.6-0.6 0.6-1.4 0-2l-3.3-3.3c-0.6-0.5-1.4-0.5-2 0l-1.4 1.5c-1.4-0.9-2.9-1.5-4.5-2v-2.1c0-0.8-0.6-1.4-1.4-1.4h-4.7c-0.8 0-1.4 0.6-1.4 1.4v2.1c-1.6 0.3-3.1 0.9-4.5 1.8l-1.5-1.6c-0.6-0.5-1.4-0.5-2 0l-3.3 3.4c-0.6 0.5-0.6 1.4 0 1.9l1.5 1.5c-0.9 1.3-1.6 2.9-2 4.5h-2.1c-0.8 0-1.4 0.6-1.4 1.4v4.7c0 0.7 0.6 1.3 1.4 1.3h2c0.4 1.6 1 3.2 1.8 4.6l-1.5 1.5c-0.5 0.5-0.5 1.4 0 1.9l3.4 3.3c0.5 0.6 1.3 0.6 1.9 0l1.4-1.4c1.4 0.8 3 1.5 4.5 1.9v2.2c0 0.7 0.7 1.4 1.4 1.4h4.7c0.8 0 1.4-0.7 1.4-1.4v-2.1c1.6-0.4 3.1-1 4.5-1.8l1.6 1.5c0.5 0.6 1.3 0.6 1.9 0l3.3-3.3c0.6-0.6 0.6-1.4 0-1.9l-1.4-1.5c0.8-1.4 1.5-2.9 1.9-4.5h2.2c0.7 0 1.3-0.6 1.3-1.4v-4.7c0-0.8-0.6-1.4-1.3-1.4zm-17.6 12.4c-4.9 0-8.8-3.9-8.8-8.8 0-5 4.3-9.1 9.4-8.8 4.3 0.3 7.9 3.9 8.2 8.3 0.3 5-3.8 9.3-8.8 9.3z"/><path class="c" d="m158.5 122.3c-13.7 0.5-38.2 71-28.6 72.3 12.8 9 50.9-68.7 28.6-72.3z"/><path class="d" d="m159.6 119.5l-0.2 17.3-0.2 34.2c0 0-0.3 0.4-0.8 1.2q-0.2 0.3-0.4 0.6c-0.4 0.7-1 1.6-1.6 2.7l-7.8-5.2-14.6-10c3.8-9.7 7.7-19.1 10.5-24.2 7.2-13.6 15.1-16.6 15.1-16.6z"/><path class="c" d="m194.1 121.8l-11.3 8.4-8.1-7.1v-10.8l16.1-12.6 0.3 1.9 0.8 5.8z"/><path class="c" d="m191.4 103.6c-4.4 8.8-14.6 13.1-16.6 13.7v-2.3l15-13.3c0 0 0.5-0.1 1.4-0.1z"/><path class="c" d="m192.2 102c0 0-3 6.6-9.9 10-3.3 1.6-6.9 3.8-10.7 3-3.3-0.6-5-4-6.5-6.7-1.4-2.6-2-5.6-2-8.6 0-3.3 0.1-6.4-0.5-9.6-0.6-2.5-1.4-5.7 0.1-7.9 1.9-3.1 17.1-6.8 17.1-6.8l8.9 4.9 6.8 4.4z"/><path class="d" d="m179.5 64.6c0 0-3-0.5-5 1.7-1.8 2.1 3.9 1.8 3.9 1.6 0.1-0.1 1.1-3.3 1.1-3.3z"/><path class="e" d="m171.8 82.6c0 0 0.5 2.5 3 3.5 0 0-4.8 0.6-7.7-1.6 0 0 1.3 2.2 2.5 2.5 0 0-6.1 0.3-8.1-1.9l0.7 3.8c0 0-3.5-3.6-3.5-7.9 0.1-3 1.4-5.8 2.4-8.6 0.6-1.9 1.5-4 3.3-4.9 4.9-2.6 10.8-2.2 16-0.9 4 1.1 8.3 2.5 11.6 5.3 8.8 7.3 5.4 23.5-0.5 31.5 0 0-0.7-7.4-0.8-9.7-0.2-2.3-2.2-2.8-2.2-1.8 0 1.1-0.1 6.5-1.2 6.4-1.2-0.1-1.6-9.4-4.4-11.4-2.7-1.9-8.9-2.5-11.1-4.3z"/><path class="d" d="m228.2 198.7h-75c-1.9-23.4-4.4-59.9-2.4-67.4 2.4-8.7 7-12.3 14.2-13.8 2.1-0.5 7.2-1 9.8-1.2 2.2 11.9 18.7 0.2 18.7 0.2 0 0 3.9 0.4 6.7 0.6 6.7 0.4 18.1 2.5 20.5 12.4 1.1 4.8 2.4 17.3 3.8 31.4 0.8 7.9 1.6 16.4 2.4 24.3 0.4 4.9 0.8 9.4 1.3 13.5z"/><path class="a" d="m174.7 115.2l3.4 6-3.5 2.7-2.7-7.3"/><path class="a" d="m178.1 121.2l14.8-7.8 3 3.7-15.7 8.4z"/><path class="c" d="m211.1 125.2c-9.2 10.2 24.4 76.8 32 70.8 15.5-3-14-84.3-32-70.8z"/><path class="c" d="m241.1 159.1c0 0 11.1 27.8 6.3 34-4.8 6.1-50.4 9.7-50.4 9.7l-2-12.6c0 0 31.8-7.7 31.9-8.2 0-0.5-7.7-14.2-7.7-14.2z"/><path class="c" d="m248.3 190c0 2.2-1.4 4.1-3.3 5.2-14.9 8.6-80.8 9.6-79 5.1 0-3.6 82.5-26.8 82.3-10.3z"/><path class="d" d="m218.7 169.6c-4.7-8.6-10.6-19.9-12.2-25.4 0 0-10.3-21.2-2.6-24.7 1.1-0.5 3.2-1.3 4.2-1 7.9 1.9 16 7.6 21.6 15.5 3.7 5.4 8.6 15.1 12.6 25.3z"/><path class="e" d="m172.3 198.6h-52.8v-3.3h49.6c1.8 0 3.2 1.4 3.2 3.3z"/><path class="e" d="m77.4 198.6h67.9l-6.5-41.7c-0.2-1.2-1.3-2.1-2.4-2.1h-62.9c-1.5 0-2.7 1.4-2.4 2.9z"/><path class="c" d="m148.3 205.5c0.1-0.3 5.4-10.9 11.3-11.9 5.9-1 14 2 15.1 2 1.2 0 3.7-0.2 3.7-0.2l1.7 7c0 0-4.7-0.1-5.4 0.6-0.6 0.8-0.9 1.9-3.3 1.9-2.5 0-5-2.3-8.1-2.3-3 0-5.2 3.6-7.9 3.6-2.6 0-7.1-0.7-7.1-0.7z"/><path class="d" d="m189.4 88.8l-2.8-0.1c0.2-6-0.5-19.9-7.7-22.4l0.6-1.7c10.9 2.9 9.9 23.2 9.9 24.2z"/><path class="f" d="m188.7 99.1c0 0-5.8 8.7-17.8 10.1"/><path class="e" d="m172.6 109.2q0 0.3-0.2 0.6-0.2 0.3-0.5 0.5-0.4 0.3-0.8 0.4-0.5 0.1-1 0.1-0.5 0-0.9-0.1-0.5-0.1-0.9-0.4-0.3-0.2-0.5-0.5-0.2-0.3-0.2-0.6 0-0.4 0.2-0.7 0.2-0.3 0.5-0.5 0.4-0.2 0.9-0.4 0.4-0.1 0.9-0.1 0.5 0 1 0.1 0.4 0.2 0.8 0.4 0.3 0.2 0.5 0.5 0.2 0.3 0.2 0.7z"/><path class="a" d="m194.2 94.4q0 0.7-0.2 1.4-0.1 0.6-0.3 1.3-0.3 0.6-0.6 1.2-0.4 0.5-0.8 1-0.5 0.5-1 0.9-0.5 0.4-1.1 0.6-0.6 0.3-1.2 0.4-0.6 0.1-1.2 0.1-0.7 0-1.3-0.1-0.6-0.1-1.2-0.4-0.5-0.2-1.1-0.6-0.5-0.4-0.9-0.9-0.5-0.5-0.8-1-0.4-0.6-0.6-1.2-0.3-0.7-0.4-1.3-0.1-0.7-0.1-1.4 0-0.7 0.1-1.3 0.1-0.7 0.4-1.3 0.2-0.7 0.6-1.2 0.3-0.6 0.8-1.1 0.4-0.5 0.9-0.8 0.6-0.4 1.1-0.7 0.6-0.2 1.2-0.4 0.6-0.1 1.3-0.1 0.6 0 1.2 0.1 0.6 0.2 1.2 0.4 0.6 0.3 1.1 0.7 0.5 0.3 1 0.8 0.4 0.5 0.8 1.1 0.3 0.5 0.6 1.2 0.2 0.6 0.3 1.3 0.2 0.6 0.2 1.3z"/><path class="e" d="m195.8 94.4q0 0.7-0.1 1.4-0.1 0.6-0.4 1.3-0.2 0.6-0.6 1.2-0.3 0.5-0.8 1-0.4 0.5-0.9 0.9-0.5 0.4-1.1 0.6-0.6 0.3-1.2 0.4-0.6 0.1-1.3 0.1-0.6 0-1.2-0.1-0.6-0.1-1.2-0.4-0.6-0.2-1.1-0.6-0.5-0.4-1-0.9-0.4-0.5-0.8-1-0.3-0.6-0.6-1.2-0.2-0.7-0.3-1.3-0.1-0.7-0.1-1.4 0-0.7 0.1-1.3 0.1-0.7 0.4-1.3 0.2-0.7 0.5-1.2 0.4-0.6 0.8-1.1 0.5-0.5 1-0.8 0.5-0.4 1.1-0.7 0.6-0.2 1.2-0.4 0.6-0.1 1.2-0.1 0.7 0 1.3 0.1 0.6 0.2 1.2 0.4 0.6 0.3 1.1 0.7 0.5 0.3 0.9 0.8 0.5 0.5 0.8 1.1 0.4 0.5 0.6 1.2 0.3 0.6 0.4 1.3 0.1 0.6 0.1 1.3z"/><path class="d" d="m195.1 94.5q0 0.9-0.3 1.8-0.3 0.9-0.9 1.6-0.6 0.6-1.3 1-0.8 0.4-1.6 0.4-0.9 0-1.6-0.4-0.8-0.4-1.4-1-0.6-0.7-0.9-1.6-0.3-0.9-0.3-1.8 0-1 0.3-1.8 0.3-0.9 0.9-1.6 0.6-0.7 1.4-1 0.7-0.4 1.6-0.4 0.8 0 1.6 0.4 0.7 0.3 1.3 1 0.6 0.7 0.9 1.6 0.3 0.8 0.3 1.8z"/><path class="d" d="m130.1 76.7c0.2 0.5 2.9 14.9 2.9 14.9l-14.6-3.6z"/><path class="d" d="m135.8 65.2q0 1.4-0.2 2.8-0.1 1.4-0.5 2.8-0.3 1.3-0.9 2.7-0.5 1.3-1.2 2.6-0.7 1.3-1.5 2.5-0.9 1.2-1.9 2.4-1 1.1-2.1 2.2-1.2 1.1-2.5 2.1-1.2 1-2.6 1.9-1.4 0.8-2.9 1.6-1.5 0.8-3.1 1.4-1.6 0.7-3.3 1.2-1.7 0.6-3.4 1-1.7 0.4-3.5 0.6-1.8 0.3-3.6 0.4-1.8 0.2-3.6 0.2-1.8 0-3.6-0.2-1.8-0.1-3.5-0.4-1.8-0.2-3.6-0.6-1.7-0.4-3.3-1-1.7-0.5-3.3-1.2-1.6-0.6-3.1-1.4-1.5-0.8-2.9-1.6-1.4-0.9-2.7-1.9-1.3-1-2.4-2.1-1.2-1.1-2.2-2.2-1-1.2-1.8-2.4-0.9-1.2-1.6-2.5-0.7-1.3-1.2-2.6-0.5-1.4-0.9-2.7-0.3-1.4-0.5-2.8-0.2-1.4-0.2-2.8 0-1.3 0.2-2.7 0.2-1.4 0.5-2.8 0.4-1.3 0.9-2.7 0.5-1.3 1.2-2.6 0.7-1.3 1.6-2.5 0.8-1.2 1.8-2.4 1-1.2 2.2-2.2 1.1-1.1 2.4-2.1 1.3-1 2.7-1.9 1.4-0.8 2.9-1.6 1.5-0.8 3.1-1.4 1.6-0.7 3.3-1.2 1.6-0.6 3.3-1 1.8-0.4 3.6-0.6 1.7-0.3 3.5-0.4 1.8-0.2 3.6-0.2 1.8 0 3.6 0.2 1.8 0.1 3.6 0.4 1.8 0.2 3.5 0.6 1.7 0.4 3.4 1 1.7 0.5 3.3 1.2 1.6 0.6 3.1 1.4 1.5 0.8 2.9 1.6 1.4 0.9 2.6 1.9 1.3 1 2.5 2.1 1.1 1 2.1 2.2 1 1.2 1.9 2.4 0.8 1.2 1.5 2.5 0.7 1.3 1.2 2.6 0.6 1.4 0.9 2.7 0.4 1.4 0.5 2.8 0.2 1.4 0.2 2.7z"/><path class="a" d="m87.5 65.2q0 0.9-0.3 1.8-0.4 0.8-1 1.4-0.6 0.7-1.5 1-0.8 0.4-1.7 0.4-0.9 0-1.7-0.4-0.8-0.3-1.5-1-0.6-0.6-0.9-1.4-0.4-0.9-0.4-1.8 0-0.8 0.4-1.7 0.3-0.8 0.9-1.4 0.7-0.7 1.5-1 0.8-0.4 1.7-0.4 0.9 0 1.7 0.4 0.9 0.3 1.5 1 0.6 0.6 1 1.4 0.3 0.9 0.3 1.7z"/><path class="a" d="m103.5 65.2q0 0.9-0.3 1.8-0.4 0.8-1 1.4-0.6 0.7-1.4 1-0.9 0.4-1.8 0.4-0.9 0-1.7-0.4-0.8-0.3-1.5-1-0.6-0.6-0.9-1.4-0.4-0.9-0.4-1.8 0-0.8 0.4-1.7 0.3-0.8 0.9-1.4 0.7-0.7 1.5-1 0.8-0.4 1.7-0.4 0.9 0 1.8 0.4 0.8 0.3 1.4 1 0.6 0.6 1 1.4 0.3 0.9 0.3 1.7z"/><path class="a" d="m119.5 65.2q0 0.9-0.4 1.8-0.3 0.8-1 1.4-0.6 0.7-1.4 1-0.8 0.4-1.7 0.4-0.9 0-1.8-0.4-0.8-0.3-1.4-1-0.7-0.6-1-1.4-0.3-0.9-0.3-1.8 0-0.8 0.3-1.7 0.3-0.8 1-1.4 0.6-0.7 1.4-1 0.9-0.4 1.8-0.4 0.9 0 1.7 0.4 0.8 0.3 1.4 1 0.7 0.6 1 1.4 0.4 0.9 0.4 1.7z"/><g clip-path="url(#cp2)"><path class="a" d="m5.6 198.1h291.4v4h-291.4z"/></g><g clip-path="url(#cp3)"><path class="a" d="m11.3 202.1h278.8v7.9h-278.8z"/></g><g clip-path="url(#cp4)"><path class="e" d="m208.2 202.1h81.9v7.9h-81.9z"/></g><g clip-path="url(#cp5)"><path class="e" d="m203.1 198.1h93.9v4h-93.9z"/></g><path class="e" d="m257.8 70.4q0 1.4-0.3 2.9-0.2 1.4-0.8 2.7-0.6 1.4-1.4 2.6-0.8 1.2-1.8 2.2-1 1-2.2 1.8-1.3 0.9-2.6 1.4-1.3 0.6-2.8 0.8-1.4 0.3-2.8 0.3-1.5 0-2.9-0.3-1.4-0.2-2.8-0.8-1.3-0.5-2.5-1.4-1.2-0.8-2.3-1.8-1-1-1.8-2.2-0.8-1.2-1.4-2.6-0.5-1.3-0.8-2.7-0.3-1.5-0.3-2.9 0-1.5 0.3-2.9 0.3-1.4 0.8-2.8 0.6-1.3 1.4-2.5 0.8-1.2 1.8-2.3 1.1-1 2.3-1.8 1.2-0.8 2.5-1.4 1.4-0.5 2.8-0.8 1.4-0.3 2.9-0.3 1.4 0 2.8 0.3 1.5 0.3 2.8 0.8 1.3 0.6 2.6 1.4 1.2 0.8 2.2 1.8 1 1.1 1.8 2.3 0.8 1.2 1.4 2.5 0.6 1.4 0.8 2.8 0.3 1.4 0.3 2.9z"/><path class="a" d="m255.8 70.4q0 1.2-0.2 2.5-0.3 1.2-0.8 2.4-0.4 1.1-1.1 2.2-0.7 1-1.6 1.9-0.9 0.9-2 1.6-1 0.7-2.2 1.2-1.1 0.4-2.4 0.7-1.2 0.2-2.4 0.2-1.3 0-2.5-0.2-1.3-0.3-2.4-0.7-1.2-0.5-2.2-1.2-1.1-0.7-2-1.6-0.8-0.9-1.5-1.9-0.7-1.1-1.2-2.2-0.5-1.2-0.7-2.4-0.3-1.3-0.3-2.5 0-1.3 0.3-2.5 0.2-1.2 0.7-2.4 0.5-1.2 1.2-2.2 0.7-1.1 1.5-1.9 0.9-0.9 2-1.6 1-0.7 2.2-1.2 1.1-0.5 2.4-0.7 1.2-0.3 2.5-0.3 1.2 0 2.4 0.3 1.3 0.2 2.4 0.7 1.2 0.5 2.2 1.2 1.1 0.7 2 1.6 0.9 0.8 1.6 1.9 0.7 1 1.1 2.2 0.5 1.2 0.8 2.4 0.2 1.2 0.2 2.5z"/><path class="g" d="m238.3 72.2l4.8-1.8v-9.1"/><path class="d" d="m268.6 191c-0.5-1.2-2.6-5.8-3.2-8.7-0.4-2.9-2-5.2-2.1-6.6-0.1-1.5 2.3-2.3 3-5.3 0.6-3 1.8-7.8 2.6-7.7 0.8 0.2 1.3 5.5 2 6.8 0.8 1.3 2.7 2.9 1.2 4.9-1.5 1.9-0.7 4.1 0.7 6.1 1.4 1.9-2.6 4.4-2.2 7.1 0.4 2.7-0.4 6.3-0.4 6.3z"/><path class="a" d="m269.2 185.2q-0.2 0-0.2-0.2c-0.2-1.8-0.7-3.1-1.1-4.2-0.4-0.8-0.7-1.6-0.7-2.3 0-0.8 0.4-1.5 0.9-2.1 0.4-0.6 0.9-1.2 0.9-2 0.2-1.7-1.3-5.4-1.3-5.5 0-0.1 0-0.3 0.2-0.3 0.1-0.1 0.2 0 0.2 0.2 0.1 0.1 1.6 3.8 1.4 5.6-0.2 0.9-0.7 1.6-1.1 2.3-0.5 0.6-0.8 1.1-0.8 1.8 0 0.6 0.3 1.3 0.6 2.2 0.4 1.1 1 2.5 1.2 4.3 0.1 0.1 0 0.2-0.2 0.2z"/><path class="d" d="m264.6 190.1c-0.5-0.3-0.8-3.4-1.8-3.9-1-0.5-1.8-1.9-2.1-3.5-0.4-1.5-3.5-2.1-4.1-3.8-0.5-1.6 1.2-2.7 1.1-4.3-0.2-1.5-1.4-3.6-0.5-4.6 0.9-1 2.6 2.4 3.5 3.2 0.9 0.7 2.5 1.4 2 2.8-0.5 1.3 0.2 3.4 3.2 4.5 3.1 1.1 5.1 12.4-1.3 9.6z"/><path class="a" d="m265.1 184.7c-0.1 0-0.2-0.1-0.2-0.2-0.6-1.8-1.5-2.5-2.7-3.3-0.5-0.5-1.1-0.9-1.7-1.6-1.7-1.8-0.9-5.1-0.9-5.2 0-0.2 0.2-0.2 0.3-0.2 0.1 0 0.2 0.2 0.1 0.3 0 0-0.7 3.2 0.8 4.9 0.5 0.6 1.1 1 1.7 1.4 1.1 0.8 2.1 1.7 2.7 3.6 0.1 0.1 0 0.3-0.1 0.3z"/><path class="d" d="m270.3 190.4c0.1-0.4 0.3-2.5 1.4-2.9 1.1-0.5 2.1-0.8 3-2.2 0.9-1.4 0-3.6 0.9-5 0.9-1.5 3.1-0.1 4.2-1.6 1.1-1.4-1.3-4-0.5-5.1 0.8-1.1 2-4 0.8-4.4-1.2-0.4-4.4 1.7-5.2 3.6-0.9 1.8-2.6 3-3 4.4-0.4 1.5-1.7 2.3-2 3.7-0.2 1.5 0.2 3.8-0.4 5.4-0.5 1.6 0.8 4.1 0.8 4.1z"/><path class="e" d="m273.1 198.8h-9.8c-0.7 0-1.3-0.5-1.3-1.2l-0.4-10.4h13.2l-0.4 10.4c-0.1 0.7-0.6 1.2-1.3 1.2z"/><path class="a" d="m272.4 185c-0.1 0-0.2-0.2-0.2-0.3 0.3-4 1.7-6.3 3.2-8 1.1-1.3 1.8-3.9 1.8-3.9 0-0.2 0.2-0.2 0.3-0.2 0.1 0 0.2 0.2 0.1 0.3 0 0.1-0.7 2.7-1.9 4.2-1.5 1.7-2.8 3.8-3.1 7.7q0 0.1-0.2 0.2z"/><g clip-path="url(#cp6)"><path class="h" d="m60.9 186.8c0 0 4.6-3.2 4.9 0.7 0.3 3.9-6.1 8.7-6.1 8.7"/></g><path class="e" d="m58.5 198.1h-5.5c-1.6 0-2.8-1.2-3-2.7l-1.2-11.5h13.9l-1.2 11.5c-0.2 1.5-1.5 2.7-3 2.7z"/><path class="e" d="m62 112.7q0-0.1 0 0c0.7-0.6 1.2-1 1.7-1.6l0.2-0.2c0.3-0.3 0.6-0.5 0.9-0.9 1.4-1.4 3.1-1.3 4.5 0.1l4.6 4.6q1.1 1 1.1 2.2c0 0.8-0.4 1.6-1.1 2.2l-2.9 3c0 0-0.2 0.2-0.2 0.3 0 0 0 0.1 0.1 0.2v0.1c0.1 0.3 0.3 0.6 0.5 0.9 0.1 0.3 0.3 0.6 0.5 0.9 1.6 2.5 3.7 4.9 6.5 7.1 1.5 1.2 2.8 2 4 2.5 0.3 0.1 0.3 0.1 0.6-0.1 0.6-0.7 1.3-1.4 2-2.2 0.2-0.1 0.4-0.3 0.5-0.5l0.2-0.2c1.4-1.4 3.1-1.4 4.5 0l2.3 2.3q0.2 0.2 0.4 0.4c0.2 0.2 0.3 0.3 0.4 0.4 0.6 0.5 1.1 1 1.6 1.5 0.6 0.6 0.9 1.4 0.9 2.2 0 0.7-0.3 1.5-0.9 2.2l-2.9 2.8c-0.9 0.9-2.1 1.5-3.3 1.5-1.7 0.2-3.6-0.1-5.8-1-3.6-1.3-6.9-3.3-10.5-6.3q-6.5-5.4-10.2-12.9c-0.9-1.9-1.9-4.3-2-7.1 0-0.1 0-0.3 0-0.4q0.1-2.3 1.8-4z"/><path class="e" d="m154 34.3c4.3 0 7.2 2.3 7.2 6.6 0 4.1-3 6.2-7.2 6.2l-0.1 2.4h-3.8l-0.2-5.3h1.4c3.3 0 5.6-0.6 5.6-3.4 0-1.8-1.1-2.9-2.9-2.9-1.9 0-3 1.1-3 2.9h-4.1c0-3.7 2.6-6.5 7.1-6.5zm-2 22.6c-1.6 0-2.7-1.1-2.7-2.6 0-1.5 1.1-2.6 2.7-2.6 1.6 0 2.7 1.1 2.7 2.6 0 1.5-1.1 2.6-2.7 2.6z"/><path class="d" d="m273.7 101.5v23.2 0.1c0 0.4-0.2 0.7-0.5 1q-0.4 0.4-1 0.4h-37.9q-0.7 0-1.1-0.4-0.4-0.4-0.5-1c0 0 0 0 0-0.1v-23.2c0-0.9 0.8-1.6 1.7-1.6h37.5c1 0 1.8 0.8 1.8 1.6z"/><path class="d" d="m273.7 124.7c0 0.4-0.2 0.8-0.5 1q-0.4 0.4-1 0.4h-37.9q-0.7 0-1.1-0.4-0.4-0.4-0.5-1l20.5-17.7z"/><path class="e" d="m271.9 124.2c0 0-0.1 0-0.2-0.1l-18.5-16-18.5 16c-0.2 0.2-0.4 0.1-0.4 0-0.2-0.1-0.1-0.3 0-0.4l18.9-16.4 19 16.4c0.1 0.2 0.1 0.4 0 0.4 0 0-0.1 0.1-0.3 0.1z"/><path class="d" d="m273.7 101.5v2.6l-20.5 16.6-20.4-16.6v-2.6c0-0.9 0.8-1.6 1.7-1.6h37.4c1 0 1.8 0.7 1.8 1.6z"/><path class="e" d="m253.2 120.6l-0.2-0.1-18.7-15.3c-0.1-0.1-0.1-0.3 0-0.4 0.1-0.1 0.2-0.1 0.4-0.1l18.5 15.1 18.5-15.1c0.2-0.1 0.4 0 0.5 0.1 0.1 0.1 0 0.4-0.1 0.4z"/><path class="f" d="m219.6 169l-10.8-17.8"/><path class="f" d="m151.3 171.7l-1.2-26.1"/></svg>