<svg version="1.2" xmlns="http://www.w3.org/2000/svg" viewBox="0 0 226 225" width="125" height="124"><defs><clipPath clipPathUnits="userSpaceOnUse" id="cp1"><path d="m1 25h198v198.63h-198z"/></clipPath><clipPath clipPathUnits="userSpaceOnUse" id="cp2"><path d=""/></clipPath><clipPath clipPathUnits="userSpaceOnUse" id="cp3"><path d="m1 25h198v199h-198z"/></clipPath><clipPath clipPathUnits="userSpaceOnUse" id="cp4"><path d="m1 25.73h197v197.27h-197z"/></clipPath><clipPath clipPathUnits="userSpaceOnUse" id="cp5"><path d="m127 200h24v23.63h-24z"/></clipPath><clipPath clipPathUnits="userSpaceOnUse" id="cp6"><path d="m203 200h22.76v23h-22.76z"/></clipPath><clipPath clipPathUnits="userSpaceOnUse" id="cp7"><path d="m202 200h23.76v23.63h-23.76z"/></clipPath><clipPath clipPathUnits="userSpaceOnUse" id="cp8"><path d="m33 102h33v121.63h-33z"/></clipPath><clipPath clipPathUnits="userSpaceOnUse" id="cp9"><path d="m52 102h34v121.63h-34z"/></clipPath><clipPath clipPathUnits="userSpaceOnUse" id="cp10"><path d="m28 209h28v14.63h-28z"/></clipPath><clipPath clipPathUnits="userSpaceOnUse" id="cp11"><path d="m66 209h27v14.63h-27z"/></clipPath><clipPath clipPathUnits="userSpaceOnUse" id="cp12"><path d="m40 1.75h43v24.25h-43z"/></clipPath></defs><style>.a{fill:#007ae2}.b{fill:#080717}.c{fill:#fff}.d{fill:#090817}</style><g clip-path="url(#cp1)"><g clip-path="url(#cp2)"><g clip-path="url(#cp3)"><g clip-path="url(#cp4)"><path class="a" d="m99.5 26q2.4 0 4.8 0.1 2.4 0.1 4.8 0.3 2.4 0.3 4.8 0.6 2.4 0.4 4.8 0.9 2.3 0.4 4.7 1 2.3 0.6 4.6 1.3 2.3 0.7 4.6 1.5 2.3 0.8 4.5 1.8 2.2 0.9 4.4 1.9 2.2 1 4.3 2.2 2.2 1.1 4.2 2.4 2.1 1.2 4.1 2.5 2 1.4 4 2.8 1.9 1.5 3.8 3 1.9 1.5 3.6 3.1 1.8 1.7 3.5 3.4 1.7 1.7 3.4 3.5 1.6 1.8 3.1 3.6 1.6 1.9 3 3.8 1.4 2 2.8 4 1.3 2 2.6 4.1 1.2 2 2.3 4.2 1.2 2.1 2.2 4.3 1 2.2 2 4.4 0.9 2.2 1.7 4.5 0.8 2.3 1.5 4.6 0.7 2.3 1.3 4.6 0.6 2.4 1.1 4.8 0.4 2.3 0.8 4.7 0.3 2.4 0.6 4.8 0.2 2.4 0.3 4.8 0.2 2.4 0.2 4.8 0 2.5-0.2 4.9-0.1 2.4-0.3 4.8-0.3 2.4-0.6 4.8-0.4 2.4-0.8 4.7-0.5 2.4-1.1 4.8-0.6 2.3-1.3 4.6-0.7 2.3-1.5 4.6-0.8 2.3-1.7 4.5-1 2.2-2 4.4-1 2.2-2.2 4.3-1.1 2.2-2.3 4.2-1.3 2.1-2.6 4.1-1.4 2-2.8 4-1.4 1.9-3 3.8-1.5 1.8-3.1 3.6-1.7 1.8-3.4 3.5-1.7 1.7-3.5 3.3-1.7 1.7-3.6 3.2-1.9 1.5-3.8 3-2 1.4-4 2.7-2 1.4-4.1 2.6-2 1.3-4.2 2.4-2.1 1.1-4.3 2.2-2.2 1-4.4 1.9-2.2 1-4.5 1.8-2.3 0.8-4.6 1.5-2.3 0.7-4.6 1.3-2.4 0.6-4.7 1-2.4 0.5-4.8 0.9-2.4 0.3-4.8 0.6-2.4 0.2-4.8 0.3-2.4 0.1-4.8 0.1-2.4 0-4.9-0.1-2.4-0.1-4.8-0.3-2.4-0.3-4.8-0.6-2.4-0.4-4.7-0.9-2.4-0.4-4.7-1-2.4-0.6-4.7-1.3-2.3-0.7-4.6-1.5-2.2-0.8-4.5-1.8-2.2-0.9-4.4-1.9-2.2-1.1-4.3-2.2-2.1-1.1-4.2-2.4-2.1-1.2-4.1-2.6-2-1.3-3.9-2.7-2-1.5-3.8-3-1.9-1.5-3.7-3.2-1.8-1.6-3.5-3.3-1.7-1.7-3.3-3.5-1.6-1.8-3.2-3.6-1.5-1.9-3-3.8-1.4-2-2.7-4-1.4-2-2.6-4.1-1.3-2-2.4-4.2-1.1-2.1-2.2-4.3-1-2.2-1.9-4.4-0.9-2.2-1.8-4.5-0.8-2.3-1.5-4.6-0.7-2.3-1.3-4.6-0.6-2.4-1-4.8-0.5-2.3-0.8-4.7-0.4-2.4-0.6-4.8-0.3-2.4-0.4-4.8-0.1-2.4-0.1-4.9 0-2.4 0.1-4.8 0.1-2.4 0.4-4.8 0.2-2.4 0.6-4.8 0.3-2.4 0.8-4.7 0.4-2.4 1-4.8 0.6-2.3 1.3-4.6 0.7-2.3 1.5-4.6 0.9-2.3 1.8-4.5 0.9-2.2 1.9-4.4 1.1-2.2 2.2-4.3 1.1-2.2 2.4-4.2 1.2-2.1 2.6-4.1 1.3-2 2.7-4 1.5-1.9 3-3.8 1.6-1.8 3.2-3.6 1.6-1.8 3.3-3.5 1.7-1.7 3.5-3.4 1.8-1.6 3.7-3.1 1.8-1.5 3.8-3 1.9-1.4 3.9-2.8 2-1.3 4.1-2.5 2.1-1.3 4.2-2.4 2.1-1.2 4.3-2.2 2.2-1 4.4-1.9 2.3-1 4.5-1.8 2.3-0.8 4.6-1.5 2.3-0.7 4.7-1.3 2.3-0.6 4.7-1 2.3-0.5 4.7-0.9 2.4-0.3 4.8-0.6 2.4-0.2 4.8-0.3 2.5-0.1 4.9-0.1z"/></g></g></g></g><path class="b" d="m220.7 207.4h-88.5q-0.8 0-1.1-0.6-0.4-0.7 0-1.3l15.5-25-14.9-83.5h-19.5q-0.2 0-0.4-0.1-0.3-0.1-0.4-0.3-0.2-0.1-0.3-0.4-0.1-0.2-0.1-0.4 0-0.3 0.1-0.5 0.1-0.2 0.3-0.4 0.1-0.2 0.4-0.3 0.2-0.1 0.4-0.1l20.5 0.1q0.5 0 0.8 0.2 0.4 0.3 0.5 0.8l15.1 84.9q0.1 0.5-0.2 0.9l-14.5 23.5h86.3q0.2 0 0.5 0.1 0.2 0.1 0.4 0.3 0.1 0.2 0.2 0.4 0.1 0.2 0.1 0.5 0 0.2-0.1 0.4-0.1 0.3-0.2 0.4-0.2 0.2-0.4 0.3-0.3 0.1-0.5 0.1z"/><path class="b" d="m147.6 181.4q-0.5 0-0.8-0.3-0.3-0.3-0.4-0.7c-1.2-7.7-2.7-15.5-4-23.1-1.4-7.6-2.9-15.4-4.1-23.1q0-0.3 0.1-0.5 0-0.3 0.2-0.5 0.2-0.2 0.4-0.3 0.3-0.1 0.5-0.1h81.5q0.3 0 0.5 0.1 0.3 0.1 0.5 0.4 0.1 0.2 0.2 0.5 0 0.3-0.1 0.6l-14.6 46.1q-0.1 0.4-0.4 0.7-0.3 0.2-0.7 0.2zm-6.7-46.2c1.2 7.2 2.5 14.6 3.8 21.7 1.4 7.2 2.7 14.7 3.9 22h56.8l13.8-43.7z"/><path class="c" d="m149.5 211.8q0 1-0.2 2.1-0.2 1.1-0.6 2.1-0.4 1-1 1.9-0.6 0.9-1.4 1.6-0.8 0.8-1.7 1.4-0.8 0.6-1.9 1-0.9 0.4-2 0.6-1.1 0.2-2.1 0.2-1.1 0-2.2-0.2-1-0.2-2-0.6-1-0.4-1.9-1-0.9-0.6-1.7-1.4-0.8-0.7-1.4-1.6-0.6-0.9-1-1.9-0.4-1-0.6-2.1-0.2-1.1-0.2-2.1 0-1.1 0.2-2.2 0.2-1 0.6-2 0.4-1 1-1.9 0.6-0.9 1.4-1.7 0.8-0.8 1.7-1.4 0.9-0.6 1.9-1 1-0.4 2-0.6 1.1-0.2 2.2-0.2 1 0 2.1 0.2 1.1 0.2 2 0.6 1.1 0.4 1.9 1 0.9 0.6 1.7 1.4 0.8 0.8 1.4 1.7 0.6 0.9 1 1.9 0.4 1 0.6 2 0.2 1.1 0.2 2.2z"/><g clip-path="url(#cp5)"><path class="d" d="m138.6 223.2q-1.2 0-2.3-0.2-1.1-0.2-2.1-0.7-1.1-0.4-2-1-1-0.6-1.8-1.4-0.8-0.8-1.4-1.8-0.6-0.9-1-2-0.5-1-0.7-2.1-0.2-1.1-0.2-2.2 0-1.2 0.2-2.3 0.2-1.1 0.7-2.1 0.4-1.1 1-2 0.6-1 1.4-1.7 0.8-0.8 1.8-1.5 0.9-0.6 2-1 1-0.5 2.1-0.7 1.1-0.2 2.2-0.2 1.2 0 2.3 0.2 1.1 0.2 2.1 0.7 1.1 0.4 2 1 1 0.7 1.8 1.4 0.8 0.9 1.4 1.8 0.6 0.9 1 2 0.5 1 0.7 2.1 0.2 1.1 0.2 2.3 0 1.1-0.2 2.2-0.2 1.1-0.7 2.1-0.4 1.1-1 2-0.6 1-1.4 1.8-0.8 0.8-1.8 1.4-0.9 0.6-2 1-1 0.5-2.1 0.7-1.1 0.2-2.2 0.2zm0-21.9q-1.1 0-2.1 0.2-1 0.2-2 0.6-0.9 0.4-1.8 0.9-0.8 0.6-1.6 1.3-0.7 0.8-1.3 1.6-0.5 0.9-0.9 1.8-0.4 1-0.6 2-0.2 1-0.2 2.1 0 1 0.2 2 0.2 1 0.6 2 0.4 0.9 0.9 1.8 0.6 0.8 1.3 1.6 0.8 0.7 1.6 1.3 0.9 0.5 1.8 0.9 1 0.4 2 0.6 1 0.2 2 0.2 1.1 0 2.1-0.2 1-0.2 2-0.6 0.9-0.4 1.8-0.9 0.8-0.6 1.6-1.3 0.7-0.8 1.3-1.6 0.5-0.9 0.9-1.8 0.4-1 0.6-2 0.2-1 0.2-2 0-1.1-0.2-2.1-0.2-1-0.6-1.9-0.4-1-0.9-1.9-0.6-0.8-1.3-1.5-0.8-0.8-1.6-1.4-0.9-0.5-1.8-0.9-1-0.4-2-0.6-1-0.2-2-0.2z"/></g><g clip-path="url(#cp6)"><path class="c" d="m225.3 211.8q0 1-0.3 2.1-0.2 1.1-0.6 2.1-0.4 1-1 1.9-0.6 0.9-1.4 1.6-0.7 0.8-1.6 1.4-0.9 0.6-1.9 1-1 0.4-2.1 0.6-1 0.2-2.1 0.2-1.1 0-2.2-0.2-1-0.2-2-0.6-1-0.4-1.9-1-0.9-0.6-1.7-1.4-0.7-0.7-1.3-1.6-0.6-0.9-1.1-1.9-0.4-1-0.6-2.1-0.2-1.1-0.2-2.1 0-1.1 0.2-2.2 0.2-1 0.6-2 0.5-1 1.1-1.9 0.6-0.9 1.3-1.7 0.8-0.8 1.7-1.4 0.9-0.6 1.9-1 1-0.4 2-0.6 1.1-0.2 2.2-0.2 1.1 0 2.1 0.2 1.1 0.2 2.1 0.6 1 0.4 1.9 1 0.9 0.6 1.6 1.4 0.8 0.8 1.4 1.7 0.6 0.9 1 1.9 0.4 1 0.6 2 0.3 1.1 0.2 2.2z"/></g><g clip-path="url(#cp7)"><path class="d" d="m214.3 223.2q-1.2 0-2.3-0.2-1.1-0.2-2.1-0.7-1.1-0.4-2-1-0.9-0.6-1.7-1.4-0.8-0.8-1.5-1.8-0.6-0.9-1-2-0.4-1-0.7-2.1-0.2-1.1-0.2-2.2 0-1.2 0.2-2.3 0.3-1.1 0.7-2.1 0.4-1.1 1-2 0.7-0.9 1.5-1.8 0.8-0.7 1.7-1.4 0.9-0.6 2-1 1-0.5 2.1-0.7 1.1-0.2 2.3-0.2 1.1 0 2.2 0.2 1.1 0.2 2.2 0.7 1 0.4 1.9 1 1 0.7 1.8 1.4 0.8 0.9 1.4 1.8 0.6 0.9 1.1 2 0.4 1 0.6 2.1 0.2 1.1 0.2 2.3 0 1.1-0.2 2.2-0.2 1.1-0.6 2.1-0.5 1.1-1.1 2-0.6 1-1.4 1.8-0.8 0.8-1.8 1.4-0.9 0.6-1.9 1-1.1 0.5-2.2 0.7-1.1 0.2-2.2 0.2zm0-21.9q-1.1 0-2.1 0.2-1 0.2-1.9 0.6-1 0.4-1.8 0.9-0.9 0.6-1.6 1.3-0.8 0.8-1.3 1.6-0.6 0.9-1 1.8-0.4 1-0.6 2-0.2 1-0.2 2.1 0 1 0.2 2 0.2 1 0.6 2 0.4 0.9 1 1.8 0.5 0.8 1.3 1.6 0.7 0.7 1.6 1.3 0.8 0.5 1.8 0.9 0.9 0.4 1.9 0.6 1 0.2 2.1 0.2 1 0 2-0.2 1-0.2 2-0.6 0.9-0.4 1.8-0.9 0.9-0.6 1.6-1.3 0.7-0.8 1.3-1.6 0.6-0.9 1-1.8 0.4-1 0.6-2 0.2-1 0.2-2 0-1.1-0.2-2.1-0.2-1-0.6-2-0.4-0.9-1-1.8-0.6-0.8-1.3-1.6-0.7-0.7-1.6-1.3-0.9-0.5-1.8-0.9-1-0.4-2-0.6-1-0.2-2-0.2z"/></g><path class="b" d="m156 180.7q-0.2 0-0.4-0.2-0.1-0.1-0.1-0.3v-46.2q0-0.2 0.1-0.3 0.2-0.2 0.4-0.2 0.2 0 0.3 0.2 0.2 0.1 0.2 0.3v46.2q0 0.2-0.2 0.3-0.1 0.2-0.3 0.2z"/><path class="b" d="m168.3 180.7q-0.2 0-0.3-0.2-0.2-0.1-0.2-0.3v-46.2q0-0.2 0.2-0.3 0.1-0.2 0.3-0.2 0.2 0 0.4 0.2 0.1 0.1 0.1 0.3v46.2q0 0.2-0.1 0.3-0.2 0.2-0.4 0.2z"/><path class="b" d="m181.3 180.7q-0.2 0-0.3-0.2-0.2-0.1-0.2-0.3v-46.2q0-0.2 0.2-0.3 0.1-0.2 0.3-0.2 0.2 0 0.4 0.2 0.1 0.1 0.1 0.3v46.2q0 0.2-0.1 0.3-0.2 0.2-0.4 0.2z"/><path class="b" d="m194.3 180.7q-0.2 0-0.4-0.2-0.1-0.1-0.1-0.3v-46.2q0-0.2 0.1-0.3 0.2-0.2 0.4-0.2 0.2 0 0.3 0.2 0.2 0.1 0.2 0.3v46.2q0 0.2-0.2 0.3-0.1 0.2-0.3 0.2z"/><path class="b" d="m207.3 179.6q-0.3 0-0.4-0.1-0.1-0.2-0.1-0.4v-45.1q0-0.2 0.1-0.3 0.1-0.2 0.4-0.2 0.2 0 0.3 0.2 0.1 0.1 0.1 0.3v45.1q0 0.2-0.1 0.4-0.1 0.1-0.3 0.1z"/><path class="b" d="m215.8 150.9h-72.2q-0.2 0-0.4-0.2-0.1-0.1-0.1-0.3 0-0.2 0.1-0.3 0.2-0.2 0.4-0.2h72.2q0.2 0 0.3 0.2 0.2 0.1 0.2 0.3 0 0.2-0.2 0.3-0.1 0.2-0.3 0.2z"/><path class="b" d="m210.6 167.1h-63.5q-0.2 0-0.4-0.1-0.1-0.2-0.1-0.4 0-0.2 0.1-0.3 0.2-0.2 0.4-0.2h63.5q0.2 0 0.4 0.2 0.1 0.1 0.1 0.3 0 0.2-0.1 0.4-0.2 0.1-0.4 0.1z"/><path class="c" d="m77.4 64c-0.2-3.3-0.5-8.2-3.8-12.1q-3.1-3.4-7.5-4.8-0.8-0.2-1.3-0.9-0.5-0.7-0.5-1.6v-7.9h-10.3v7.9q0 0.4-0.1 0.7-0.2 0.4-0.4 0.7-0.2 0.3-0.6 0.6-0.3 0.2-0.7 0.3-4.6 1.3-8 4.7c-3.6 3.8-4.2 8.6-5 17-1.1 11.6-2.3 25.5-3.3 41.5h46.5c-2.8-20.4-4.2-35.3-5-46.1z"/><path class="d" d="m82.4 110.6h-46.6q-0.2 0-0.3-0.2-0.2-0.2-0.1-0.4c0.8-13.8 2-27.8 3.3-41.5 0.9-8.7 1.5-13.4 5.2-17.3q3.4-3.5 8.2-4.8 0.6-0.1 1-0.7 0.4-0.5 0.4-1.1v-7.9q0-0.2 0.1-0.3 0.2-0.2 0.4-0.2h10.3q0.2 0 0.3 0.2 0.2 0.1 0.2 0.3v7.9q0 0.7 0.4 1.3 0.4 0.6 1 0.8 4.6 1.4 7.7 4.9c3.4 4 3.8 9 4 12.2v0.2c1 13.8 2.6 28.8 5 46q0 0.2-0.1 0.4-0.2 0.2-0.4 0.2zm-46-1h45.4c-2.3-17-3.9-31.9-4.9-45.6v-0.1c-0.2-3.3-0.6-7.9-3.7-11.6q-3-3.4-7.3-4.7-0.5-0.1-0.9-0.4-0.4-0.3-0.6-0.7-0.3-0.4-0.5-0.9-0.1-0.5-0.1-1v-7.4h-9.3v7.4q0 0.4-0.2 0.9-0.1 0.4-0.4 0.8-0.3 0.4-0.7 0.7-0.4 0.3-0.8 0.4-4.5 1.2-7.8 4.5c-3.5 3.7-4.1 8-4.9 16.7-1.3 13.5-2.4 27.3-3.3 41z"/><g clip-path="url(#cp8)"><path class="b" d="m35.8 223.1q-0.2 0-0.3-0.1-0.2-0.1-0.2-0.3-3.2-40.7-1.9-81.5c0.4-12.7 1.2-25.6 2.3-38.3q0-0.2 0.2-0.3 0.1-0.2 0.3-0.2l28.9 0.8q0.2 0 0.4 0.2 0.1 0.2 0.1 0.4-6.5 29.2-9.1 59.1-2.6 29.8-1.2 59.7 0 0.2-0.1 0.4-0.2 0.1-0.4 0.1z"/></g><g clip-path="url(#cp9)"><path class="b" d="m68.2 223.2q-0.2 0-0.4-0.2-0.1-0.1-0.1-0.3c-2.2-21.7-4.7-43.7-7.6-65.3-2.3-17.8-4.9-35.8-7.7-53.6q-0.1-0.2 0.1-0.4 0.1-0.2 0.4-0.2l28.9-0.8q0.2 0 0.3 0.2 0.2 0.1 0.2 0.3c0.4 5.4 0.9 11 1.2 16.4 0 0.1 0.7 10.4 1.1 21.9 0.4 12.4 1 41.1 1.1 81.5q0 0.2-0.1 0.4-0.2 0.1-0.4 0.1z"/></g><path class="c" d="m29.1 222.6c0 0 0.9-5.6 6.2-7v-4.5l19.1-1 0.4 12.5z"/><g clip-path="url(#cp10)"><path class="d" d="m54.8 223.1h-25.7q-0.2 0-0.3-0.1-0.2-0.2-0.2-0.4c0-0.1 0.9-5.8 6.2-7.4v-4.1q0-0.2 0.2-0.4 0.1-0.1 0.3-0.1l19.1-1q0.2 0 0.3 0.2 0.2 0.1 0.2 0.3l0.4 12.5q0 0.2-0.2 0.4-0.1 0.1-0.3 0.1zm-25.1-1h24.6l-0.4-11.4-18.1 0.8v4.1q0 0.4-0.4 0.4c-4 1.1-5.3 4.7-5.7 6.1z"/></g><path class="c" d="m91.9 222.6q-0.4-1.9-1.4-3.6-1-1.7-2.5-2.9-1.2-1.1-2.8-1.6v-4.4h-18.3l1.5 11.5q0 0.6 0.1 1.1z"/><g clip-path="url(#cp11)"><path class="d" d="m68.5 223.2q-0.2 0-0.3-0.1-0.1-0.1-0.2-0.3-0.1-0.6-0.1-1.2l-1.5-11.4q0-0.2 0.1-0.4 0.2-0.1 0.4-0.2h18.3q0.2 0 0.3 0.2 0.1 0.1 0.1 0.3l0.1 4.1q1.4 0.5 2.6 1.5 1.6 1.3 2.6 3.1 1.1 1.7 1.5 3.7 0 0.3-0.1 0.4-0.2 0.2-0.4 0.2c0 0-23.4 0.1-23.4 0.1zm-1-12.6l1.3 10.9q0.1 0.4 0.1 0.7l22.4-0.1q-0.9-3.4-3.6-5.6-1.2-1-2.7-1.5-0.3-0.1-0.3-0.5v-3.9z"/></g><path class="a" d="m52.6 46.2c0 0 7.9 2.4 13 0 0 0 10.9 1.8 11.4 9.8 0.4 8 6.8 55.2 6.8 55.2 0 0-28.5 5.2-48.8 0 0 0 3.2-46 5-53.5 1.8-7.6 3.8-10.6 12.6-11.5z"/><path class="b" d="m112.3 93.2h16q0.3 0 0.6 0.1 0.3 0.1 0.5 0.3 0.2 0.2 0.3 0.5 0.1 0.3 0.1 0.6v2.2q0 0.3-0.1 0.5-0.1 0.3-0.3 0.5-0.2 0.2-0.5 0.3-0.3 0.1-0.6 0.1h-16q-0.3 0-0.6-0.1-0.2-0.1-0.4-0.3-0.2-0.2-0.4-0.5-0.1-0.2-0.1-0.5v-2.2q0-0.3 0.1-0.6 0.2-0.3 0.4-0.5 0.2-0.2 0.4-0.3 0.3-0.1 0.6-0.1z"/><path class="c" d="m169.9 72.1q-1.8 0.8-3.3 1.9-1.5 1.1-2.9 2.5-1.3 1.3-2.4 2.9-1.1 1.5-1.9 3.3-0.8 1.7-1.2 3.5-0.5 1.9-0.7 3.7-0.2 1.9 0 3.8 0.2 1.9 0.6 3.7 0.5 1.9 1.3 3.6 0.8 1.7 1.9 3.3 1 1.5 2.4 2.9 1.3 1.3 2.8 2.5 1.6 1.1 3.3 1.9 1.7 0.8 3.5 1.3 1.8 0.5 3.7 0.7 1.9 0.2 3.8 0.1l8 9.7q0.2 0.2 0.5 0.1 0.4-0.1 0.3-0.5l-1.1-11.3q0.1 0 0.2-0.1 1-0.5 1.9-1 1-0.6 1.8-1.2 0.9-0.7 1.7-1.4 0.8-0.7 1.5-1.5 0.7-0.8 1.3-1.7 0.7-0.8 1.2-1.8 0.6-0.9 1-1.9 0.5-0.9 0.8-2 0.4-1 0.7-2 0.2-1.1 0.4-2.1 0.1-1.1 0.2-2.2 0-1 0-2.1-0.1-1.1-0.3-2.1-0.1-1.1-0.4-2.2-0.3-1-0.6-2-0.4-1-0.8-2-0.5-1-1.1-1.9-0.5-0.9-1.2-1.8-0.6-0.8-1.3-1.6-0.8-0.8-1.6-1.5-0.8-0.7-1.6-1.4-0.9-0.6-1.8-1.2-1-0.5-1.9-1-1-0.4-2-0.8-1-0.3-2.1-0.6-1-0.3-2.1-0.4-1-0.2-2.1-0.2-1.1-0.1-2.2 0-1 0.1-2.1 0.2-1.1 0.2-2.1 0.5-1.1 0.2-2.1 0.6-1 0.4-1.9 0.8z"/><path class="d" d="m189.2 124q-0.5 0-0.8-0.3l-7.8-9.5q-0.7 0-1.4 0-0.7 0-1.4 0-0.6 0-1.3-0.1-0.7-0.1-1.4-0.2-0.7-0.2-1.3-0.3-0.7-0.2-1.3-0.4-0.7-0.2-1.3-0.5-0.7-0.2-1.3-0.5-0.6-0.3-1.2-0.6-0.6-0.4-1.2-0.7-0.6-0.4-1.2-0.8-0.5-0.4-1-0.8-0.6-0.4-1.1-0.9-0.5-0.5-1-1-0.4-0.5-0.9-1-0.4-0.5-0.9-1.1-0.4-0.5-0.7-1.1-0.4-0.5-0.8-1.1-0.3-0.6-0.6-1.2-0.3-0.7-0.6-1.3-0.3-0.6-0.5-1.3-0.2-0.6-0.4-1.3-0.2-0.6-0.3-1.3-0.2-0.7-0.3-1.4-0.1-0.6-0.2-1.3 0-0.7-0.1-1.4 0-0.7 0-1.4 0.1-0.7 0.1-1.3 0.1-0.7 0.2-1.4 0.1-0.7 0.2-1.4 0.2-0.6 0.4-1.3 0.1-0.6 0.4-1.3 0.2-0.6 0.5-1.3 0.2-0.6 0.5-1.2 0.3-0.6 0.7-1.2 0.3-0.6 0.7-1.2 0.4-0.6 0.8-1.1 0.4-0.6 0.8-1.1 0.5-0.5 1-1 0.4-0.5 0.9-1 0.5-0.5 1.1-0.9 0.5-0.4 1.1-0.8 0.5-0.4 1.1-0.8 0.6-0.4 1.2-0.7 0.6-0.3 1.2-0.6 0.6-0.3 1.3-0.5 0.6-0.3 1.3-0.5 0.6-0.2 1.3-0.4 0.6-0.2 1.3-0.3 0.7-0.1 1.4-0.2 0.6-0.1 1.3-0.2 0.7 0 1.4 0 0.7 0 1.4 0 0.7 0 1.3 0.1 0.7 0.1 1.4 0.2 0.7 0.1 1.4 0.3 0.6 0.2 1.3 0.4 0.6 0.2 1.3 0.4 0.6 0.2 1.2 0.5 0.7 0.3 1.3 0.6 0.6 0.3 1.2 0.7 0.6 0.4 1.1 0.7 0.6 0.4 1.1 0.9 0.6 0.4 1.1 0.8 0.5 0.5 1 1 0.5 0.5 0.9 1 0.5 0.5 0.9 1 0.4 0.6 0.8 1.2 0.4 0.5 0.7 1.1 0.4 0.6 0.7 1.2 0.3 0.6 0.6 1.3 0.3 0.6 0.5 1.2 0.2 0.7 0.4 1.3 0.2 0.7 0.4 1.4 0.2 0.6 0.3 1.3 0.1 0.7 0.2 1.4 0 0.6 0.1 1.3 0 0.7 0 1.4 0 0.7-0.1 1.4 0 0.7-0.1 1.3-0.1 0.7-0.3 1.4-0.1 0.7-0.3 1.3-0.1 0.7-0.4 1.3-0.2 0.7-0.4 1.3-0.3 0.7-0.6 1.3-0.3 0.6-0.6 1.2-0.3 0.6-0.7 1.2-0.4 0.6-0.8 1.1-0.4 0.6-0.8 1.1-0.5 0.5-0.9 1-0.5 0.5-1 1-0.5 0.5-1 0.9-0.6 0.5-1.1 0.9-0.6 0.4-1.1 0.8-0.6 0.3-1.2 0.7-0.6 0.3-1.2 0.6l1 11q0 0.2 0 0.4-0.1 0.2-0.2 0.3-0.2 0.2-0.4 0.2-0.1 0.1-0.3 0.1zm-8.4-10.8q0.2 0 0.4 0.2l8 9.6-1.1-11.2q-0.1-0.4 0.2-0.5l0.2-0.1q0.6-0.3 1.2-0.6 0.6-0.4 1.1-0.7 0.6-0.4 1.1-0.8 0.6-0.3 1.1-0.8 0.5-0.4 1-0.8 0.4-0.5 0.9-1 0.4-0.4 0.9-0.9 0.4-0.6 0.8-1.1 0.4-0.5 0.7-1.1 0.4-0.5 0.7-1.1 0.3-0.6 0.6-1.2 0.3-0.6 0.5-1.2 0.3-0.6 0.5-1.2 0.2-0.6 0.4-1.3 0.1-0.6 0.3-1.2 0.1-0.7 0.2-1.3 0.1-0.7 0.1-1.4 0.1-0.6 0.1-1.3 0-0.6 0-1.3 0-0.6-0.1-1.3-0.1-0.7-0.2-1.3-0.1-0.6-0.2-1.3-0.2-0.6-0.4-1.3-0.2-0.6-0.4-1.2-0.2-0.6-0.5-1.2-0.3-0.6-0.6-1.2-0.3-0.6-0.6-1.2-0.3-0.5-0.7-1.1-0.4-0.5-0.8-1-0.4-0.6-0.8-1.1-0.4-0.5-0.9-0.9-0.5-0.5-1-0.9-0.5-0.5-1-0.9-0.5-0.4-1-0.8-0.6-0.3-1.1-0.7-0.6-0.3-1.2-0.6-0.6-0.3-1.2-0.6-0.6-0.3-1.2-0.5-0.6-0.2-1.2-0.4-0.7-0.2-1.3-0.4-0.7-0.1-1.3-0.2-0.6-0.1-1.3-0.2-0.7-0.1-1.3-0.1-0.7 0-1.3 0-0.7 0-1.3 0-0.7 0.1-1.4 0.2-0.6 0-1.3 0.2-0.6 0.1-1.2 0.3-0.7 0.1-1.3 0.3-0.6 0.2-1.2 0.5-0.7 0.2-1.2 0.5-0.6 0.3-1.2 0.6-0.6 0.3-1.1 0.7-0.6 0.3-1.1 0.7-0.6 0.4-1.1 0.8-0.5 0.4-1 0.9-0.5 0.4-0.9 0.9-0.5 0.5-0.9 1-0.4 0.5-0.8 1-0.4 0.6-0.7 1.1-0.4 0.6-0.7 1.1-0.4 0.6-0.6 1.2-0.3 0.6-0.6 1.2-0.2 0.6-0.4 1.2-0.3 0.7-0.4 1.3-0.2 0.6-0.3 1.3-0.2 0.6-0.3 1.3-0.1 0.6-0.1 1.3-0.1 0.6-0.1 1.3 0 0.7 0 1.3 0.1 0.7 0.1 1.3 0.1 0.7 0.2 1.3 0.1 0.7 0.2 1.3 0.2 0.7 0.4 1.3 0.2 0.6 0.4 1.2 0.2 0.7 0.5 1.3 0.2 0.6 0.5 1.2 0.3 0.5 0.7 1.1 0.3 0.6 0.7 1.1 0.3 0.6 0.7 1.1 0.4 0.5 0.9 1 0.4 0.5 0.9 1 0.4 0.5 0.9 0.9 0.5 0.4 1 0.8 0.5 0.5 1.1 0.8 0.5 0.4 1.1 0.7 0.5 0.4 1.1 0.7 0.6 0.3 1.2 0.6 0.6 0.2 1.2 0.5 0.6 0.2 1.3 0.4 0.6 0.2 1.2 0.4 0.7 0.1 1.3 0.2 0.7 0.1 1.3 0.2 0.7 0.1 1.3 0.1 0.7 0.1 1.4 0.1 0.6 0 1.3-0.1z"/><path class="b" d="m171.7 103.8q-0.2 0-0.4-0.1l-4.1-4.2q-0.2-0.1-0.2-0.3 0-0.2 0.2-0.4l19.8-19.8q0.2-0.2 0.4-0.2 0.2 0 0.4 0.2l4.1 4.1q0.2 0.2 0.2 0.4 0 0.2-0.2 0.3l-19.9 19.9q-0.1 0.1-0.3 0.1z"/><path class="b" d="m187.4 103.8q-0.2 0-0.4-0.1l-19.8-19.9q-0.2-0.1-0.2-0.3 0-0.2 0.2-0.4l4.1-4.1q0.2-0.2 0.4-0.2 0.2 0 0.3 0.2l19.9 19.8q0.2 0.2 0.2 0.4 0 0.2-0.2 0.3l-4.1 4.2q-0.2 0.1-0.4 0.1z"/><path class="c" d="m127.2 93.2q-0.9-2.3-2.8-3.7c0 0-1.1-0.7-6.1-1.8q-11.1-6.2-22.2-12.4-8.2-8-14.7-17.5c-1.4-2-2.8-4.5-5.9-6.7-4.6-3.2-8.5-1.5-12.2-1.3 0.6 3.3 0.4 6 2.8 11.1 5 10.5 12 16.5 15.4 19.4q6.1 5.1 13.4 8.7 7.2 3.5 15.1 5.2c0 0 6.1 1.5 7.9 3.6 1.8 2 1.9 2.4 3.6 2 1.7-0.5 2.3-1 1.5-1.5-1-0.5-1.5-2.8-0.6-4.2 0.8-1.3 2.9-1.9 4.8-0.9z"/><path class="d" d="m120.5 100.4c-1 0-1.5-0.5-2.5-1.8l-0.5-0.5c-1.6-1.9-7.6-3.5-7.7-3.5q-7.9-1.6-15.2-5.2-7.2-3.6-13.4-8.8c-3.1-2.6-10.4-8.8-15.5-19.4q-2.1-4.2-2.5-8.9c-0.2-0.8-0.3-1.6-0.4-2.4q-0.1-0.3 0.1-0.4 0.1-0.2 0.3-0.2c0.9-0.1 1.7-0.2 2.6-0.3 2.9-0.4 6.2-0.9 10 1.7 2.7 1.9 4.3 4.2 5.5 6.1q0.2 0.4 0.5 0.7 6.4 9.4 14.6 17.4l22.1 12.3c4.8 1.1 6 1.8 6.1 1.9q2.1 1.5 3 3.9 0.1 0.3-0.1 0.6-0.3 0.2-0.6 0c-1.6-0.8-3.5-0.3-4.1 0.8q-0.7 1.1-0.3 2.4 0.1 0.7 0.7 1.1c0.6 0.3 0.6 0.7 0.6 0.9-0.1 0.6-0.8 1.1-2.2 1.4q-0.6 0.2-1.1 0.2zm-10.4-6.7c0.6 0.1 6.4 1.7 8.2 3.8l0.4 0.5c1.4 1.6 1.4 1.6 2.6 1.3q0.8-0.2 1.4-0.5-0.9-0.6-1.1-1.8-0.5-1.6 0.3-3.2c0.9-1.3 2.6-1.8 4.3-1.5q-0.8-1.4-2.1-2.4c0 0-1.2-0.7-5.9-1.7q-0.1 0-0.1-0.1l-22.3-12.3q0-0.1-0.1-0.1-8.2-8.1-14.7-17.6-0.3-0.4-0.5-0.8c-1.3-1.8-2.7-3.9-5.3-5.8-3.4-2.4-6.4-1.9-9.3-1.5q-1 0.1-2 0.2 0.1 1 0.2 2 0.5 4.5 2.5 8.5c5 10.5 12.2 16.6 15.2 19.2q6.1 5.1 13.3 8.6 7.1 3.5 15 5.2 0 0 0 0z"/><path class="a" d="m64.6 47.1c0 0 6.5-1.3 13.2 4.5 4.8 4.1 14.9 19.4 14.9 19.4 0 0-2.7 8.5-8.6 12.2l-10.9-9.4c-11.6-7.2-17.2-16.9-14.9-23 0.5-1.3 3.6-2.1 6.3-3.7z"/><path class="c" d="m58.4 145.3q-0.2 0-0.3-0.1-0.2-0.2-0.2-0.4l-0.6-14.9-2.4-6.5q-0.1-0.2 0-0.4 0.1-0.2 0.3-0.3 0.2-0.1 0.3 0 0.2 0.1 0.3 0.3l2.5 6.6q0 0.1 0 0.1l0.6 15.1q0 0.2-0.1 0.3-0.2 0.2-0.4 0.2z"/><path class="c" d="m79.6 76.2q-0.2 0-0.4-0.2-0.1-0.1-0.1-0.3l-0.5-17.1q0-0.2 0.1-0.4 0.1-0.1 0.4-0.1 0.2 0 0.3 0.1 0.1 0.1 0.2 0.4l0.5 17.1q0 0.2-0.2 0.3-0.1 0.2-0.3 0.2z"/><path class="c" d="m37.6 49.4c-8.4 4.6-24.8 11.3-24.5 21.6 0.1 2.8 1.3 4.7 3.8 8.5q5.8 8.7 14.6 14.5 0.5 1 0.8 2c1.1 3.7-0.5 6.5 1.1 7.9 0.3 0.3 1 0.7 2.3 0.6 0.3-1.3 1.7-6.2 3.2-9.9 0.3-0.8 0.6-1.7 1.4-2 1.2-0.5 2.3 0.6 3.9-0.1 0.4-0.1 0.9-0.3 1-0.7 0.2-1.1-2.5-2.7-4.8-3.4q-0.9-0.3-1.9-0.4-5.6-9.1-11.2-18.3c4.1-1 17-4.9 23.2-16.7q1.6-3 2.4-6.3c0 0-8.3-1.1-15.3 2.7z"/><path class="d" d="m35.3 105q-1.3 0.1-2.3-0.7c-1-0.9-0.9-2.2-0.8-3.8q0.2-2.2-0.4-4.3-0.2-1-0.7-1.9-8.8-5.8-14.6-14.6c-2.5-3.7-3.8-5.7-3.9-8.7-0.3-9.1 11.9-15.4 20.8-19.9 1.4-0.8 2.8-1.5 4-2.1 7-3.9 15.2-2.8 15.6-2.8q0.2 0.1 0.3 0.3 0.1 0.1 0.1 0.4-0.9 3.3-2.4 6.3c-5.6 10.7-16.5 15.1-22.9 16.8l10.7 17.5q0.9 0.2 1.7 0.4c1.8 0.6 5.6 2.3 5.2 4-0.1 0.6-0.9 0.9-1.3 1.1q-1.3 0.4-2.5 0.1-0.7-0.3-1.4 0c-0.6 0.2-0.9 0.8-1.2 1.6-1.3 3.5-2.6 8.1-3.1 9.9q-0.1 0.3-0.5 0.4-0.2 0-0.4 0zm14.6-57.9c-3 0-7.8 0.4-12 2.7-1.2 0.7-2.6 1.4-4.1 2.1-8.6 4.5-20.4 10.6-20.2 19.1 0 2.6 1.2 4.4 3.7 8.2q5.7 8.7 14.4 14.4 0.1 0.1 0.2 0.2 0.6 1 0.9 2.1 0.6 2.3 0.4 4.7c-0.1 1.4-0.2 2.3 0.5 2.9q0.7 0.6 1.6 0.5c0.6-2 1.8-6.3 3.1-9.6 0.3-0.8 0.7-1.8 1.7-2.2q1-0.4 2-0.1 0.9 0.3 1.9 0c0.2-0.1 0.7-0.3 0.7-0.4 0.1-0.5-1.8-2-4.5-2.8q-0.8-0.3-1.7-0.4-0.3 0-0.4-0.3l-11.2-18.2q-0.1-0.1-0.1-0.2 0-0.2 0.1-0.3 0-0.1 0.1-0.1 0.1-0.1 0.2-0.2c6.1-1.5 17.3-5.8 22.9-16.4q1.4-2.7 2.2-5.6c-0.5-0.1-1.3-0.1-2.4-0.1z"/><path class="a" d="m52.7 46.2c0 0-7.3-0.8-11.8 0.7-4.5 1.6-17.3 9.6-17.3 9.6 0 0 3.4 8.5 8.4 12.5 0 0 11.4-2 17.4-8 6-6.1 6.3-14.7 3.3-14.8z"/><path class="c" d="m38.7 67.7q-0.1 0-0.1 0-0.2 0-0.3-0.2-0.1-0.2-0.1-0.4l1.5-11.4q0-0.3 0.2-0.4 0.1-0.1 0.3-0.1 0.2 0 0.4 0.2 0.1 0.2 0.1 0.4l-1.5 11.5q-0.1 0.2-0.2 0.3-0.1 0.1-0.3 0.1z"/><path class="c" d="m77.4 23.6q0-1.6-0.4-3.1-0.3-1.6-0.9-3.1-0.7-1.4-1.5-2.8-0.9-1.3-2-2.5-1.1-1.1-2.4-2.1-1.3-0.9-2.8-1.6-1.4-0.7-3-1.1-1.5-0.4-3.1-0.6-1.6-0.1-3.2 0.1-1.6 0.1-3.1 0.6-1.6 0.4-3 1.1-1.4 0.8-2.7 1.7-1.3 1-2.4 2.2-1.1 1.1-1.9 2.5-0.9 1.4-1.5 2.8-0.5 1.5-0.9 3.1-0.4-0.2-0.8-0.2-0.4-0.1-0.8-0.1-0.5 0-0.9 0.2-0.4 0.1-0.8 0.3-0.3 0.3-0.6 0.6-0.3 0.3-0.5 0.7-0.3 0.4-0.4 0.8-0.1 0.4-0.1 0.8 0 0.5 0.1 0.9 0.1 0.4 0.3 0.8 0.2 0.4 0.5 0.7 0.3 0.3 0.6 0.6 0.4 0.2 0.8 0.4 0.4 0.1 0.8 0.2 0.5 0 0.9 0 0.4-0.1 0.8-0.3c0.1 0.8 1.2 9.3 9 13.6q2 1 4.1 1.5 2.2 0.6 4.5 0.5 2.2 0 4.3-0.6 2.2-0.6 4.1-1.8 2.6-1.5 4.5-3.9 1.9-2.4 3-5.2 0.1-0.5 0.3-0.9 0.4 0.2 0.7 0.2 0.4 0.1 0.8 0 0.4 0 0.8-0.1 0.3-0.1 0.7-0.3 0.3-0.2 0.6-0.5 0.3-0.2 0.5-0.6 0.2-0.3 0.4-0.6 0.1-0.4 0.2-0.8 0-0.4 0-0.8 0-0.3-0.1-0.7-0.1-0.4-0.3-0.7-0.2-0.4-0.4-0.7-0.3-0.3-0.6-0.5-0.3-0.2-0.7-0.4-0.3-0.1-0.7-0.2-0.4-0.1-0.8-0.1z"/><path class="d" d="m59.8 43.3q-4.6 0-8.5-2.1c-7.1-3.9-8.8-11.1-9.2-13.3q-0.4 0.1-0.7 0.1-0.8 0-1.6-0.3-0.7-0.3-1.3-0.8-0.6-0.5-0.9-1.3-0.3-0.7-0.3-1.5-0.1-0.8 0.2-1.5 0.3-0.7 0.8-1.3 0.6-0.6 1.3-0.9 0.7-0.4 1.5-0.4 0.6 0 1.2 0.1 0.3-1.5 1-3 0.6-1.5 1.5-2.8 0.9-1.4 2-2.5 1.1-1.2 2.4-2.2 1.3-0.9 2.8-1.6 1.5-0.7 3-1.2 1.6-0.4 3.2-0.5 1.6-0.2 3.2-0.1 1.6 0.2 3.2 0.6 1.5 0.4 3 1.1 1.4 0.7 2.7 1.6 1.4 1 2.5 2.1 1.1 1.2 2 2.5 0.9 1.4 1.6 2.8 0.6 1.5 1 3.1 0.4 1.6 0.5 3.2 0.7 0 1.4 0.4 0.7 0.3 1.2 0.9 0.5 0.6 0.8 1.3 0.2 0.7 0.2 1.5 0 0.7-0.3 1.4-0.3 0.7-0.8 1.3-0.6 0.5-1.3 0.8-0.7 0.3-1.4 0.3-0.6 0.1-1.1-0.1-0.1 0.2-0.2 0.4-1 3-3 5.4-2 2.4-4.6 4.1-4.2 2.4-9 2.4zm-17.3-16.5q0.2 0 0.4 0.1 0.1 0.1 0.1 0.3c0.1 0.9 1.2 9 8.8 13.1q1.9 1.1 4 1.6 2.1 0.5 4.2 0.4 2.2 0 4.3-0.6 2.1-0.6 4-1.7 2.5-1.5 4.3-3.8 1.9-2.3 2.9-5.1 0.2-0.4 0.3-0.8 0.1-0.2 0.3-0.3 0.2-0.1 0.4 0 0.3 0.1 0.6 0.1 0.3 0.1 0.7 0 0.3 0 0.6-0.1 0.3-0.1 0.6-0.2 0.3-0.2 0.6-0.4 0.2-0.3 0.4-0.5 0.2-0.3 0.3-0.6 0.1-0.3 0.2-0.7 0-0.3 0-0.6 0-0.4-0.1-0.7-0.1-0.3-0.2-0.6-0.2-0.3-0.4-0.5-0.2-0.3-0.5-0.5-0.3-0.2-0.6-0.3-0.3-0.1-0.6-0.2-0.3-0.1-0.7-0.1-0.2 0-0.3-0.1-0.2-0.1-0.2-0.3 0-1.6-0.4-3.1-0.3-1.5-0.9-3-0.6-1.4-1.5-2.7-0.8-1.3-1.9-2.4-1.1-1.2-2.3-2.1-1.3-0.9-2.7-1.6-1.4-0.6-2.9-1-1.5-0.5-3-0.6-1.6-0.1-3.2 0.1-1.5 0.1-3 0.5-1.5 0.5-2.9 1.2-1.4 0.7-2.6 1.6-1.3 0.9-2.3 2.1-1.1 1.1-1.9 2.5-0.8 1.3-1.4 2.7-0.6 1.5-0.9 3 0 0.2-0.2 0.3-0.2 0.1-0.5 0.1-0.6-0.3-1.3-0.3-0.3 0-0.6 0.1-0.3 0.1-0.6 0.2-0.3 0.2-0.6 0.4-0.2 0.2-0.5 0.4-0.2 0.3-0.3 0.6-0.1 0.3-0.2 0.6-0.1 0.3-0.1 0.7 0 0.3 0.1 0.6 0 0.3 0.2 0.6 0.1 0.3 0.3 0.6 0.2 0.3 0.5 0.5 0.2 0.2 0.5 0.4 0.3 0.1 0.6 0.2 0.3 0.1 0.7 0.1 0.3 0 0.6 0 0.3-0.1 0.6-0.2 0.1 0 0.2 0z"/><path class="b" d="m47.6 22.1q-0.3 0-0.4-0.3-0.2-0.3 0.1-0.5 0.8-0.7 1.7-1.2 1-0.5 2-0.7 1.1-0.1 2.1 0 1.1 0.1 2.1 0.4 0.2 0.1 0.2 0.3 0.1 0.2 0 0.4-0.1 0.2-0.2 0.2-0.2 0.1-0.4 0-0.9-0.3-1.8-0.4-0.9-0.1-1.8 0.1-0.9 0.2-1.8 0.6-0.8 0.4-1.5 1-0.1 0.1-0.3 0.1z"/><path class="b" d="m54.6 25.5q0 0.4-0.1 0.8-0.2 0.3-0.4 0.6-0.3 0.2-0.6 0.4-0.4 0.1-0.8 0.1-0.3 0-0.7-0.1-0.3-0.2-0.6-0.4-0.3-0.3-0.4-0.6-0.1-0.4-0.1-0.8 0-0.3 0.1-0.7 0.1-0.3 0.4-0.6 0.3-0.2 0.6-0.4 0.4-0.1 0.7-0.1 0.4 0 0.8 0.1 0.3 0.2 0.6 0.4 0.2 0.3 0.4 0.6 0.1 0.4 0.1 0.7z"/><path class="b" d="m71.2 22.5q-0.2 0-0.3-0.2-0.6-0.5-1.3-1-0.7-0.4-1.5-0.5-0.7-0.2-1.5-0.2-0.9 0.1-1.6 0.3-0.2 0.1-0.4 0-0.2 0-0.2-0.2-0.1-0.2 0-0.4 0.1-0.2 0.2-0.3 1.9-0.7 3.8-0.2 1.9 0.5 3.2 1.9 0.2 0.2 0.1 0.5-0.2 0.3-0.5 0.3z"/><path class="b" d="m69.3 25.6q0 0.4-0.1 0.8-0.1 0.3-0.4 0.6-0.3 0.2-0.6 0.4-0.4 0.1-0.7 0.1-0.4 0-0.8-0.1-0.3-0.2-0.6-0.4-0.2-0.3-0.4-0.6-0.1-0.4-0.1-0.8 0-0.3 0.1-0.7 0.2-0.3 0.4-0.6 0.3-0.3 0.6-0.4 0.4-0.1 0.8-0.1 0.3 0 0.7 0.1 0.3 0.1 0.6 0.4 0.3 0.3 0.4 0.6 0.1 0.4 0.1 0.7z"/><path class="b" d="m60 30.5q-0.6 0-1.1 0-0.2 0-0.3-0.2-0.1-0.2-0.1-0.4 0-0.2 0.2-0.3 0.1-0.1 0.3-0.1c1.1 0.1 2.2 0 2.3-0.2 0.1-0.4-0.5-2.7-1.2-4.6q-0.1-0.2 0-0.4 0.1-0.1 0.3-0.2 0.2-0.1 0.4 0 0.1 0.1 0.2 0.3c0.8 2.1 1.6 4.7 1.1 5.5-0.3 0.5-1.3 0.6-2.1 0.6z"/><path class="a" d="m49.9 28.5q0.5 0.1 1 0.2 0.5 0.2 0.8 0.4 0.4 0.3 0.6 0.6 0.1 0.3 0.1 0.7 0 0.3-0.2 0.6-0.2 0.3-0.6 0.5-0.4 0.2-0.9 0.3-0.4 0.2-1 0.1-0.5 0-0.9-0.2-0.5-0.1-0.9-0.4-0.3-0.2-0.5-0.5-0.2-0.4-0.2-0.7 0-0.3 0.3-0.6 0.2-0.3 0.5-0.6 0.4-0.2 0.9-0.3 0.5-0.1 1-0.1z"/><path class="a" d="m69 29q0.5 0 0.9 0.2 0.5 0.1 0.9 0.4 0.3 0.2 0.5 0.6 0.2 0.3 0.2 0.6 0 0.4-0.3 0.7-0.2 0.3-0.5 0.5-0.4 0.2-0.9 0.3-0.5 0.1-1 0.1-0.5 0-1-0.2-0.5-0.1-0.8-0.4-0.4-0.3-0.6-0.6-0.1-0.3-0.1-0.6 0-0.4 0.2-0.7 0.2-0.3 0.6-0.5 0.4-0.2 0.9-0.3 0.4-0.1 1-0.1z"/><g clip-path="url(#cp12)"><path class="b" d="m40.5 20.6q0.7 0 1.2 0.4 0.5 0.4 0.8 1c0.6 1.3 2.8 1.6 3.6-2 0.9-3.5 5.6-11.1 11.3-12.1 0 0 0.7 6.9 8.4 7.3 7.6 0.4 8.5 8.9 9.4 9.6 1 0.7 1.9-1 2.8-1.1 0.9-0.2 2.3 1.4 2.3 1.4 1.7-3.4 3.2-7.7 1.4-10.8-1-1.6-2-1.5-5.3-3.7-6.8-4.4-7.4-8.1-11.6-8.7-1.3-0.2-3.3-0.1-6 1.5-8.7 0.6-15.2 2.7-17 5.2q-1.1 1.4-1.5 3.2c-0.1 1.5 0.4 2.2 0.6 3.8q0.4 2.5-0.4 5z"/></g><path class="b" d="m41.6 25.9q-0.2 0-0.3-0.1-0.8-0.5-0.9-1.4-0.1-0.6 0.2-1.2h-1.2q-0.2 0-0.3-0.2-0.2-0.1-0.2-0.3 0-0.2 0.2-0.4 0.1-0.1 0.3-0.1h2.2q0.3 0 0.4 0.3 0.2 0.3-0.1 0.5-0.5 0.6-0.5 1.3 0 0.5 0.5 0.7 0.3 0.2 0.2 0.5-0.1 0.4-0.5 0.4z"/><path class="b" d="m77 29.5q-0.3 0-0.4-0.4-0.2-0.3 0.1-0.5 0.5-0.3 0.5-0.7 0-0.8-0.5-1.4-0.3-0.2-0.1-0.5 0.1-0.3 0.4-0.3h2.5q0.2 0 0.3 0.1 0.1 0.2 0.1 0.4 0 0.2-0.1 0.3-0.1 0.2-0.3 0.2h-1.6q0.3 0.6 0.3 1.2-0.1 1-0.9 1.5-0.1 0.1-0.3 0.1z"/><path class="b" d="m60 36.3q-0.2 0-0.3-0.1-0.9-1-2.1-1.4-1.2-0.4-2.4-0.1-0.2 0.1-0.4 0-0.2-0.1-0.2-0.3-0.1-0.2 0-0.4 0.1-0.2 0.3-0.2 0.7-0.2 1.5-0.2 0.8 0 1.5 0.3 0.7 0.2 1.4 0.6 0.6 0.4 1.1 1 0.2 0.2 0.1 0.5-0.1 0.3-0.5 0.3z"/><path class="c" d="m45.4 13.9q0 0-0.1 0-0.2 0-0.3-0.2-0.1-0.1-0.1-0.3c0-0.1 1.1-5.7 7.7-7.2q0.2-0.1 0.4 0.1 0.2 0.1 0.2 0.3 0.1 0.2 0 0.3-0.2 0.2-0.4 0.3c-5.9 1.3-6.9 6.3-6.9 6.3q0 0.2-0.2 0.3-0.1 0.1-0.3 0.1z"/><path class="c" d="m71.2 13.9c-7.6-0.3-10.1-5.5-10.2-5.7q-0.1-0.2-0.1-0.4 0.1-0.2 0.3-0.2 0.2-0.1 0.4-0.1 0.2 0.1 0.3 0.3 0.7 1.4 2 2.4c1.9 1.7 4.4 2.6 7.4 2.8q0.2 0 0.3 0.1 0.1 0.2 0.1 0.4 0 0.2-0.1 0.3-0.2 0.2-0.4 0.1z"/><path class="c" d="m69.6 10.2q-1.9-0.1-3.5-0.9-0.2-0.1-0.2-0.2-0.1-0.2 0-0.4 0.1-0.2 0.3-0.3 0.2 0 0.3 0.1c0.1 0 2.3 1.2 4.6 0.5q0.2-0.1 0.4 0 0.1 0.1 0.2 0.3 0.1 0.2 0 0.4-0.1 0.1-0.3 0.2-0.9 0.3-1.8 0.3z"/><path class="b" d="m74.7 217.7q-0.4 0-0.5-0.3-0.1-0.3 0.1-0.5c0.1-0.2 3.8-4.3 11-2.9q0.2 0.1 0.3 0.2 0.1 0.2 0.1 0.4-0.1 0.2-0.2 0.3-0.2 0.1-0.4 0.1c-6.6-1.3-10 2.5-10.1 2.5q-0.1 0.2-0.3 0.2z"/><path class="b" d="m27.3 70.2q-0.1 0-0.2-0.1c-3.2-1.8-7.3-2.4-7.4-2.4q-0.2 0-0.3-0.2-0.1-0.2-0.1-0.4 0.1-0.2 0.2-0.3 0.2-0.1 0.4-0.1c0.2 0 4.3 0.6 7.7 2.6q0.3 0.2 0.2 0.6-0.1 0.3-0.5 0.3z"/><path class="b" d="m91.4 78.7q-0.3 0-0.5-0.3-0.1-0.3 0.1-0.5c0.1-0.1 2.1-2.7 5-3.1q0.2 0 0.4 0.1 0.1 0.2 0.2 0.4 0 0.2-0.1 0.3-0.2 0.2-0.4 0.2c-2.5 0.3-4.3 2.7-4.3 2.7q-0.2 0.2-0.4 0.2z"/><path  d="m77.3 126.3q-0.3 0-0.4-0.1-0.2-0.2-0.2-0.4 0-0.3 0.2-0.5 0.1-0.1 0.4-0.1 0.3 0 0.4 0.1 0.2 0.2 0.2 0.5 0 0.2-0.2 0.4-0.1 0.1-0.4 0.1z"/></svg>