<svg xmlns="http://www.w3.org/2000/svg" xmlns:xlink="http://www.w3.org/1999/xlink" width="140" zoomAndPan="magnify" viewBox="0 0 104.88 30.000001" height="40" preserveAspectRatio="xMidYMid meet" version="1.0"><defs><g/><clipPath id="a173e7d1e7"><path d="M 1.632812 2 L 26.570312 2 L 26.570312 27 L 1.632812 27 Z M 1.632812 2 " clip-rule="nonzero"/></clipPath></defs><g clip-path="url(#a173e7d1e7)"><path fill="#e70707" d="M 26.253906 25.980469 L 19.171875 11.734375 C 17.085938 13.601562 15.25 16.871094 15.355469 19.554688 L 17.496094 23.78125 C 17.574219 23.933594 17.703125 24.050781 17.863281 24.109375 L 25.414062 26.917969 C 25.988281 27.128906 26.527344 26.53125 26.253906 25.980469 Z M 13.542969 18.195312 C 13.527344 18.222656 13.507812 18.25 13.496094 18.28125 L 10.804688 23.730469 C 10.730469 23.886719 10.597656 24.007812 10.433594 24.066406 L 2.746094 26.925781 C 2.175781 27.140625 1.636719 26.546875 1.902344 25.996094 L 13.3125 2.402344 C 13.558594 1.894531 14.277344 1.890625 14.527344 2.394531 L 18.929688 11.25 C 16.515625 12.972656 14.625 15.382812 13.542969 18.195312 " fill-opacity="1" fill-rule="nonzero"/></g><g fill="#04274d" fill-opacity="1"><g transform="translate(27.724058, 17.673728)"><g><path d="M 3.375 -6.953125 L 3.375 0 L 0.8125 0 L 0.8125 -11.203125 L 3.375 -11.203125 L 7.828125 -4.25 L 7.84375 -4.25 L 7.84375 -11.203125 L 10.40625 -11.203125 L 10.40625 0 L 7.84375 0 L 3.390625 -6.953125 Z M 3.375 -6.953125 "/></g></g></g><g fill="#04274d" fill-opacity="1"><g transform="translate(38.931384, 17.673728)"><g><path d="M 11.296875 0 L 8 0 L 5.34375 -3.8125 L 2.703125 0 L -0.46875 0 L 3.78125 -6.03125 L 0.25 -11.203125 L 3.28125 -11.203125 L 5.34375 -8.140625 L 7.40625 -11.203125 L 10.59375 -11.203125 L 6.921875 -6.03125 Z M 11.296875 0 "/></g></g></g><g fill="#04274d" fill-opacity="1"><g transform="translate(49.758803, 17.673728)"><g><path d="M 0.109375 -8.96875 L 0.109375 -11.203125 L 7.984375 -11.203125 L 7.984375 -8.96875 L 5.328125 -8.96875 L 5.328125 0 L 2.765625 0 L 2.765625 -8.96875 Z M 0.109375 -8.96875 "/></g></g></g><g fill="#04274d" fill-opacity="1"><g transform="translate(57.845441, 17.673728)"><g/></g></g><g fill="#04274d" fill-opacity="1"><g transform="translate(61.549555, 17.673728)"><g><path d="M 11.015625 0 L 7.5 0 L 3.375 -4.75 L 3.375 0 L 0.8125 0 L 0.8125 -11.203125 L 3.375 -11.203125 L 3.375 -6.625 L 7.203125 -11.203125 L 10.3125 -11.203125 L 5.796875 -5.890625 Z M 11.015625 0 "/></g></g></g><g fill="#04274d" fill-opacity="1"><g transform="translate(72.227723, 17.673728)"><g><path d="M 6.5 -11.203125 L 11.03125 0 L 8.28125 0 L 7.453125 -2.234375 L 3.1875 -2.234375 L 2.359375 0 L -0.375 0 L 4.140625 -11.203125 Z M 6.578125 -4.484375 L 5.34375 -7.734375 L 5.3125 -7.734375 L 4.0625 -4.484375 Z M 6.578125 -4.484375 "/></g></g></g><g fill="#04274d" fill-opacity="1"><g transform="translate(82.865187, 17.673728)"><g><path d="M 0.8125 -11.203125 L 4.8125 -11.203125 C 5.894531 -11.203125 6.773438 -10.914062 7.453125 -10.34375 C 8.128906 -9.769531 8.46875 -8.945312 8.46875 -7.875 C 8.46875 -7.050781 8.257812 -6.359375 7.84375 -5.796875 C 7.4375 -5.242188 6.878906 -4.851562 6.171875 -4.625 L 10.03125 0 L 6.796875 0 L 3.375 -4.421875 L 3.375 0 L 0.8125 0 Z M 3.375 -6.234375 L 3.671875 -6.234375 C 3.898438 -6.234375 4.097656 -6.238281 4.265625 -6.25 C 4.429688 -6.257812 4.613281 -6.289062 4.8125 -6.34375 C 5.019531 -6.394531 5.1875 -6.46875 5.3125 -6.5625 C 5.445312 -6.664062 5.554688 -6.8125 5.640625 -7 C 5.734375 -7.195312 5.78125 -7.429688 5.78125 -7.703125 C 5.78125 -7.972656 5.734375 -8.203125 5.640625 -8.390625 C 5.554688 -8.578125 5.445312 -8.71875 5.3125 -8.8125 C 5.1875 -8.914062 5.019531 -8.992188 4.8125 -9.046875 C 4.613281 -9.109375 4.429688 -9.144531 4.265625 -9.15625 C 4.097656 -9.164062 3.898438 -9.171875 3.671875 -9.171875 L 3.375 -9.171875 Z M 3.375 -6.234375 "/></g></g></g><g fill="#04274d" fill-opacity="1"><g transform="translate(92.580013, 17.673728)"><g><path d="M 0.109375 -8.96875 L 0.109375 -11.203125 L 7.984375 -11.203125 L 7.984375 -8.96875 L 5.328125 -8.96875 L 5.328125 0 L 2.765625 0 L 2.765625 -8.96875 Z M 0.109375 -8.96875 "/></g></g></g><g fill="#e70707" fill-opacity="1"><g transform="translate(65.019794, 25.286707)"><g><path d="M 1.3125 0 L 1.3125 -3.40625 L 0.203125 -3.40625 L 0.203125 -4 L 3.078125 -4 L 3.078125 -3.40625 L 1.9375 -3.40625 L 1.9375 0 Z M 1.3125 0 "/></g></g></g><g fill="#e70707" fill-opacity="1"><g transform="translate(68.30374, 25.286707)"><g><path d="M 0.5625 -4 L 3.078125 -4 L 3.078125 -3.40625 L 1.171875 -3.40625 L 1.171875 -2.34375 L 2.765625 -2.34375 L 2.765625 -1.75 L 1.171875 -1.75 L 1.171875 -0.59375 L 3.078125 -0.59375 L 3.078125 0 L 0.5625 0 Z M 0.5625 -4 "/></g></g></g><g fill="#e70707" fill-opacity="1"><g transform="translate(71.804337, 25.286707)"><g><path d="M 3.59375 -0.484375 C 3.507812 -0.398438 3.394531 -0.316406 3.25 -0.234375 C 3.113281 -0.148438 2.953125 -0.078125 2.765625 -0.015625 C 2.585938 0.0351562 2.390625 0.0625 2.171875 0.0625 C 1.816406 0.0625 1.492188 -0.0195312 1.203125 -0.1875 C 0.921875 -0.363281 0.695312 -0.601562 0.53125 -0.90625 C 0.363281 -1.21875 0.28125 -1.582031 0.28125 -2 C 0.28125 -2.289062 0.328125 -2.554688 0.421875 -2.796875 C 0.523438 -3.046875 0.664062 -3.257812 0.84375 -3.4375 C 1.03125 -3.625 1.242188 -3.769531 1.484375 -3.875 C 1.722656 -3.976562 1.972656 -4.03125 2.234375 -4.03125 C 2.453125 -4.03125 2.65625 -3.992188 2.84375 -3.921875 C 3.03125 -3.859375 3.191406 -3.773438 3.328125 -3.671875 C 3.472656 -3.566406 3.585938 -3.457031 3.671875 -3.34375 L 3.25 -2.90625 C 3.113281 -3.050781 2.957031 -3.171875 2.78125 -3.265625 C 2.613281 -3.359375 2.429688 -3.40625 2.234375 -3.40625 C 2.003906 -3.40625 1.785156 -3.347656 1.578125 -3.234375 C 1.378906 -3.117188 1.21875 -2.957031 1.09375 -2.75 C 0.96875 -2.539062 0.90625 -2.289062 0.90625 -2 C 0.90625 -1.675781 0.96875 -1.40625 1.09375 -1.1875 C 1.21875 -0.976562 1.382812 -0.820312 1.59375 -0.71875 C 1.8125 -0.613281 2.039062 -0.5625 2.28125 -0.5625 C 2.507812 -0.5625 2.707031 -0.601562 2.875 -0.6875 C 3.039062 -0.78125 3.175781 -0.882812 3.28125 -1 Z M 3.59375 -0.484375 "/></g></g></g><g fill="#e70707" fill-opacity="1"><g transform="translate(75.675515, 25.286707)"><g><path d="M 1.171875 -4 L 1.171875 -2.28125 L 3.171875 -2.28125 L 3.171875 -4 L 3.78125 -4 L 3.78125 0 L 3.171875 0 L 3.171875 -1.6875 L 1.171875 -1.6875 L 1.171875 0 L 0.5625 0 L 0.5625 -4 Z M 1.171875 -4 "/></g></g></g><g fill="#e70707" fill-opacity="1"><g transform="translate(80.014202, 25.286707)"><g/></g></g><g fill="#e70707" fill-opacity="1"><g transform="translate(81.610563, 25.286707)"><g><path d="M 0.703125 -1.203125 C 0.859375 -0.972656 1.019531 -0.796875 1.1875 -0.671875 C 1.363281 -0.554688 1.585938 -0.5 1.859375 -0.5 C 1.984375 -0.5 2.101562 -0.519531 2.21875 -0.5625 C 2.34375 -0.601562 2.441406 -0.660156 2.515625 -0.734375 C 2.585938 -0.816406 2.625 -0.914062 2.625 -1.03125 C 2.625 -1.21875 2.539062 -1.363281 2.375 -1.46875 C 2.21875 -1.570312 1.992188 -1.65625 1.703125 -1.71875 C 1.328125 -1.789062 1.03125 -1.921875 0.8125 -2.109375 C 0.59375 -2.296875 0.484375 -2.570312 0.484375 -2.9375 C 0.484375 -3.164062 0.546875 -3.363281 0.671875 -3.53125 C 0.796875 -3.695312 0.960938 -3.820312 1.171875 -3.90625 C 1.390625 -4 1.617188 -4.046875 1.859375 -4.046875 C 2.171875 -4.046875 2.441406 -3.984375 2.671875 -3.859375 C 2.898438 -3.742188 3.078125 -3.570312 3.203125 -3.34375 L 2.78125 -2.921875 C 2.675781 -3.085938 2.546875 -3.222656 2.390625 -3.328125 C 2.234375 -3.441406 2.050781 -3.5 1.84375 -3.5 C 1.632812 -3.5 1.457031 -3.445312 1.3125 -3.34375 C 1.164062 -3.25 1.09375 -3.117188 1.09375 -2.953125 C 1.09375 -2.753906 1.164062 -2.609375 1.3125 -2.515625 C 1.46875 -2.429688 1.671875 -2.363281 1.921875 -2.3125 C 2.148438 -2.257812 2.363281 -2.1875 2.5625 -2.09375 C 2.757812 -2 2.921875 -1.875 3.046875 -1.71875 C 3.179688 -1.570312 3.25 -1.394531 3.25 -1.1875 C 3.25 -0.800781 3.117188 -0.492188 2.859375 -0.265625 C 2.597656 -0.046875 2.242188 0.0625 1.796875 0.0625 C 1.484375 0.0625 1.203125 0 0.953125 -0.125 C 0.703125 -0.25 0.476562 -0.445312 0.28125 -0.71875 Z M 0.703125 -1.203125 "/></g></g></g><g fill="#e70707" fill-opacity="1"><g transform="translate(85.168175, 25.286707)"><g><path d="M 1.3125 0 L 1.3125 -3.40625 L 0.203125 -3.40625 L 0.203125 -4 L 3.078125 -4 L 3.078125 -3.40625 L 1.9375 -3.40625 L 1.9375 0 Z M 1.3125 0 "/></g></g></g><g fill="#e70707" fill-opacity="1"><g transform="translate(88.452121, 25.286707)"><g><path d="M 4.1875 -2 C 4.1875 -1.707031 4.140625 -1.4375 4.046875 -1.1875 C 3.953125 -0.9375 3.816406 -0.71875 3.640625 -0.53125 C 3.460938 -0.34375 3.253906 -0.195312 3.015625 -0.09375 C 2.773438 0.0078125 2.515625 0.0625 2.234375 0.0625 C 1.941406 0.0625 1.675781 0.0078125 1.4375 -0.09375 C 1.195312 -0.195312 0.988281 -0.34375 0.8125 -0.53125 C 0.644531 -0.71875 0.515625 -0.9375 0.421875 -1.1875 C 0.328125 -1.4375 0.28125 -1.707031 0.28125 -2 C 0.28125 -2.28125 0.328125 -2.546875 0.421875 -2.796875 C 0.515625 -3.046875 0.644531 -3.265625 0.8125 -3.453125 C 0.988281 -3.640625 1.195312 -3.785156 1.4375 -3.890625 C 1.675781 -3.992188 1.941406 -4.046875 2.234375 -4.046875 C 2.515625 -4.046875 2.773438 -3.992188 3.015625 -3.890625 C 3.253906 -3.785156 3.460938 -3.640625 3.640625 -3.453125 C 3.816406 -3.265625 3.953125 -3.046875 4.046875 -2.796875 C 4.140625 -2.546875 4.1875 -2.28125 4.1875 -2 Z M 3.5625 -2 C 3.5625 -2.269531 3.503906 -2.515625 3.390625 -2.734375 C 3.273438 -2.953125 3.117188 -3.125 2.921875 -3.25 C 2.722656 -3.382812 2.492188 -3.453125 2.234375 -3.453125 C 1.972656 -3.453125 1.738281 -3.382812 1.53125 -3.25 C 1.332031 -3.125 1.175781 -2.953125 1.0625 -2.734375 C 0.957031 -2.515625 0.90625 -2.269531 0.90625 -2 C 0.90625 -1.71875 0.957031 -1.46875 1.0625 -1.25 C 1.175781 -1.03125 1.332031 -0.859375 1.53125 -0.734375 C 1.738281 -0.609375 1.972656 -0.546875 2.234375 -0.546875 C 2.492188 -0.546875 2.722656 -0.609375 2.921875 -0.734375 C 3.117188 -0.859375 3.273438 -1.03125 3.390625 -1.25 C 3.503906 -1.46875 3.5625 -1.71875 3.5625 -2 Z M 3.5625 -2 "/></g></g></g><g fill="#e70707" fill-opacity="1"><g transform="translate(92.910537, 25.286707)"><g><path d="M 3.515625 -2.71875 C 3.515625 -2.476562 3.441406 -2.253906 3.296875 -2.046875 C 3.160156 -1.847656 2.976562 -1.695312 2.75 -1.59375 L 3.671875 0 L 2.9375 0 L 2.09375 -1.5 L 1.171875 -1.5 L 1.171875 0 L 0.5625 0 L 0.5625 -4 L 2.265625 -4 C 2.472656 -4 2.671875 -3.945312 2.859375 -3.84375 C 3.046875 -3.738281 3.203125 -3.585938 3.328125 -3.390625 C 3.453125 -3.203125 3.515625 -2.976562 3.515625 -2.71875 Z M 2.15625 -3.40625 L 1.171875 -3.40625 L 1.171875 -2.09375 L 2.3125 -2.09375 C 2.5 -2.09375 2.640625 -2.15625 2.734375 -2.28125 C 2.835938 -2.414062 2.890625 -2.5625 2.890625 -2.71875 C 2.890625 -2.9375 2.816406 -3.101562 2.671875 -3.21875 C 2.523438 -3.34375 2.351562 -3.40625 2.15625 -3.40625 Z M 2.15625 -3.40625 "/></g></g></g><g fill="#e70707" fill-opacity="1"><g transform="translate(96.872939, 25.286707)"><g><path d="M 0.5625 -4 L 3.078125 -4 L 3.078125 -3.40625 L 1.171875 -3.40625 L 1.171875 -2.34375 L 2.765625 -2.34375 L 2.765625 -1.75 L 1.171875 -1.75 L 1.171875 -0.59375 L 3.078125 -0.59375 L 3.078125 0 L 0.5625 0 Z M 0.5625 -4 "/></g></g></g></svg>