<svg xmlns="http://www.w3.org/2000/svg" xmlns:xlink="http://www.w3.org/1999/xlink" width="300" zoomAndPan="magnify" viewBox="0 0 224.87999 225" height="300" preserveAspectRatio="xMidYMid meet" version="1.0"><defs><g/><clipPath id="c5fe6ec49d"><path d="M 4 22 L 224.761719 22 L 224.761719 207.605469 L 4 207.605469 Z M 4 22 " clip-rule="nonzero"/></clipPath><clipPath id="9321cde589"><path d="M 0 17.207031 L 220 17.207031 L 220 203 L 0 203 Z M 0 17.207031 " clip-rule="nonzero"/></clipPath></defs><g clip-path="url(#c5fe6ec49d)"><path fill="#000000" d="M 217.507812 75.910156 C 217.585938 73.859375 219.261719 65.820312 221.089844 58.707031 L 221.179688 58.351562 L 221.25 57.988281 C 222.984375 49.035156 220.242188 39.765625 213.910156 33.1875 C 208.652344 27.734375 201.257812 24.601562 193.625 24.601562 C 192.148438 24.601562 190.65625 24.71875 189.1875 24.949219 L 188.890625 24.992188 L 188.597656 25.054688 C 178.378906 27.160156 164.992188 29.414062 161.339844 29.414062 C 156.886719 29.402344 148.183594 27.605469 140.503906 26.015625 C 131.191406 24.09375 122.398438 22.277344 115.277344 22.097656 C 114.839844 22.085938 114.390625 22.078125 113.929688 22.078125 C 106.636719 22.078125 97.296875 23.433594 88.230469 24.742188 C 81.035156 25.785156 72.875 26.964844 68.417969 26.972656 C 63.914062 26.972656 50.144531 25.382812 39.175781 23.894531 L 38.796875 23.847656 C 37.824219 23.75 36.855469 23.699219 35.894531 23.699219 C 28.054688 23.699219 20.511719 27.023438 15.203125 32.820312 C 9.128906 39.445312 6.648438 48.382812 8.398438 57.34375 L 8.46875 57.707031 L 8.5625 58.0625 C 10.421875 65.253906 12.1875 73.753906 12.257812 75.832031 C 12.265625 78.824219 10.417969 86.152344 9.070312 91.5 C 6.941406 99.949219 4.929688 107.921875 4.929688 114.847656 C 4.929688 121.773438 6.941406 129.746094 9.070312 138.191406 C 10.421875 143.539062 12.269531 150.867188 12.261719 153.785156 C 12.183594 155.839844 10.507812 163.878906 8.679688 170.992188 L 8.585938 171.347656 L 8.519531 171.707031 C 6.785156 180.660156 9.527344 189.933594 15.855469 196.507812 C 21.125 201.976562 28.507812 205.109375 36.109375 205.109375 C 37.535156 205.109375 38.972656 205 40.378906 204.785156 L 41.035156 204.679688 L 41.335938 204.609375 C 51.527344 202.511719 64.792969 200.28125 68.425781 200.28125 C 72.652344 200.292969 81.34375 202.125 88.324219 203.597656 C 98.101562 205.65625 107.335938 207.605469 114.882812 207.605469 C 122.429688 207.605469 131.664062 205.65625 141.441406 203.597656 C 148.421875 202.121094 157.109375 200.292969 161.34375 200.28125 C 165.078125 200.28125 178.496094 202.566406 188.785156 204.675781 L 189.371094 204.78125 C 190.789062 205.003906 192.230469 205.113281 193.667969 205.113281 C 201.261719 205.113281 208.640625 201.976562 213.910156 196.503906 C 220.246094 189.925781 222.96875 180.566406 221.195312 171.46875 L 221.121094 171.109375 L 221.03125 170.746094 C 219.265625 163.917969 217.585938 155.835938 217.507812 153.855469 C 217.5 150.863281 219.347656 143.535156 220.695312 138.1875 C 222.824219 129.746094 224.835938 121.773438 224.835938 114.847656 C 224.835938 107.921875 222.824219 99.949219 220.695312 91.503906 C 219.347656 86.15625 217.5 78.828125 217.507812 75.910156 Z M 217.507812 75.910156 " fill-opacity="0.35" fill-rule="nonzero"/></g><g clip-path="url(#9321cde589)"><path fill="#f2f2f2" d="M 212.621094 71.027344 C 212.699219 68.976562 214.375 60.9375 216.203125 53.824219 L 216.292969 53.46875 L 216.363281 53.105469 C 218.097656 44.152344 215.355469 34.882812 209.023438 28.304688 C 203.765625 22.851562 196.371094 19.722656 188.738281 19.722656 C 187.261719 19.722656 185.769531 19.835938 184.300781 20.066406 L 184.003906 20.113281 L 183.710938 20.171875 C 173.492188 22.277344 160.105469 24.53125 156.453125 24.53125 C 152 24.519531 143.296875 22.722656 135.617188 21.132812 C 126.304688 19.210938 117.511719 17.394531 110.390625 17.214844 C 109.953125 17.203125 109.503906 17.199219 109.042969 17.199219 C 101.75 17.199219 92.410156 18.550781 83.34375 19.859375 C 76.148438 20.902344 67.988281 22.085938 63.53125 22.089844 C 59.027344 22.089844 45.257812 20.5 34.289062 19.011719 L 33.910156 18.96875 C 32.9375 18.867188 31.96875 18.816406 31.007812 18.816406 C 23.167969 18.816406 15.625 22.140625 10.316406 27.9375 C 4.242188 34.5625 1.761719 43.5 3.511719 52.460938 L 3.582031 52.824219 L 3.675781 53.179688 C 5.539062 60.382812 7.300781 68.878906 7.375 70.957031 C 7.378906 73.949219 5.535156 81.277344 4.183594 86.625 C 2.054688 95.066406 0.0429688 103.039062 0.0429688 109.964844 C 0.0429688 116.890625 2.054688 124.863281 4.183594 133.308594 C 5.535156 138.65625 7.378906 145.984375 7.375 148.902344 C 7.292969 150.953125 5.617188 158.992188 3.792969 166.105469 L 3.699219 166.460938 L 3.628906 166.824219 C 1.894531 175.777344 4.636719 185.046875 10.96875 191.621094 C 16.234375 197.09375 23.617188 200.226562 31.222656 200.226562 C 32.644531 200.226562 34.082031 200.117188 35.488281 199.898438 L 36.148438 199.792969 L 36.449219 199.722656 C 46.640625 197.628906 59.90625 195.402344 63.539062 195.402344 C 67.765625 195.410156 76.457031 197.242188 83.4375 198.714844 C 93.214844 200.777344 102.449219 202.722656 109.996094 202.722656 C 117.542969 202.722656 126.777344 200.777344 136.554688 198.714844 C 143.535156 197.242188 152.222656 195.410156 156.457031 195.402344 C 160.191406 195.402344 173.609375 197.683594 183.898438 199.792969 L 184.484375 199.898438 C 185.902344 200.121094 187.34375 200.230469 188.78125 200.230469 C 196.375 200.230469 203.753906 197.09375 209.023438 191.621094 C 215.359375 185.042969 218.082031 175.683594 216.308594 166.585938 L 216.234375 166.226562 L 216.144531 165.863281 C 214.378906 159.035156 212.699219 150.953125 212.621094 148.976562 C 212.613281 145.980469 214.460938 138.65625 215.808594 133.304688 C 217.9375 124.863281 219.949219 116.890625 219.949219 109.964844 C 219.949219 103.039062 217.9375 95.066406 215.808594 86.621094 C 214.460938 81.273438 212.613281 73.945312 212.621094 71.027344 Z M 212.621094 71.027344 " fill-opacity="1" fill-rule="nonzero"/></g><path fill="#70bfff" d="M 33.074219 184.21875 C 33.074219 184.21875 55.859375 179.519531 63.570312 179.535156 C 75.320312 179.558594 98.246094 186.855469 109.996094 186.855469 C 121.746094 186.855469 144.671875 179.558594 156.421875 179.535156 C 164.136719 179.519531 186.917969 184.21875 186.917969 184.21875 C 195.273438 185.503906 202.378906 178.128906 200.769531 169.839844 C 200.769531 169.839844 196.753906 154.320312 196.734375 149.019531 C 196.707031 139.085938 204.066406 119.898438 204.066406 109.964844 C 204.066406 100.03125 196.707031 80.84375 196.734375 70.910156 C 196.75 65.605469 200.769531 50.09375 200.769531 50.09375 C 202.375 41.800781 195.273438 34.425781 186.917969 35.710938 C 186.917969 35.710938 164.136719 40.410156 156.421875 40.398438 C 144.671875 40.371094 121.742188 33.375 109.996094 33.074219 C 98.328125 32.769531 75.242188 37.941406 63.570312 37.957031 C 55.710938 37.964844 32.292969 34.75 32.292969 34.75 C 24.140625 33.914062 17.496094 41.175781 19.054688 49.210938 C 19.054688 49.210938 23.242188 65.382812 23.253906 70.910156 C 23.285156 80.84375 15.925781 100.03125 15.925781 109.964844 C 15.925781 119.898438 23.285156 139.085938 23.253906 149.019531 C 23.242188 154.324219 19.222656 169.839844 19.222656 169.839844 C 17.617188 178.128906 24.71875 185.503906 33.074219 184.21875 Z M 33.074219 184.21875 " fill-opacity="1" fill-rule="nonzero"/><path fill="#40396e" d="M 109.996094 190.519531 C 103.722656 190.519531 95.097656 188.699219 85.964844 186.773438 C 77.644531 185.019531 69.046875 183.207031 63.566406 183.195312 C 63.554688 183.195312 63.546875 183.195312 63.53125 183.195312 C 57.488281 183.195312 40.039062 186.523438 33.8125 187.804688 C 33.753906 187.820312 33.691406 187.832031 33.628906 187.839844 C 28.53125 188.625 23.347656 186.875 19.769531 183.160156 C 16.195312 179.445312 14.644531 174.207031 15.625 169.144531 C 16.757812 164.730469 19.578125 152.980469 19.589844 149.015625 C 19.601562 144.492188 17.789062 137.289062 16.03125 130.328125 C 14.09375 122.632812 12.261719 115.371094 12.261719 109.964844 C 12.261719 104.558594 14.09375 97.296875 16.03125 89.605469 C 17.789062 82.640625 19.601562 75.441406 19.589844 70.917969 C 19.578125 66.765625 16.636719 54.503906 15.503906 50.128906 C 14.488281 44.925781 15.902344 39.921875 19.328125 36.179688 C 22.757812 32.4375 27.625 30.59375 32.667969 31.109375 C 33.023438 31.15625 55.984375 34.292969 63.535156 34.292969 C 63.546875 34.292969 63.558594 34.292969 63.566406 34.292969 C 68.890625 34.285156 77.148438 33.089844 85.132812 31.933594 C 94.257812 30.613281 103.710938 29.257812 110.089844 29.414062 C 116.109375 29.566406 124.382812 31.28125 133.144531 33.089844 C 141.796875 34.875 150.742188 36.722656 156.429688 36.734375 C 156.4375 36.734375 156.449219 36.734375 156.460938 36.734375 C 162.503906 36.734375 179.953125 33.40625 186.179688 32.125 C 191.460938 31.304688 196.644531 33.054688 200.222656 36.769531 C 203.800781 40.484375 205.351562 45.726562 204.371094 50.785156 C 203.238281 55.199219 200.417969 66.949219 200.40625 70.917969 C 200.394531 75.441406 202.207031 82.640625 203.964844 89.601562 C 205.898438 97.296875 207.734375 104.558594 207.734375 109.964844 C 207.734375 115.371094 205.898438 122.632812 203.960938 130.324219 C 202.207031 137.289062 200.390625 144.492188 200.402344 149.011719 C 200.414062 152.976562 203.234375 164.730469 204.320312 168.921875 C 205.351562 174.203125 203.800781 179.445312 200.222656 183.160156 C 196.640625 186.875 191.460938 188.628906 186.363281 187.839844 C 179.953125 186.523438 162.503906 183.195312 156.457031 183.195312 C 156.449219 183.195312 156.4375 183.195312 156.429688 183.195312 C 150.949219 183.207031 142.347656 185.019531 134.03125 186.773438 C 124.898438 188.699219 116.269531 190.519531 109.996094 190.519531 Z M 33.074219 184.21875 L 33.101562 184.21875 Z M 63.539062 175.871094 C 63.550781 175.871094 63.566406 175.871094 63.578125 175.871094 C 69.820312 175.882812 78.394531 177.695312 87.476562 179.605469 C 95.84375 181.371094 104.488281 183.195312 109.996094 183.195312 C 115.503906 183.195312 124.152344 181.371094 132.515625 179.605469 C 141.597656 177.695312 150.171875 175.882812 156.414062 175.871094 C 156.425781 175.871094 156.441406 175.871094 156.453125 175.871094 C 164.488281 175.871094 186.71875 180.441406 187.660156 180.636719 C 190.269531 181.027344 192.984375 180.113281 194.9375 178.082031 C 196.894531 176.050781 197.707031 173.300781 197.171875 170.535156 C 196.796875 169.121094 193.089844 154.628906 193.074219 149.027344 C 193.058594 143.585938 194.902344 136.277344 196.851562 128.535156 C 198.597656 121.617188 200.402344 114.464844 200.402344 109.964844 C 200.402344 105.464844 198.597656 98.3125 196.851562 91.394531 C 194.898438 83.652344 193.054688 76.339844 193.074219 70.898438 C 193.089844 65.296875 196.796875 50.808594 197.222656 49.175781 C 197.707031 46.632812 196.894531 43.878906 194.9375 41.847656 C 192.980469 39.816406 190.265625 38.898438 187.472656 39.328125 C 186.714844 39.492188 164.488281 44.058594 156.453125 44.058594 C 156.441406 44.058594 156.425781 44.058594 156.414062 44.058594 C 149.984375 44.046875 140.671875 42.121094 131.664062 40.257812 C 123.601562 38.59375 115.265625 36.871094 109.902344 36.734375 C 104.101562 36.585938 95.007812 37.90625 86.183594 39.183594 C 77.5625 40.429688 69.421875 41.605469 63.578125 41.617188 C 63.566406 41.617188 63.550781 41.617188 63.539062 41.617188 C 55.484375 41.617188 32.761719 38.511719 31.796875 38.378906 C 29.207031 38.113281 26.582031 39.113281 24.738281 41.125 C 22.894531 43.140625 22.132812 45.835938 22.652344 48.515625 C 23.042969 49.996094 26.902344 65.082031 26.921875 70.898438 C 26.9375 76.339844 25.09375 83.652344 23.144531 91.390625 C 21.394531 98.3125 19.589844 105.464844 19.589844 109.964844 C 19.589844 114.464844 21.394531 121.617188 23.140625 128.535156 C 25.09375 136.28125 26.9375 143.589844 26.921875 149.03125 C 26.902344 154.632812 23.195312 169.121094 22.773438 170.757812 C 22.285156 173.300781 23.097656 176.050781 25.054688 178.082031 C 26.992188 180.089844 29.683594 181.019531 32.433594 180.613281 C 34.308594 180.230469 55.691406 175.871094 63.539062 175.871094 Z M 63.539062 175.871094 " fill-opacity="1" fill-rule="nonzero"/><path fill="#d9eeff" d="M 44.023438 61.144531 L 178.410156 61.144531 L 178.410156 158.785156 L 44.023438 158.785156 Z M 44.023438 61.144531 " fill-opacity="1" fill-rule="nonzero"/><path fill="#40396e" d="M 86.785156 104.390625 C 86.785156 105.351562 86.730469 106.304688 86.621094 107.246094 C 86.511719 108.191406 86.347656 109.105469 86.132812 109.996094 C 85.917969 110.882812 85.65625 111.726562 85.34375 112.527344 C 85.03125 113.328125 84.675781 114.066406 84.28125 114.746094 C 83.882812 115.425781 83.449219 116.035156 82.984375 116.566406 C 82.515625 117.101562 82.023438 117.554688 81.503906 117.921875 C 80.984375 118.289062 80.453125 118.566406 79.902344 118.753906 C 79.351562 118.941406 78.792969 119.035156 78.230469 119.035156 C 77.671875 119.035156 77.113281 118.941406 76.5625 118.753906 C 76.011719 118.566406 75.476562 118.289062 74.960938 117.921875 C 74.441406 117.554688 73.949219 117.101562 73.480469 116.566406 C 73.015625 116.035156 72.582031 115.425781 72.183594 114.746094 C 71.789062 114.066406 71.433594 113.328125 71.121094 112.527344 C 70.808594 111.726562 70.546875 110.882812 70.332031 109.996094 C 70.117188 109.105469 69.953125 108.191406 69.84375 107.246094 C 69.734375 106.304688 69.679688 105.351562 69.679688 104.390625 C 69.679688 103.429688 69.734375 102.476562 69.84375 101.53125 C 69.953125 100.589844 70.117188 99.671875 70.332031 98.785156 C 70.546875 97.898438 70.808594 97.050781 71.121094 96.253906 C 71.433594 95.453125 71.789062 94.714844 72.183594 94.035156 C 72.582031 93.355469 73.015625 92.746094 73.480469 92.210938 C 73.949219 91.679688 74.441406 91.226562 74.960938 90.859375 C 75.476562 90.492188 76.011719 90.214844 76.5625 90.027344 C 77.113281 89.835938 77.671875 89.742188 78.230469 89.742188 C 78.792969 89.742188 79.351562 89.835938 79.902344 90.027344 C 80.453125 90.214844 80.984375 90.492188 81.503906 90.859375 C 82.023438 91.226562 82.515625 91.679688 82.984375 92.210938 C 83.449219 92.746094 83.882812 93.355469 84.28125 94.035156 C 84.675781 94.714844 85.03125 95.453125 85.34375 96.253906 C 85.65625 97.050781 85.917969 97.898438 86.132812 98.785156 C 86.347656 99.671875 86.511719 100.589844 86.621094 101.53125 C 86.730469 102.476562 86.785156 103.429688 86.785156 104.390625 Z M 86.785156 104.390625 " fill-opacity="1" fill-rule="nonzero"/><path fill="#40396e" d="M 152.757812 104.390625 C 152.757812 105.351562 152.703125 106.304688 152.59375 107.246094 C 152.480469 108.191406 152.320312 109.105469 152.105469 109.996094 C 151.890625 110.882812 151.625 111.726562 151.316406 112.527344 C 151.003906 113.328125 150.648438 114.066406 150.25 114.746094 C 149.855469 115.425781 149.421875 116.035156 148.957031 116.566406 C 148.488281 117.101562 147.996094 117.554688 147.476562 117.921875 C 146.957031 118.289062 146.421875 118.566406 145.871094 118.753906 C 145.320312 118.941406 144.765625 119.035156 144.203125 119.035156 C 143.644531 119.035156 143.085938 118.941406 142.535156 118.753906 C 141.984375 118.566406 141.449219 118.289062 140.929688 117.921875 C 140.414062 117.554688 139.921875 117.101562 139.453125 116.566406 C 138.984375 116.035156 138.554688 115.425781 138.15625 114.746094 C 137.761719 114.066406 137.40625 113.328125 137.09375 112.527344 C 136.78125 111.726562 136.519531 110.882812 136.304688 109.996094 C 136.089844 109.105469 135.925781 108.191406 135.816406 107.246094 C 135.707031 106.304688 135.652344 105.351562 135.652344 104.390625 C 135.652344 103.429688 135.707031 102.476562 135.816406 101.53125 C 135.925781 100.589844 136.089844 99.671875 136.304688 98.785156 C 136.519531 97.898438 136.78125 97.050781 137.09375 96.253906 C 137.40625 95.453125 137.761719 94.714844 138.15625 94.035156 C 138.554688 93.355469 138.984375 92.746094 139.453125 92.210938 C 139.921875 91.679688 140.414062 91.226562 140.929688 90.859375 C 141.449219 90.492188 141.984375 90.214844 142.535156 90.027344 C 143.085938 89.835938 143.644531 89.742188 144.203125 89.742188 C 144.765625 89.742188 145.320312 89.835938 145.871094 90.027344 C 146.421875 90.214844 146.957031 90.492188 147.476562 90.859375 C 147.996094 91.226562 148.488281 91.679688 148.957031 92.210938 C 149.421875 92.746094 149.855469 93.355469 150.25 94.035156 C 150.648438 94.714844 151.003906 95.453125 151.316406 96.253906 C 151.625 97.050781 151.890625 97.898438 152.105469 98.785156 C 152.320312 99.671875 152.480469 100.589844 152.59375 101.53125 C 152.703125 102.476562 152.757812 103.429688 152.757812 104.390625 Z M 152.757812 104.390625 " fill-opacity="1" fill-rule="nonzero"/><path fill="#f2f2f2" d="M 84.035156 100.730469 C 84.035156 101.214844 83.941406 101.679688 83.757812 102.128906 C 83.570312 102.578125 83.304688 102.972656 82.960938 103.316406 C 82.617188 103.660156 82.222656 103.925781 81.773438 104.109375 C 81.324219 104.296875 80.855469 104.390625 80.371094 104.390625 C 79.882812 104.390625 79.417969 104.296875 78.96875 104.109375 C 78.519531 103.925781 78.121094 103.660156 77.777344 103.316406 C 77.433594 102.972656 77.171875 102.578125 76.984375 102.128906 C 76.796875 101.679688 76.707031 101.214844 76.707031 100.730469 C 76.707031 100.242188 76.796875 99.777344 76.984375 99.328125 C 77.171875 98.878906 77.433594 98.484375 77.777344 98.140625 C 78.121094 97.796875 78.519531 97.53125 78.96875 97.347656 C 79.417969 97.160156 79.882812 97.066406 80.371094 97.066406 C 80.855469 97.066406 81.324219 97.160156 81.773438 97.347656 C 82.222656 97.53125 82.617188 97.796875 82.960938 98.140625 C 83.304688 98.484375 83.570312 98.878906 83.757812 99.328125 C 83.941406 99.777344 84.035156 100.242188 84.035156 100.730469 Z M 84.035156 100.730469 " fill-opacity="1" fill-rule="nonzero"/><path fill="#f2f2f2" d="M 150.160156 100.730469 C 150.160156 101.214844 150.066406 101.679688 149.882812 102.128906 C 149.695312 102.578125 149.429688 102.972656 149.085938 103.316406 C 148.746094 103.660156 148.347656 103.925781 147.898438 104.109375 C 147.449219 104.296875 146.980469 104.390625 146.496094 104.390625 C 146.011719 104.390625 145.542969 104.296875 145.09375 104.109375 C 144.644531 103.925781 144.25 103.660156 143.90625 103.316406 C 143.5625 102.972656 143.296875 102.578125 143.109375 102.128906 C 142.925781 101.679688 142.832031 101.214844 142.832031 100.730469 C 142.832031 100.242188 142.925781 99.777344 143.109375 99.328125 C 143.296875 98.878906 143.5625 98.484375 143.90625 98.140625 C 144.25 97.796875 144.644531 97.53125 145.09375 97.347656 C 145.542969 97.160156 146.011719 97.066406 146.496094 97.066406 C 146.980469 97.066406 147.449219 97.160156 147.898438 97.347656 C 148.347656 97.53125 148.746094 97.796875 149.085938 98.140625 C 149.429688 98.484375 149.695312 98.878906 149.882812 99.328125 C 150.066406 99.777344 150.160156 100.242188 150.160156 100.730469 Z M 150.160156 100.730469 " fill-opacity="1" fill-rule="nonzero"/><path fill="#40396e" d="M 83.125 139.949219 C 82.464844 139.949219 81.792969 139.773438 81.1875 139.398438 C 79.472656 138.328125 78.949219 136.066406 80.019531 134.351562 C 86.144531 124.539062 98.097656 118.449219 111.21875 118.449219 C 124.023438 118.449219 135.839844 124.328125 142.058594 133.792969 C 143.171875 135.484375 142.699219 137.753906 141.007812 138.863281 C 139.316406 139.96875 137.042969 139.503906 135.929688 137.808594 C 131.050781 130.382812 121.582031 125.769531 111.21875 125.769531 C 100.605469 125.769531 91.035156 130.546875 86.238281 138.226562 C 85.542969 139.339844 84.347656 139.949219 83.125 139.949219 Z M 83.125 139.949219 " fill-opacity="1" fill-rule="nonzero"/><g fill="#70bfff" fill-opacity="1"><g transform="translate(100.407907, 173.449626)"><g><path d="M 1.3125 0.046875 C 1.125 0.046875 0.976562 -0.00390625 0.875 -0.109375 C 0.769531 -0.210938 0.71875 -0.347656 0.71875 -0.515625 C 0.71875 -0.691406 0.769531 -0.832031 0.875 -0.9375 C 0.976562 -1.050781 1.125 -1.109375 1.3125 -1.109375 C 1.5 -1.109375 1.644531 -1.054688 1.75 -0.953125 C 1.863281 -0.847656 1.921875 -0.707031 1.921875 -0.53125 C 1.921875 -0.351562 1.863281 -0.210938 1.75 -0.109375 C 1.644531 -0.00390625 1.5 0.046875 1.3125 0.046875 Z M 1.3125 0.046875 "/></g></g></g></svg>