<svg version="1.2" xmlns="http://www.w3.org/2000/svg" viewBox="0 0 226 225" width="125" height="124"><defs><clipPath clipPathUnits="userSpaceOnUse" id="cp1"><path d="m11 111h205v90.66h-205z"/></clipPath><clipPath clipPathUnits="userSpaceOnUse" id="cp2"><path d="m1 87h224.76v29h-224.76z"/></clipPath><clipPath clipPathUnits="userSpaceOnUse" id="cp3"><path d="m72 23.25h82v81.75h-82z"/></clipPath></defs><style>.a{fill:#e80000}</style><g clip-path="url(#cp1)"><path class="a" d="m58.9 201.2c-9.4 0-17.7-5.8-21-14.6-2.7-7.2-24-64.9-26.7-72.1-0.4-1.2 0.2-2.6 1.4-3q0.4-0.2 0.8-0.2c20 0 180 0 200 0 1.3 0 2.4 1.1 2.4 2.4q0 0.4-0.2 0.8c-2.6 7.2-24 64.9-26.6 72.1-3.3 8.8-11.6 14.6-21 14.6-21.8 0-98.2 0-109.1 0zm-42.1-85.2q22.9 62.1 25.5 69c2.6 6.9 9.2 11.5 16.6 11.6 10.9 0 98.2 0 109.1 0 7.4-0.1 14-4.7 16.6-11.6q2.5-6.9 25.5-69z"/></g><g clip-path="url(#cp2)"><path class="a" d="m10.3 116c-5 0-9-4-9-9 0-1.1 0-9.6 0-10.7 0-4.9 4-9 9-9 7.4 0 67.1 0 74.5 0 0.7 0 1.3 0.3 1.8 0.8 13.1 14.8 35.7 16.2 50.6 3.1q1.6-1.4 3.1-3.1c0.4-0.5 1-0.8 1.7-0.8 7.5 0 67.1 0 74.6 0 5 0 9 4.1 9 9 0 1.1 0 9.6 0 10.7 0 5-4 9-9 9 0 0-185.7 0-206.3 0zm0-24c-2.4 0-4.4 1.9-4.4 4.3 0 1.1 0 9.6 0 10.7 0 2.4 2 4.3 4.4 4.3 20.6 0 185.7 0 206.3 0 2.4 0 4.3-1.9 4.3-4.3 0-1.1 0-9.6 0-10.7 0-2.4-1.9-4.3-4.3-4.3-7.3 0-66.2 0-73.5 0-15.3 16.4-40.9 17.3-57.3 2q-1-1-2-2c-14.7 0-58.8 0-73.5 0z"/></g><g clip-path="url(#cp3)"><path class="a" d="m72.8 64.3c-0.1-22.4 18.1-40.6 40.5-40.6 22.5 0 40.7 18.1 40.7 40.5 0 10-3.6 19.6-10.2 27-7.7 8.7-18.8 13.7-30.4 13.7-22.4 0-40.6-18.1-40.6-40.6zm4.8 0c0 19.8 16 35.9 35.8 35.9 19.9 0 35.9-16.1 35.9-35.9 0-19.8-16.1-35.8-35.9-35.9-19.8 0-35.9 16.1-35.8 35.9z"/></g><path class="a" d="m96.8 74.6c-5.7-0.1-10.2-4.8-10.1-10.4 0.1-5.5 4.6-10 10.1-10.1 3.3 0 29.9 0 33.3 0 5.6 0.1 10.1 4.7 10 10.4 0 5.5-4.5 10-10 10.1-6.7 0-30 0-33.3 0zm0-15.8c-3.1 0-5.5 2.6-5.4 5.7 0 2.9 2.4 5.3 5.4 5.4 3.3 0 29.9 0 33.3 0 1.4 0 2.9-0.6 3.9-1.6 2.2-2.2 2.1-5.7 0-7.9-1.1-1-2.5-1.6-3.9-1.6-6.7 0-26.7 0-33.3 0z"/><path class="a" d="m71.3 174.3c-0.9-3.3-7.8-29.5-8.7-32.8-0.8-2.8-0.3-5.9 1.5-8.2 1.9-2.4 4.7-3.7 7.7-3.6 3.2 0 6.2 1.2 8.6 3.2 2.4 1.9 4 4.6 4.5 7.6 0.6 3.3 5 29.6 5.5 32.8 0.4 1.9-0.2 3.9-1.4 5.4-1.8 1.9-4.3 3-7 2.9-4.7 0.1-9.1-2.8-10.7-7.3zm-3.5-38.2c-0.9 1.2-1.1 2.8-0.7 4.2 0.9 3.3 7.8 29.6 8.7 32.8 1.1 2.4 3.6 3.9 6.2 3.8 1.3 0.1 2.5-0.4 3.4-1.2 0.4-0.5 0.5-1 0.4-1.6q-0.5-3.3-5.5-32.8c-0.4-1.9-1.4-3.6-2.9-4.8-1.6-1.3-3.5-2.1-5.6-2.1-1.5-0.1-3 0.5-4 1.7z"/><path class="a" d="m103.8 173.8c-0.1-3.2-1.4-29.5-1.6-32.8-0.1-2.9 1-5.7 3-7.8 2.2-2.3 5.1-3.5 8.3-3.5 3 0 6 1.2 8.1 3.4 2.1 2.1 3.2 5 3 7.9-0.1 3.3-1.4 29.6-1.5 32.8-0.3 4.4-4.5 7.8-9.7 7.8-5.1 0-9.4-3.4-9.6-7.8zm4.8-37.4c-1.2 1.2-1.8 2.8-1.7 4.4 0.2 3.3 1.4 29.5 1.6 32.8 0.1 1.8 2.3 3.3 4.9 3.3 2.7 0 4.9-1.5 5-3.3q0.1-3.3 1.6-32.8c0.1-1.7-0.6-3.3-1.7-4.5-1.3-1.3-3-2-4.8-1.9-1.9-0.1-3.7 0.7-4.9 2z"/><path class="a" d="m137.9 178.7c-1.2-1.5-1.8-3.5-1.4-5.4 0.5-3.2 4.9-29.5 5.4-32.8 1.4-6.2 6.8-10.7 13.2-10.8 3-0.1 5.8 1.2 7.7 3.6 1.8 2.4 2.3 5.4 1.5 8.2q-7.8 29.5-8.7 32.8c-1.6 4.5-6 7.4-10.7 7.3-2.7 0.1-5.2-1-7-2.9zm8.7-37.4c-0.6 3.3-5 29.5-5.5 32.8-0.1 0.6 0 1.1 0.4 1.5 0.9 0.9 2.1 1.4 3.4 1.3 2.6 0.1 5.1-1.4 6.2-3.8 0.8-3.2 7.8-29.5 8.6-32.8 0.5-1.4 0.2-3-0.6-4.2-1-1.2-2.5-1.8-4-1.7-4.1 0.1-7.6 2.9-8.5 6.9z"/><path class="a" d="m82.3 141.7q-0.3 0-0.4-0.2-0.2-0.1-0.2-0.4 0-0.2 0.2-0.4 0.1-0.2 0.4-0.2 0.3 0 0.4 0.2 0.2 0.1 0.2 0.4 0 0.3-0.2 0.4-0.1 0.2-0.4 0.2z"/></svg>