<svg xmlns="http://www.w3.org/2000/svg" xmlns:xlink="http://www.w3.org/1999/xlink" width="300" zoomAndPan="magnify" viewBox="0 0 224.87999 178.499995" height="238" preserveAspectRatio="xMidYMid meet" version="1.0"><path fill="#bc701e" d="M 100.34375 81.601562 L 100.34375 138.269531 C 100.90625 138.269531 101.453125 138.125 101.9375 137.84375 L 148.523438 110.976562 C 149.371094 110.484375 149.894531 109.578125 149.894531 108.601562 L 149.894531 60.082031 C 149.894531 59.523438 149.746094 58.972656 149.46875 58.488281 L 100.34375 81.601562 " fill-opacity="1" fill-rule="nonzero"/><path fill="#ea9816" d="M 149.46875 58.488281 C 149.167969 58.078125 148.765625 57.75 148.300781 57.539062 L 101.515625 35.523438 C 100.773438 35.175781 99.917969 35.175781 99.175781 35.523438 L 78.773438 45.121094 L 128.324219 68.4375 L 149.46875 58.488281 " fill-opacity="1" fill-rule="nonzero"/><path fill="#ea9816" d="M 70.8125 48.867188 L 52.371094 57.546875 C 51.40625 58 50.792969 58.964844 50.792969 60.027344 L 50.792969 108.601562 C 50.792969 109.578125 51.320312 110.484375 52.167969 110.972656 L 98.753906 137.84375 C 99.234375 138.125 99.785156 138.269531 100.34375 138.269531 L 100.34375 82.472656 C 100.34375 81.941406 100.652344 81.457031 101.132812 81.230469 L 120.363281 72.183594 L 70.8125 48.867188 " fill-opacity="1" fill-rule="nonzero"/><path fill="#eaebec" d="M 78.773438 45.121094 L 70.8125 48.867188 L 120.363281 72.183594 L 128.324219 68.4375 L 78.773438 45.121094 " fill-opacity="1" fill-rule="nonzero"/><path fill="#bfbdc7" d="M 128.324219 68.4375 L 128.324219 87.65625 C 128.324219 88.347656 127.933594 88.980469 127.316406 89.289062 L 121.6875 92.105469 C 121.234375 92.332031 120.683594 92.148438 120.460938 91.695312 C 120.394531 91.570312 120.363281 91.429688 120.363281 91.289062 L 120.363281 72.183594 L 128.324219 68.4375 " fill-opacity="1" fill-rule="nonzero"/><path fill="#ffffff" d="M 94.082031 110.722656 L 75.097656 99.78125 C 74.769531 99.589844 74.351562 99.703125 74.160156 100.03125 C 74.101562 100.132812 74.070312 100.253906 74.070312 100.375 L 74.070312 115.894531 C 74.070312 116.382812 74.332031 116.839844 74.753906 117.082031 L 93.742188 128.027344 C 94.070312 128.214844 94.488281 128.101562 94.679688 127.773438 C 94.738281 127.671875 94.773438 127.550781 94.773438 127.429688 L 94.773438 111.910156 C 94.773438 111.421875 94.507812 110.96875 94.082031 110.722656 " fill-opacity="1" fill-rule="nonzero"/><path fill="#83ad3a" d="M 104.695312 1.25 C 80.835938 -0.0078125 57.574219 8.945312 40.726562 25.863281 L 34.144531 19.292969 C 33.429688 18.578125 32.273438 18.578125 31.558594 19.292969 C 31.214844 19.636719 31.019531 20.101562 31.019531 20.585938 L 31.019531 46.574219 C 31.019531 47.582031 31.839844 48.402344 32.851562 48.402344 L 58.863281 48.402344 C 59.875 48.402344 60.695312 47.582031 60.695312 46.574219 C 60.695312 46.085938 60.5 45.625 60.15625 45.28125 L 53.691406 38.820312 C 79.363281 13.050781 121.085938 12.953125 146.878906 38.601562 C 172.671875 64.25 172.769531 105.933594 147.097656 131.703125 C 122.34375 156.546875 82.445312 157.652344 56.347656 134.222656 C 54.90625 132.941406 52.710938 133.007812 51.351562 134.378906 L 43.550781 142.167969 C 42.121094 143.609375 42.128906 145.9375 43.570312 147.371094 C 43.613281 147.414062 43.65625 147.457031 43.703125 147.496094 C 78.109375 178.746094 131.359375 176.21875 162.644531 141.847656 C 193.925781 107.472656 191.394531 54.273438 156.988281 23.019531 C 142.597656 9.949219 124.121094 2.257812 104.695312 1.25 " fill-opacity="1" fill-rule="nonzero"/></svg>