<svg xmlns="http://www.w3.org/2000/svg" xmlns:xlink="http://www.w3.org/1999/xlink" width="300" zoomAndPan="magnify" viewBox="0 0 224.87999 225" height="300" preserveAspectRatio="xMidYMid meet" version="1.0"><defs><clipPath id="2849855e82"><path d="M 0 0.0585938 L 224.761719 0.0585938 L 224.761719 224.9375 L 0 224.9375 Z M 0 0.0585938 " clip-rule="nonzero"/></clipPath><clipPath id="b3aedaf988"><path d="M 112.441406 0.0585938 C 50.339844 0.0585938 0 50.402344 0 112.5 C 0 174.597656 50.339844 224.941406 112.441406 224.941406 C 174.539062 224.941406 224.878906 174.597656 224.878906 112.5 C 224.878906 50.402344 174.539062 0.0585938 112.441406 0.0585938 Z M 112.441406 0.0585938 " clip-rule="nonzero"/></clipPath><clipPath id="1ae5235ef2"><path d="M 15.0625 60 L 185.425781 60 L 185.425781 181.398438 L 15.0625 181.398438 Z M 15.0625 60 " clip-rule="nonzero"/></clipPath><clipPath id="9d3e23a4df"><path d="M 15.0625 82 L 186 82 L 186 114 L 15.0625 114 Z M 15.0625 82 " clip-rule="nonzero"/></clipPath><clipPath id="3f5adf6f44"><path d="M 145.660156 34.625 L 224.761719 34.625 L 224.761719 124.1875 L 145.660156 124.1875 Z M 145.660156 34.625 " clip-rule="nonzero"/></clipPath></defs><g clip-path="url(#2849855e82)"><g clip-path="url(#b3aedaf988)"><path fill="#e6fff2" d="M 0 0.0585938 L 224.878906 0.0585938 L 224.878906 224.941406 L 0 224.941406 Z M 0 0.0585938 " fill-opacity="1" fill-rule="nonzero"/></g></g><g clip-path="url(#1ae5235ef2)"><path fill="#ffbb10" d="M 185.316406 76.453125 L 185.316406 164.96875 C 185.316406 174.042969 177.964844 181.398438 168.886719 181.398438 L 31.492188 181.398438 C 22.417969 181.398438 15.0625 174.042969 15.0625 164.96875 L 15.0625 76.453125 C 15.0625 67.378906 22.417969 60.019531 31.492188 60.019531 L 168.886719 60.019531 C 177.964844 60.019531 185.316406 67.378906 185.316406 76.453125 " fill-opacity="1" fill-rule="nonzero"/></g><g clip-path="url(#9d3e23a4df)"><path fill="#212121" d="M 15.0625 113.636719 L 185.316406 113.636719 L 185.316406 82.578125 L 15.0625 82.578125 Z M 15.0625 113.636719 " fill-opacity="1" fill-rule="nonzero"/></g><path fill="#ffffff" d="M 95.339844 141.667969 L 43.046875 141.667969 C 40.628906 141.667969 38.667969 139.707031 38.667969 137.289062 C 38.667969 134.867188 40.628906 132.90625 43.046875 132.90625 L 95.339844 132.90625 C 97.761719 132.90625 99.722656 134.867188 99.722656 137.289062 C 99.722656 139.707031 97.761719 141.667969 95.339844 141.667969 " fill-opacity="1" fill-rule="nonzero"/><path fill="#ffffff" d="M 86.867188 162.785156 L 43.046875 162.785156 C 40.628906 162.785156 38.667969 160.824219 38.667969 158.402344 C 38.667969 155.984375 40.628906 154.023438 43.046875 154.023438 L 86.867188 154.023438 C 89.285156 154.023438 91.246094 155.984375 91.246094 158.402344 C 91.246094 160.824219 89.285156 162.785156 86.867188 162.785156 " fill-opacity="1" fill-rule="nonzero"/><path fill="#f73131" d="M 152.171875 158.402344 L 134.097656 158.402344 C 128.828125 158.402344 124.554688 154.132812 124.554688 148.859375 L 124.554688 146.832031 C 124.554688 141.558594 128.828125 137.289062 134.097656 137.289062 L 152.171875 137.289062 C 157.441406 137.289062 161.714844 141.558594 161.714844 146.832031 L 161.714844 148.859375 C 161.714844 154.132812 157.441406 158.402344 152.171875 158.402344 " fill-opacity="1" fill-rule="nonzero"/><path fill="#e0a40e" d="M 185.316406 134.253906 C 181.742188 134.253906 178.261719 133.234375 175.257812 131.296875 L 158.304688 120.390625 C 155.28125 118.449219 152.484375 116.179688 149.960938 113.636719 L 185.316406 113.636719 L 185.316406 134.253906 M 185.316406 82.578125 L 135.730469 82.578125 C 135.636719 81.3125 135.585938 80.039062 135.585938 78.765625 L 135.585938 60.019531 L 168.886719 60.019531 C 177.964844 60.019531 185.316406 67.378906 185.316406 76.453125 L 185.316406 82.578125 " fill-opacity="1" fill-rule="nonzero"/><path fill="#1d1d1d" d="M 185.316406 113.636719 L 149.960938 113.636719 C 146.683594 110.335938 143.871094 106.574219 141.632812 102.476562 C 138.285156 96.34375 136.273438 89.53125 135.730469 82.578125 L 185.316406 82.578125 L 185.316406 113.636719 " fill-opacity="1" fill-rule="nonzero"/><g clip-path="url(#3f5adf6f44)"><path fill="#05c954" d="M 224.957031 46.671875 L 224.957031 78.765625 C 224.957031 92.171875 218.144531 104.65625 206.871094 111.90625 L 189.917969 122.8125 C 188.515625 123.714844 186.917969 124.164062 185.316406 124.164062 C 183.71875 124.164062 182.117188 123.714844 180.714844 122.8125 L 163.761719 111.90625 C 152.488281 104.65625 145.675781 92.171875 145.675781 78.765625 L 145.675781 46.671875 C 145.675781 40.183594 152.027344 35.597656 158.183594 37.644531 C 160.558594 38.433594 163.027344 38.828125 165.496094 38.828125 C 167.964844 38.828125 170.433594 38.433594 172.808594 37.644531 L 178.632812 35.710938 C 180.804688 34.988281 183.058594 34.628906 185.316406 34.628906 C 187.574219 34.628906 189.832031 34.988281 192 35.710938 L 197.824219 37.644531 C 202.574219 39.222656 207.703125 39.222656 212.449219 37.644531 C 213.457031 37.3125 214.472656 37.152344 215.464844 37.152344 C 220.519531 37.152344 224.957031 41.246094 224.957031 46.671875 " fill-opacity="1" fill-rule="nonzero"/></g><path fill="#ffffff" d="M 185.324219 87.8125 C 184.46875 87.8125 183.664062 87.480469 183.058594 86.878906 L 174.152344 77.972656 C 172.835938 76.65625 172.835938 74.515625 174.152344 73.199219 C 174.789062 72.5625 175.636719 72.210938 176.542969 72.210938 C 177.445312 72.210938 178.292969 72.5625 178.929688 73.199219 L 185.324219 79.589844 L 197.859375 67.054688 C 198.496094 66.417969 199.34375 66.066406 200.25 66.066406 C 201.152344 66.066406 202 66.417969 202.636719 67.054688 C 203.949219 68.371094 203.949219 70.511719 202.632812 71.828125 L 187.585938 86.878906 C 186.980469 87.480469 186.179688 87.8125 185.324219 87.8125 " fill-opacity="1" fill-rule="nonzero"/><path fill="#ffffff" d="M 185.316406 116.640625 C 185.128906 116.640625 184.945312 116.585938 184.789062 116.484375 L 167.832031 105.578125 C 166.414062 104.667969 165.058594 103.628906 163.796875 102.5 C 163.296875 102.050781 162.804688 101.578125 162.335938 101.097656 C 161.574219 100.324219 160.84375 99.503906 160.171875 98.65625 C 159.015625 97.210938 157.980469 95.65625 157.097656 94.039062 C 154.546875 89.367188 153.199219 84.085938 153.199219 78.765625 L 153.199219 46.671875 C 153.199219 45.441406 154.222656 44.679688 155.171875 44.679688 C 155.378906 44.679688 155.597656 44.714844 155.8125 44.785156 C 158.941406 45.828125 162.199219 46.355469 165.496094 46.355469 C 168.792969 46.355469 172.050781 45.828125 175.179688 44.785156 L 181.007812 42.847656 C 182.398438 42.386719 183.847656 42.152344 185.316406 42.152344 C 186.785156 42.152344 188.234375 42.386719 189.625 42.847656 L 195.453125 44.785156 C 198.582031 45.828125 201.839844 46.355469 205.136719 46.355469 C 208.433594 46.355469 211.695312 45.828125 214.824219 44.785156 C 215.039062 44.714844 215.253906 44.679688 215.464844 44.679688 C 216.410156 44.679688 217.433594 45.441406 217.433594 46.671875 L 217.433594 78.765625 C 217.433594 84.085938 216.089844 89.367188 213.539062 94.039062 C 212.710938 95.554688 211.746094 97.019531 210.675781 98.390625 C 209.9375 99.335938 209.136719 100.246094 208.300781 101.097656 C 207.824219 101.585938 207.332031 102.054688 206.835938 102.5 C 205.578125 103.628906 204.21875 104.667969 202.800781 105.578125 L 185.847656 116.484375 C 185.691406 116.585938 185.507812 116.640625 185.316406 116.640625 Z M 215.464844 42.050781 C 214.972656 42.050781 214.476562 42.132812 213.992188 42.292969 C 211.132812 43.242188 208.152344 43.726562 205.136719 43.726562 C 202.125 43.726562 199.144531 43.242188 196.28125 42.292969 L 190.457031 40.355469 C 188.796875 39.804688 187.066406 39.523438 185.316406 39.523438 C 183.566406 39.523438 181.839844 39.804688 180.179688 40.355469 L 174.351562 42.292969 C 171.492188 43.242188 168.511719 43.726562 165.496094 43.726562 C 162.480469 43.726562 159.5 43.242188 156.640625 42.292969 C 156.15625 42.132812 155.664062 42.050781 155.171875 42.050781 C 152.960938 42.050781 150.570312 43.816406 150.570312 46.671875 L 150.570312 78.765625 C 150.570312 84.523438 152.03125 90.242188 154.789062 95.296875 C 156.105469 97.707031 157.710938 99.960938 159.566406 101.996094 C 160.089844 102.570312 160.640625 103.132812 161.195312 103.667969 C 161.710938 104.160156 162.246094 104.644531 162.789062 105.105469 C 163.933594 106.074219 165.152344 106.976562 166.414062 107.789062 L 183.363281 118.691406 C 183.949219 119.070312 184.625 119.265625 185.316406 119.265625 C 186.011719 119.265625 186.683594 119.070312 187.269531 118.691406 L 204.222656 107.789062 C 205.484375 106.976562 206.703125 106.074219 207.84375 105.105469 C 208.386719 104.648438 208.921875 104.164062 209.441406 103.667969 C 210.074219 103.058594 210.695312 102.414062 211.285156 101.757812 C 213.050781 99.78125 214.582031 97.609375 215.84375 95.296875 C 218.601562 90.242188 220.0625 84.523438 220.0625 78.765625 L 220.0625 46.671875 C 220.0625 43.816406 217.675781 42.050781 215.464844 42.050781 " fill-opacity="1" fill-rule="nonzero"/></svg>