<svg xmlns="http://www.w3.org/2000/svg" xmlns:xlink="http://www.w3.org/1999/xlink" width="300" zoomAndPan="magnify" viewBox="0 0 224.87999 225" height="300" preserveAspectRatio="xMidYMid meet" version="1.0"><defs><g/><clipPath id="0ca54a1ad3"><path d="M 0 0.0585938 L 224.761719 0.0585938 L 224.761719 224.9375 L 0 224.9375 Z M 0 0.0585938 " clip-rule="nonzero"/></clipPath></defs><g clip-path="url(#0ca54a1ad3)"><path fill="#dc2626" d="M 180.957031 224.941406 L 43.921875 224.941406 C 19.765625 224.941406 0 205.175781 0 181.019531 L 0 43.980469 C 0 19.824219 19.765625 0.0585938 43.921875 0.0585938 L 180.957031 0.0585938 C 205.113281 0.0585938 224.878906 19.824219 224.878906 43.980469 L 224.878906 181.019531 C 224.878906 205.175781 205.113281 224.941406 180.957031 224.941406 Z M 180.957031 224.941406 " fill-opacity="1" fill-rule="nonzero"/></g><path fill="#ffffff" d="M 58.019531 194.28125 C 57.449219 194.28125 56.878906 194.152344 56.351562 193.929688 C 55.253906 193.492188 54.417969 192.65625 53.980469 191.558594 L 33.863281 142.980469 C 32.941406 140.742188 33.996094 138.195312 36.234375 137.273438 L 48.269531 132.308594 C 49.367188 131.871094 50.554688 131.871094 51.609375 132.308594 C 52.707031 132.746094 53.539062 133.582031 53.980469 134.679688 L 74.097656 183.214844 C 75.019531 185.453125 73.964844 188 71.722656 188.925781 L 59.734375 193.929688 C 59.164062 194.152344 58.589844 194.28125 58.019531 194.28125 Z M 49.9375 135.777344 C 49.894531 135.777344 49.808594 135.777344 49.71875 135.824219 L 37.683594 140.785156 C 37.421875 140.917969 37.289062 141.226562 37.378906 141.488281 L 57.539062 190.066406 C 57.625 190.242188 57.714844 190.328125 57.84375 190.375 C 57.933594 190.417969 58.066406 190.460938 58.242188 190.375 L 70.273438 185.410156 C 70.539062 185.277344 70.671875 184.972656 70.582031 184.707031 L 50.464844 136.128906 C 50.378906 135.953125 50.289062 135.867188 50.160156 135.824219 C 50.070312 135.777344 49.984375 135.777344 49.9375 135.777344 Z M 49.9375 135.777344 " fill-opacity="1" fill-rule="nonzero"/><path fill="#ffffff" d="M 131.679688 166.128906 C 131.019531 166.128906 130.359375 165.777344 130.007812 165.164062 C 129.480469 164.238281 129.832031 163.054688 130.753906 162.527344 L 171.558594 139.46875 C 172.480469 138.941406 173.667969 139.292969 174.195312 140.214844 C 174.722656 141.136719 174.371094 142.324219 173.449219 142.851562 L 132.644531 165.910156 C 132.335938 166.039062 131.984375 166.128906 131.679688 166.128906 Z M 131.679688 166.128906 " fill-opacity="1" fill-rule="nonzero"/><path fill="#ffffff" d="M 123.992188 176.273438 C 122.628906 176.273438 121.222656 175.96875 119.863281 175.394531 C 119.863281 175.394531 119.820312 175.394531 119.820312 175.351562 L 94.871094 163.757812 C 93.90625 163.316406 93.464844 162.175781 93.949219 161.210938 C 94.386719 160.242188 95.53125 159.804688 96.496094 160.285156 L 121.398438 171.882812 C 123.15625 172.628906 124.78125 172.628906 126.273438 171.925781 C 127.59375 171.3125 128.734375 170.082031 129.351562 168.589844 C 130.007812 167.09375 130.097656 165.425781 129.65625 164.0625 C 129.128906 162.484375 127.988281 161.296875 126.230469 160.550781 C 126.230469 160.550781 126.1875 160.550781 126.1875 160.550781 L 86.21875 142.367188 C 83.582031 141.179688 80.816406 140.347656 77.960938 139.953125 C 70.273438 138.851562 62.457031 139.863281 55.296875 142.894531 C 54.332031 143.289062 53.1875 142.851562 52.792969 141.882812 C 52.398438 140.917969 52.839844 139.777344 53.804688 139.378906 C 61.578125 136.085938 70.144531 134.988281 78.488281 136.175781 C 81.695312 136.613281 84.8125 137.535156 87.800781 138.898438 L 127.726562 157.082031 C 133.699219 159.628906 134.839844 165.601562 132.90625 170.167969 C 131.898438 172.542969 130.140625 174.429688 127.945312 175.484375 C 126.671875 175.96875 125.351562 176.273438 123.992188 176.273438 Z M 123.992188 176.273438 " fill-opacity="1" fill-rule="nonzero"/><path fill="#ffffff" d="M 114.503906 196.65625 C 112.394531 196.65625 110.289062 196.214844 108.355469 195.292969 L 75.414062 180.183594 L 70.011719 180.183594 C 68.957031 180.183594 68.078125 179.304688 68.078125 178.25 C 68.078125 177.195312 68.957031 176.320312 70.011719 176.320312 L 75.851562 176.320312 C 76.117188 176.320312 76.425781 176.363281 76.644531 176.496094 L 109.980469 191.824219 C 112.703125 193.097656 115.867188 193.140625 118.632812 192 L 180.300781 160.285156 C 180.34375 160.242188 180.429688 160.242188 180.476562 160.199219 C 187.28125 157.34375 188.554688 151.589844 186.84375 147.417969 C 185.128906 143.246094 180.125 140.082031 173.273438 142.894531 C 172.304688 143.289062 171.164062 142.851562 170.769531 141.839844 C 170.371094 140.875 170.8125 139.730469 171.824219 139.335938 C 180.695312 135.648438 187.898438 139.863281 190.445312 145.925781 C 192.949219 151.984375 190.882812 160.023438 182.011719 163.714844 L 120.347656 195.425781 C 120.300781 195.46875 120.257812 195.46875 120.214844 195.511719 C 118.324219 196.304688 116.394531 196.65625 114.503906 196.65625 Z M 114.503906 196.65625 " fill-opacity="1" fill-rule="nonzero"/><path fill="#ffffff" d="M 166.507812 127.214844 L 70.40625 127.214844 C 66.015625 127.214844 62.457031 123.65625 62.457031 119.265625 L 62.457031 62.957031 C 62.457031 58.5625 66.015625 55.007812 70.40625 55.007812 L 152.410156 55.007812 C 153.464844 55.007812 154.339844 55.882812 154.339844 56.9375 C 154.339844 57.992188 153.464844 58.871094 152.410156 58.871094 L 70.40625 58.871094 C 68.167969 58.871094 66.320312 60.714844 66.320312 62.957031 L 66.320312 119.308594 C 66.320312 121.546875 68.167969 123.394531 70.40625 123.394531 L 166.464844 123.394531 C 168.703125 123.394531 170.546875 121.546875 170.546875 119.308594 L 170.546875 76.132812 C 170.546875 75.078125 171.425781 74.199219 172.480469 74.199219 C 173.535156 74.199219 174.414062 75.078125 174.414062 76.132812 L 174.414062 119.308594 C 174.414062 123.65625 170.855469 127.214844 166.507812 127.214844 Z M 166.507812 127.214844 " fill-opacity="1" fill-rule="nonzero"/><path fill="#ffffff" d="M 164.269531 76.703125 L 64.390625 76.703125 C 63.335938 76.703125 62.457031 75.824219 62.457031 74.769531 C 62.457031 73.71875 63.335938 72.839844 64.390625 72.839844 L 164.269531 72.839844 C 165.320312 72.839844 166.199219 73.71875 166.199219 74.769531 C 166.199219 75.824219 165.320312 76.703125 164.269531 76.703125 Z M 164.269531 76.703125 " fill-opacity="1" fill-rule="nonzero"/><path fill="#ffffff" d="M 172.523438 90.054688 L 64.390625 90.054688 C 63.335938 90.054688 62.457031 89.175781 62.457031 88.125 C 62.457031 87.070312 63.335938 86.191406 64.390625 86.191406 L 172.480469 86.191406 C 173.535156 86.191406 174.414062 87.070312 174.414062 88.125 C 174.414062 89.175781 173.578125 90.054688 172.523438 90.054688 Z M 172.523438 90.054688 " fill-opacity="1" fill-rule="nonzero"/><path fill="#ffffff" d="M 81.078125 76.703125 C 80.027344 76.703125 79.148438 75.824219 79.148438 74.769531 L 79.148438 56.9375 C 79.148438 55.882812 80.027344 55.007812 81.078125 55.007812 C 82.132812 55.007812 83.011719 55.882812 83.011719 56.9375 L 83.011719 74.769531 C 83.011719 75.824219 82.132812 76.703125 81.078125 76.703125 Z M 81.078125 76.703125 " fill-opacity="1" fill-rule="nonzero"/><path fill="#ffffff" d="M 159.699219 118.253906 L 140.902344 118.253906 C 139.847656 118.253906 138.96875 117.375 138.96875 116.320312 L 138.96875 97.523438 C 138.96875 96.46875 139.847656 95.589844 140.902344 95.589844 L 159.699219 95.589844 C 160.753906 95.589844 161.632812 96.46875 161.632812 97.523438 L 161.632812 116.320312 C 161.632812 117.375 160.753906 118.253906 159.699219 118.253906 Z M 142.832031 114.386719 L 157.765625 114.386719 L 157.765625 99.457031 L 142.832031 99.457031 Z M 142.832031 114.386719 " fill-opacity="1" fill-rule="nonzero"/><path fill="#ffffff" d="M 150.300781 108.855469 L 140.902344 108.855469 C 139.847656 108.855469 138.96875 107.976562 138.96875 106.921875 C 138.96875 105.867188 139.847656 104.988281 140.902344 104.988281 L 150.300781 104.988281 C 151.355469 104.988281 152.234375 105.867188 152.234375 106.921875 C 152.234375 107.976562 151.355469 108.855469 150.300781 108.855469 Z M 150.300781 108.855469 " fill-opacity="1" fill-rule="nonzero"/><path fill="#ffffff" d="M 96.453125 113.335938 L 81.078125 113.335938 C 80.027344 113.335938 79.148438 112.457031 79.148438 111.402344 C 79.148438 110.347656 80.027344 109.46875 81.078125 109.46875 L 96.453125 109.46875 C 97.507812 109.46875 98.386719 110.347656 98.386719 111.402344 C 98.386719 112.457031 97.507812 113.335938 96.453125 113.335938 Z M 96.453125 113.335938 " fill-opacity="1" fill-rule="nonzero"/><path fill="#ffffff" d="M 113.539062 104.375 L 81.078125 104.375 C 80.027344 104.375 79.148438 103.496094 79.148438 102.441406 C 79.148438 101.386719 80.027344 100.507812 81.078125 100.507812 L 113.539062 100.507812 C 114.59375 100.507812 115.46875 101.386719 115.46875 102.441406 C 115.46875 103.496094 114.59375 104.375 113.539062 104.375 Z M 113.539062 104.375 " fill-opacity="1" fill-rule="nonzero"/><path fill="#ffffff" d="M 99.878906 65.898438 C 99.878906 66.238281 99.8125 66.5625 99.683594 66.875 C 99.554688 67.1875 99.371094 67.460938 99.132812 67.699219 C 98.894531 67.9375 98.617188 68.125 98.304688 68.253906 C 97.992188 68.382812 97.667969 68.445312 97.332031 68.445312 C 96.992188 68.445312 96.667969 68.382812 96.355469 68.253906 C 96.042969 68.125 95.769531 67.9375 95.53125 67.699219 C 95.289062 67.460938 95.105469 67.1875 94.976562 66.875 C 94.847656 66.5625 94.785156 66.238281 94.785156 65.898438 C 94.785156 65.5625 94.847656 65.234375 94.976562 64.925781 C 95.105469 64.613281 95.289062 64.335938 95.53125 64.097656 C 95.769531 63.859375 96.042969 63.675781 96.355469 63.546875 C 96.667969 63.417969 96.992188 63.351562 97.332031 63.351562 C 97.667969 63.351562 97.992188 63.417969 98.304688 63.546875 C 98.617188 63.675781 98.894531 63.859375 99.132812 64.097656 C 99.371094 64.335938 99.554688 64.613281 99.683594 64.925781 C 99.8125 65.234375 99.878906 65.5625 99.878906 65.898438 Z M 99.878906 65.898438 " fill-opacity="1" fill-rule="nonzero"/><path fill="#ffffff" d="M 113.539062 65.898438 C 113.539062 66.238281 113.472656 66.5625 113.34375 66.875 C 113.214844 67.1875 113.03125 67.460938 112.792969 67.699219 C 112.554688 67.9375 112.277344 68.125 111.964844 68.253906 C 111.652344 68.382812 111.328125 68.445312 110.992188 68.445312 C 110.652344 68.445312 110.328125 68.382812 110.015625 68.253906 C 109.703125 68.125 109.429688 67.9375 109.1875 67.699219 C 108.949219 67.460938 108.765625 67.1875 108.636719 66.875 C 108.507812 66.5625 108.441406 66.238281 108.441406 65.898438 C 108.441406 65.5625 108.507812 65.234375 108.636719 64.925781 C 108.765625 64.613281 108.949219 64.335938 109.1875 64.097656 C 109.429688 63.859375 109.703125 63.675781 110.015625 63.546875 C 110.328125 63.417969 110.652344 63.351562 110.992188 63.351562 C 111.328125 63.351562 111.652344 63.417969 111.964844 63.546875 C 112.277344 63.675781 112.554688 63.859375 112.792969 64.097656 C 113.03125 64.335938 113.214844 64.613281 113.34375 64.925781 C 113.472656 65.234375 113.539062 65.5625 113.539062 65.898438 Z M 113.539062 65.898438 " fill-opacity="1" fill-rule="nonzero"/><path fill="#ffffff" d="M 168.878906 82.941406 C 168.265625 82.941406 167.695312 82.632812 167.34375 82.148438 L 155.921875 66.734375 C 149.6875 58.300781 146.390625 48.332031 146.390625 37.832031 C 146.390625 37.304688 146.609375 36.824219 146.960938 36.472656 C 147.3125 36.121094 147.796875 35.898438 148.324219 35.898438 C 155.789062 35.945312 162.070312 33.617188 167.5625 28.785156 C 168.308594 28.171875 169.363281 28.171875 170.109375 28.785156 C 175.554688 33.574219 181.792969 35.898438 189.171875 35.898438 C 189.257812 35.898438 189.304688 35.898438 189.390625 35.898438 C 189.917969 35.898438 190.402344 36.121094 190.753906 36.472656 C 191.105469 36.824219 191.324219 37.304688 191.324219 37.832031 C 191.324219 48.285156 188.03125 58.300781 181.792969 66.734375 L 170.371094 82.148438 C 170.066406 82.632812 169.496094 82.941406 168.878906 82.941406 Z M 150.300781 39.722656 C 150.652344 48.679688 153.683594 57.203125 159.042969 64.449219 L 168.878906 77.757812 L 178.71875 64.449219 C 184.078125 57.203125 187.0625 48.679688 187.457031 39.722656 C 180.519531 39.371094 174.28125 37.042969 168.878906 32.738281 C 163.476562 37.042969 157.242188 39.414062 150.300781 39.722656 Z M 150.300781 39.722656 " fill-opacity="1" fill-rule="nonzero"/><g fill="#ffffff" fill-opacity="1"><g transform="translate(101.417695, 125.952645)"><g><path d="M 1.3125 0.046875 C 1.125 0.046875 0.976562 -0.00390625 0.875 -0.109375 C 0.769531 -0.210938 0.71875 -0.347656 0.71875 -0.515625 C 0.71875 -0.691406 0.769531 -0.832031 0.875 -0.9375 C 0.976562 -1.050781 1.125 -1.109375 1.3125 -1.109375 C 1.5 -1.109375 1.644531 -1.054688 1.75 -0.953125 C 1.863281 -0.847656 1.921875 -0.707031 1.921875 -0.53125 C 1.921875 -0.351562 1.863281 -0.210938 1.75 -0.109375 C 1.644531 -0.00390625 1.5 0.046875 1.3125 0.046875 Z M 1.3125 0.046875 "/></g></g></g></svg>