<svg xmlns="http://www.w3.org/2000/svg" xmlns:xlink="http://www.w3.org/1999/xlink" width="300" zoomAndPan="magnify" viewBox="0 0 224.87999 178.499995" height="238" preserveAspectRatio="xMidYMid meet" version="1.0"><defs><clipPath id="1a4db45f5c"><path d="M 38.25 3 L 182.597656 3 L 182.597656 174 L 38.25 174 Z M 38.25 3 " clip-rule="nonzero"/></clipPath></defs><g clip-path="url(#1a4db45f5c)"><path fill="#393536" d="M 114.25 3.8125 C 111.730469 2.882812 108.964844 2.882812 106.445312 3.8125 L 45.652344 26.273438 C 41.230469 27.90625 38.296875 32.121094 38.296875 36.832031 L 38.296875 81.777344 C 38.296875 124.617188 66.753906 162.0625 107.636719 173.527344 C 109.40625 174.023438 111.289062 174.023438 113.0625 173.527344 C 153.941406 162.0625 182.398438 124.617188 182.398438 81.777344 L 182.398438 36.832031 C 182.398438 32.121094 179.464844 27.90625 175.042969 26.273438 Z M 114.25 3.8125 " fill-opacity="1" fill-rule="nonzero"/></g><path fill="#e4031b" d="M 47.679688 81.777344 L 47.679688 35.527344 L 110.347656 12.371094 L 173.019531 35.527344 L 173.019531 81.777344 C 173.019531 120.488281 147.265625 154.277344 110.347656 164.542969 C 73.433594 154.277344 47.679688 120.488281 47.679688 81.777344 Z M 47.679688 81.777344 " fill-opacity="1" fill-rule="nonzero"/><path fill="#ffffff" d="M 159.132812 128.695312 C 148.019531 145.800781 130.917969 158.824219 110.347656 164.542969 C 89.78125 158.824219 72.679688 145.800781 61.5625 128.695312 L 61.5625 47.777344 C 61.5625 44.671875 64.082031 42.148438 67.191406 42.148438 L 153.503906 42.148438 C 156.613281 42.148438 159.132812 44.671875 159.132812 47.777344 Z M 159.132812 128.695312 " fill-opacity="1" fill-rule="nonzero"/><path fill="#00bf63" d="M 97.042969 72.894531 C 94.910156 70.691406 91.378906 70.691406 89.242188 72.894531 C 87.203125 75 87.203125 78.347656 89.242188 80.453125 L 100.738281 92.320312 C 102.789062 94.4375 106.1875 94.4375 108.238281 92.320312 L 131.078125 68.746094 C 133.121094 66.640625 133.121094 63.292969 131.078125 61.1875 C 128.945312 58.984375 125.410156 58.984375 123.277344 61.1875 L 104.488281 80.578125 Z M 97.042969 72.894531 " fill-opacity="1" fill-rule="nonzero"/><path fill="#393536" d="M 93.460938 112.136719 C 93.460938 114.726562 95.5625 116.828125 98.152344 116.828125 L 122.542969 116.828125 C 125.136719 116.828125 127.234375 114.726562 127.234375 112.136719 C 127.234375 109.546875 125.136719 107.445312 122.542969 107.445312 L 98.152344 107.445312 C 95.5625 107.445312 93.460938 109.546875 93.460938 112.136719 Z M 93.460938 112.136719 " fill-opacity="1" fill-rule="nonzero"/><path fill="#393536" d="M 82.203125 129.023438 C 82.203125 131.617188 84.304688 133.714844 86.894531 133.714844 L 133.425781 133.714844 C 136.019531 133.714844 138.117188 131.617188 138.117188 129.023438 C 138.117188 126.433594 136.019531 124.335938 133.425781 124.335938 L 86.894531 124.335938 C 84.304688 124.335938 82.203125 126.433594 82.203125 129.023438 Z M 82.203125 129.023438 " fill-opacity="1" fill-rule="nonzero"/></svg>